{
.formatVersion = 3;
classes = (
{
code = "one two three B D F I J P S T V W X Y Igrave Iacute Icircumflex Idieresis Eth Yacute Thorn eth Dcaron dcaron Dcroat Itilde Imacron Ibreve Iogonek Idotaccent IJ Jcircumflex lcaron Sacute Scircumflex Scaron Tcaron Tbar Wcircumflex Ycircumflex Ydieresis uni0218 uni021A uni0402 uni0405 uni0406 uni0407 uni0408 uni0409 uni040A uni040E uni0411 uni0412 uni0414 uni0417 uni0420 uni0422 uni0423 uni0424 uni0425 uni042A uni042B uni042C uni042D uni042E Wgrave Wacute Wdieresis Ygrave G_r G_s f_f f_j g_j j_j l_l q_j r.alt r.fina r.init racute.alt racute.fina racute.init rcaron.alt rcaron.fina rcaron.init s.alt s.fina s.init s_s sacute.alt sacute.fina sacute.init scaron.alt scaron.fina scaron.init scedilla.alt scedilla.fina scedilla.init scircumflex.alt scircumflex.fina scircumflex.init t_h t_t uni0157.alt uni0157.fina uni0157.init uni0219.alt uni0219.fina uni0219.init uni0412044F uni0422044F uni0433.alt uni0433.fina uni0433.init uni0436.alt uni0436.fina uni0436.init uni0436.ss02.alt uni0436.ss02.fina uni0436.ss02.init uni0437.alt uni0437.fina uni0437.init uni043B.alt uni043B.init uni043C.alt uni043C.init uni0445.alt uni0445.fina uni0445.init uni0447.alt uni0447.fina uni0447.init uni044A.alt uni044A.fina uni044A.init uni044D.alt uni044D.fina uni044D.init uni044F.alt uni044F.init uni0453.alt uni0453.fina uni0453.init uni0455.alt uni0455.fina uni0455.init uni0459.alt uni0459.init uni0491.alt uni0491.fina uni0491.init x.alt x.fina x.init y_j z.alt z.fina z.init zacute.alt zacute.fina zacute.init zcaron.alt zcaron.fina zcaron.init zdotaccent.alt zdotaccent.fina zdotaccent.init";
name = aalt;
},
{

glyphs = (
{
glyphname = .notdef;
layers = (
{
hints = (
{
horizontal = 1;
place = (-17,64);
type = Stem;
},
{
horizontal = 1;
place = (641,67);
type = Stem;
},
{
place = (94,76);
type = Stem;
},
{
place = (455,66);
type = Stem;
}
);
layerId = "2CBAB59C-6D1F-481C-8D47-CA6A7671DE0F";
shapes = (
{
closed = 1;
nodes = (
(519,677,o),
(503,708,o),
(471,708,c),
(142,709,l),
(109,709,o),
(93,678,o),
(93,647,cs),
(93,632,o),
(94,593,o),
(94,539,cs),
(94,464,o),
(92,358,o),
(84,247,cs),
(79,177,o),
(73,108,o),
(73,47,cs),
(73,4,o),
(106,-17,o),
(140,-17,c),
(435,-18,l),
(469,-18,o),
(503,4,o),
(503,48,cs),
(503,78,o),
(508,154,o),
(514,238,cs),
(520,318,o),
(521,401,o),
(521,471,cs),
(521,557,o),
(519,625,o),
(519,645,cs)
);
},
{
closed = 1;
nodes = (
(437,178,o),
(432,109,o),
(431,48,c),
(431,47,l),
(151,48,l),
(151,49,l),
(151,79,o),
(152,154,o),
(158,238,cs),
(165,333,o),
(170,440,o),
(170,530,cs),
(170,572,o),
(169,611,o),
(166,642,c),
(446,641,l),
(452,612,o),
(455,569,o),
(455,516,cs),
(455,439,o),
(449,342,o),
(442,247,cs)
);
},
{
closed = 1;
nodes = (
(362,467,o),
(356,464,o),
(349,460,cs),
(334,451,o),
(314,422,o),
(296,386,c),
(291,407,o),
(288,428,o),
(287,446,cs),
(286,460,o),
(278,468,o),
(268,468,c),
(267,468,o),
(267,468,o),
(266,468,c),
(251,467,o),
(243,460,o),
(243,448,cs),
(243,446,o),
(243,439,o),
(244,430,cs),
(247,401,o),
(256,365,o),
(271,329,c),
(247,276,o),
(240,270,o),
(236,270,cs),
(232,270,o),
(228,274,o),
(225,277,cs),
(220,282,o),
(216,282,o),
(210,282,cs),
(200,282,o),
(193,273,o),
(193,263,cs),
(193,256,o),
(196,249,o),
(202,243,cs),
(211,235,o),
(222,231,o),
(236,231,cs),
(262,231,o),
(280,252,o),
(296,282,c),
(307,264,o),
(320,247,o),
(336,231,cs),
(343,224,o),
(349,218,o),
(357,218,cs),
(372,218,o),
(379,230,o),
(379,240,cs),
(379,247,o),
(377,252,o),
(370,257,cs),
(347,273,o),
(329,298,o),
(316,327,c),
(336,375,o),
(357,411,o),
(379,430,cs),
(386,436,o),
(390,441,o),
(390,447,cs),
(390,460,o),
(380,467,o),
(369,467,cs)
);
}
);
width = 600;
}
);
},
{
glyphname = exclam;
layers = (
{
hints = (
{
horizontal = 1;
place = (-14,157);
type = Stem;
},
{
horizontal = 1;
place = (770,-20);
target = down;
type = TopGhost;
},
{
place = (45,157);
type = Stem;
},
{
place = (68,135);
type = Stem;
}
);
layerId = "2CBAB59C-6D1F-481C-8D47-CA6A7671DE0F";
shapes = (
{
closed = 1;
nodes = (
(164,169,o),
(191,198,o),
(194,238,cs),
(200,324,o),
(203,412,o),
(203,492,cs),
(203,572,o),
(200,645,o),
(196,698,cs),
(193,739,o),
(165,770,o),
(127,770,cs),
(85,770,o),
(58,733,o),
(62,687,cs),
(66,640,o),
(68,579,o),
(68,512,cs),
(68,428,o),
(65,335,o),
(60,246,cs),
(57,203,o),
(85,169,o),
(127,169,cs)
);
},
{
closed = 1;
nodes = (
(167,-14,o),
(202,21,o),
(202,65,cs),
(202,108,o),
(167,143,o),
(124,143,cs),
(80,143,o),
(45,108,o),
(45,65,cs),
(45,21,o),
(80,-14,o),
(124,-14,cs)
);
}
);
width = 263;
}
);
unicode = 33;
},
{
glyphname = quotedbl;
layers = (
{
hints = (
{
horizontal = 1;
place = (764,-20);
target = down;
type = TopGhost;
},
{
place = (21,321);
type = Stem;
}
);
layerId = "2CBAB59C-6D1F-481C-8D47-CA6A7671DE0F";
shapes = (
{
closed = 1;
nodes = (
(169,685,ls),
(174,730,o),
(145,764,o),
(107,764,cs),
(72,764,o),
(42,737,o),
(37,699,cs),
(21,560,ls),
(16,515,o),
(45,481,o),
(83,481,cs),
(118,481,o),
(148,508,o),
(153,546,cs)
);
},
{
closed = 1;
nodes = (
(342,685,ls),
(347,730,o),
(318,764,o),
(280,764,cs),
(245,764,o),
(215,737,o),
(210,699,cs),
(194,560,ls),
(189,515,o),
(218,481,o),
(256,481,cs),
(291,481,o),
(321,508,o),
(326,546,cs)
);
}
);
width = 363;
}
);
leftKerningGroup = quotedbl;
rightKerningGroup = quotedbl2;
unicode = 34;
},
{
glyphname = numbersign;
layers = (
{
hints = (
{
horizontal = 1;
place = (202,116);
type = Stem;
},
{
horizontal = 1;
place = (371,116);
type = Stem;
},
{
horizontal = 1;
place = (373,116);
type = Stem;
},
{
horizontal = 1;
place = (376,116);
type = Stem;
},
{
place = (40,531);
type = Stem;
}
);
layerId = "2CBAB59C-6D1F-481C-8D47-CA6A7671DE0F";
shapes = (
{
closed = 1;
nodes = (
(506,371,ls),
(549,371,o),
(571,401,o),
(571,431,cs),
(571,459,o),
(551,487,o),
(508,487,cs),
(505,487,l),
(513,510,o),
(519,528,o),
(524,540,cs),
(528,550,o),
(530,560,o),
(530,568,cs),
(530,605,o),
(498,628,o),
(466,628,cs),
(443,628,o),
(419,614,o),
(408,584,cs),
(399,560,o),
(388,527,o),
(376,489,c),
(357,490,o),
(338,490,o),
(319,490,c),
(335,541,ls),
(338,551,o),
(340,560,o),
(340,569,cs),
(340,607,o),
(310,631,o),
(279,631,cs),
(255,631,o),
(231,616,o),
(219,584,cs),
(211,561,o),
(200,528,o),
(189,492,c),
(137,492,ls),
(94,492,o),
(71,462,o),
(71,432,cs),
(71,404,o),
(91,376,o),
(133,376,cs),
(153,376,l),
(147,357,o),
(141,337,o),
(136,318,c),
(102,318,ls),
(62,318,o),
(40,288,o),
(40,259,cs),
(40,231,o),
(60,203,o),
(102,202,c),
(93,172,o),
(86,146,o),
(81,130,cs),
(79,123,o),
(78,116,o),
(78,110,cs),
(78,71,o),
(111,47,o),
(143,47,cs),
(168,47,o),
(191,61,o),
(200,93,cs),
(202,102,o),
(215,145,o),
(232,202,c),
(289,202,l),
(280,171,o),
(272,146,o),
(268,130,cs),
(266,122,o),
(265,115,o),
(265,108,cs),
(265,68,o),
(296,43,o),
(327,43,cs),
(351,43,o),
(376,58,o),
(386,93,cs),
(389,104,o),
(402,146,o),
(418,202,c),
(473,202,ls),
(515,202,o),
(536,231,o),
(536,260,cs),
(536,289,o),
(515,318,o),
(473,318,cs),
(453,318,l),
(458,336,o),
(464,354,o),
(469,371,c)
);
},
{
closed = 1;
nodes = (
(266,318,l),
(283,374,l),
(302,374,o),
(321,373,o),
(340,373,c),
(334,355,o),
(329,336,o),
(323,318,c)
);
}
);
width = 611;
}
);
unicode = 35;
},
{
glyphname = dollar;
layers = (
{
hints = (
{
horizontal = 1;
place = (-17,21);
target = up;
type = BottomGhost;
},
{
horizontal = 1;
place = (-13,21);
target = up;
type = BottomGhost;
},
{
horizontal = 1;
place = (765,-20);
target = down;
type = TopGhost;
},
{
place = (13,135);
type = Stem;
},
{
place = (31,133);
type = Stem;
},
{
place = (165,129);
type = Stem;
},
{
place = (182,127);
type = Stem;
},
{
place = (194,102);
type = Stem;
},
{
place = (195,105);
type = Stem;
},
{
place = (330,135);
type = Stem;
}
);
layerId = "2CBAB59C-6D1F-481C-8D47-CA6A7671DE0F";
shapes = (
{
closed = 1;
nodes = (
(465,286,o),
(378,353,o),
(300,403,c),
(300,415,o),
(300,428,o),
(300,440,cs),
(300,557,l),
(304,553,o),
(308,549,o),
(311,545,cs),
(327,524,o),
(349,512,o),
(371,512,cs),
(404,512,o),
(430,538,o),
(430,571,cs),
(430,586,o),
(424,602,o),
(413,618,cs),
(388,655,o),
(353,682,o),
(309,696,c),
(309,702,l),
(306,745,o),
(275,765,o),
(244,765,cs),
(213,765,o),
(182,744,o),
(182,702,c),
(91,684,o),
(31,620,o),
(31,535,cs),
(31,429,o),
(107,374,o),
(194,317,c),
(191,238,o),
(186,172,o),
(182,120,c),
(161,136,o),
(148,162,o),
(148,195,cs),
(148,208,o),
(151,223,o),
(151,232,cs),
(151,275,o),
(125,299,o),
(89,299,cs),
(53,299,o),
(21,274,o),
(16,236,cs),
(14,222,o),
(13,208,o),
(13,192,cs),
(13,91,o),
(74,13,o),
(165,-13,c),
(165,-23,ls),
(165,-67,o),
(198,-90,o),
(230,-90,cs),
(261,-90,o),
(292,-69,o),
(294,-24,c),
(294,-17,l),
(396,3,o),
(465,77,o),
(465,184,cs)
);
},
{
closed = 1;
nodes = (
(164,552,o),
(175,568,o),
(195,577,c),
(195,539,o),
(196,500,o),
(196,473,c),
(176,491,o),
(164,509,o),
(164,532,cs)
);
},
{
closed = 1;
nodes = (
(292,157,o),
(294,202,o),
(296,247,c),
(317,227,o),
(330,206,o),
(330,178,cs),
(330,153,o),
(315,129,o),
(289,115,c)
);
}
);
width = 480;
}
);
unicode = 36;
},
{
glyphname = percent;
layers = (
{
hints = (
{
horizontal = 1;
place = (-14,107);
type = Stem;
},
{
horizontal = 1;
place = (134,107);
type = Stem;
},
{
horizontal = 1;
place = (426,107);
type = Stem;
},
{
horizontal = 1;
place = (574,107);
type = Stem;
},
{
place = (30,112);
type = Stem;
},
{
place = (184,110);
type = Stem;
},
{
place = (320,112);
type = Stem;
},
{
place = (474,110);
type = Stem;
}
);
layerId = "2CBAB59C-6D1F-481C-8D47-CA6A7671DE0F";
shapes = (
{
closed = 1;
nodes = (
(70,58,o),
(66,46,o),
(66,34,cs),
(66,0,o),
(97,-30,o),
(131,-30,cs),
(149,-30,o),
(167,-22,o),
(183,-1,cs),
(282,129,o),
(427,466,o),
(531,601,cs),
(541,614,o),
(545,627,o),
(545,640,cs),
(545,673,o),
(517,703,o),
(483,703,cs),
(466,703,o),
(448,695,o),
(432,676,cs),
(316,538,o),
(181,197,o),
(86,78,cs)
);
},
{
closed = 1;
nodes = (
(233,426,o),
(294,488,o),
(294,567,cs),
(294,635,o),
(246,681,o),
(174,681,cs),
(92,681,o),
(30,619,o),
(30,540,cs),
(30,472,o),
(79,426,o),
(153,426,cs)
);
},
{
closed = 1;
nodes = (
(148,533,o),
(142,539,o),
(142,549,cs),
(142,563,o),
(153,574,o),
(167,574,cs),
(178,574,o),
(184,568,o),
(184,558,cs),
(184,545,o),
(172,533,o),
(159,533,cs)
);
},
{
closed = 1;
nodes = (
(523,-14,o),
(584,48,o),
(584,127,cs),
(584,195,o),
(536,241,o),
(464,241,cs),
(382,241,o),
(320,179,o),
(320,100,cs),
(320,32,o),
(369,-14,o),
(443,-14,cs)
);
},
{
closed = 1;
nodes = (
(438,93,o),
(432,99,o),
(432,109,cs),
(432,123,o),
(443,134,o),
(457,134,cs),
(468,134,o),
(474,128,o),
(474,118,cs),
(474,105,o),
(462,93,o),
(449,93,cs)
);
}
);
width = 614;
}
);
unicode = 37;
},
{
glyphname = ampersand;
layers = (
{
hints = (
{
horizontal = 1;
place = (-20,124);
type = Stem;
},
{
horizontal = 1;
place = (603,120);
type = Stem;
},
{
place = (-11,140);
type = Stem;
},
{
place = (80,125);
type = Stem;
},
{
place = (253,126);
type = Stem;
},
{
place = (369,132);
type = Stem;
}
);
layerId = "2CBAB59C-6D1F-481C-8D47-CA6A7671DE0F";
shapes = (
{
closed = 1;
nodes = (
(515,111,o),
(480,132,o),
(448,154,c),
(475,202,o),
(493,257,o),
(498,316,cs),
(500,339,o),
(501,361,o),
(501,380,cs),
(501,422,o),
(472,442,o),
(442,442,cs),
(408,442,o),
(370,416,o),
(369,368,c),
(369,351,o),
(368,332,o),
(366,311,cs),
(363,283,o),
(358,258,o),
(350,236,c),
(307,279,o),
(273,326,o),
(248,373,c),
(313,447,o),
(379,522,o),
(379,596,cs),
(379,669,o),
(335,723,o),
(250,723,cs),
(157,723,o),
(80,652,o),
(80,543,cs),
(80,491,o),
(89,436,o),
(107,383,c),
(46,310,o),
(-11,232,o),
(-11,174,cs),
(-11,59,o),
(63,-20,o),
(179,-20,cs),
(243,-20,o),
(305,4,o),
(357,45,c),
(397,17,o),
(440,-8,o),
(487,-27,cs),
(501,-33,o),
(511,-36,o),
(521,-36,cs),
(560,-36,o),
(588,-4,o),
(590,29,c),
(593,54,o),
(582,79,o),
(553,93,cs)
);
},
{
closed = 1;
nodes = (
(205,585,o),
(223,603,o),
(236,603,cs),
(246,603,o),
(253,595,o),
(253,578,cs),
(253,561,o),
(235,534,o),
(208,501,c),
(206,514,o),
(205,528,o),
(205,541,cs)
);
},
{
closed = 1;
nodes = (
(129,203,o),
(141,232,o),
(160,263,c),
(188,214,o),
(223,168,o),
(264,126,c),
(238,111,o),
(212,104,o),
(187,104,cs),
(151,104,o),
(129,132,o),
(129,174,cs)
);
}
);
width = 586;
}
);
unicode = 38;
},
{
glyphname = quotesingle;
layers = (
{
hints = (
{
horizontal = 1;
place = (764,-20);
target = down;
type = TopGhost;
},
{
place = (21,148);
type = Stem;
}
);
layerId = "2CBAB59C-6D1F-481C-8D47-CA6A7671DE0F";
shapes = (
{
closed = 1;
nodes = (
(169,685,ls),
(174,730,o),
(145,764,o),
(107,764,cs),
(72,764,o),
(42,737,o),
(37,699,cs),
(21,560,ls),
(16,515,o),
(45,481,o),
(83,481,cs),
(118,481,o),
(148,508,o),
(153,546,cs)
);
}
);
width = 190;
}
);
leftKerningGroup = quotedbl;
rightKerningGroup = quotedbl2;
unicode = 39;
},
{
glyphname = parenleft;
layers = (
{
hints = (
{
horizontal = 1;
place = (-26,755);
type = Stem;
},
{
place = (70,136);
type = Stem;
}
);
layerId = "2CBAB59C-6D1F-481C-8D47-CA6A7671DE0F";
shapes = (
{
closed = 1;
nodes = (
(207,-18,o),
(228,-26,o),
(247,-26,cs),
(283,-26,o),
(312,2,o),
(312,38,cs),
(312,57,o),
(303,79,o),
(282,100,cs),
(233,146,o),
(206,229,o),
(206,336,cs),
(206,441,o),
(232,540,o),
(278,612,cs),
(290,631,o),
(295,649,o),
(295,665,cs),
(295,703,o),
(267,729,o),
(234,729,cs),
(210,729,o),
(184,715,o),
(163,683,cs),
(104,590,o),
(70,461,o),
(70,331,cs),
(70,191,o),
(112,74,o),
(187,1,cs)
);
}
);
width = 362;
}
);
unicode = 40;
},
{
glyphname = parenright;
layers = (
{
hints = (
{
horizontal = 1;
place = (-27,755);
type = Stem;
},
{
place = (176,136);
type = Stem;
}
);
layerId = "2CBAB59C-6D1F-481C-8D47-CA6A7671DE0F";
shapes = (
{
closed = 1;
nodes = (
(175,720,o),
(154,728,o),
(135,728,cs),
(99,728,o),
(70,700,o),
(70,664,cs),
(70,645,o),
(79,623,o),
(100,602,cs),
(149,556,o),
(176,473,o),
(176,366,cs),
(176,261,o),
(150,162,o),
(104,90,cs),
(92,71,o),
(87,53,o),
(87,37,cs),
(87,-1,o),
(115,-27,o),
(148,-27,cs),
(172,-27,o),
(198,-13,o),
(219,19,cs),
(278,112,o),
(312,241,o),
(312,371,cs),
(312,511,o),
(270,628,o),
(195,701,cs)
);
}
);
width = 362;
}
);
unicode = 41;
},
{
glyphname = asterisk;
layers = (
{
hints = (
{
horizontal = 1;
place = (766,-20);
target = down;
type = TopGhost;
},
{
place = (20,282);
type = Stem;
},
{
place = (105,100);
type = Stem;
}
);
layerId = "2CBAB59C-6D1F-481C-8D47-CA6A7671DE0F";
shapes = (
{
closed = 1;
nodes = (
(266,647,o),
(259,651,o),
(252,655,c),
(274,671,ls),
(293,685,o),
(301,702,o),
(301,718,cs),
(301,743,o),
(279,766,o),
(252,766,cs),
(241,766,o),
(228,762,o),
(216,753,c),
(223,758,o),
(218,755,o),
(206,746,c),
(206,750,o),
(205,754,o),
(205,758,c),
(203,793,o),
(179,810,o),
(155,810,cs),
(129,810,o),
(103,790,o),
(105,752,c),
(105,749,o),
(105,745,o),
(106,742,c),
(97,747,ls),
(86,753,o),
(76,756,o),
(67,756,cs),
(39,756,o),
(20,732,o),
(20,706,cs),
(20,689,o),
(28,671,o),
(49,659,cs),
(71,646,l),
(54,634,o),
(43,626,o),
(43,626,c),
(43,626,o),
(46,628,o),
(51,632,c),
(34,619,o),
(27,603,o),
(27,587,cs),
(27,561,o),
(45,538,o),
(72,538,cs),
(84,538,o),
(96,542,o),
(109,551,cs),
(111,553,o),
(114,555,o),
(118,557,c),
(118,554,l),
(120,519,o),
(145,501,o),
(170,501,cs),
(195,501,o),
(219,520,o),
(217,560,c),
(217,560,o),
(217,561,o),
(217,561,c),
(226,556,ls),
(237,550,o),
(247,547,o),
(256,547,cs),
(283,547,o),
(302,571,o),
(302,596,cs),
(302,613,o),
(294,631,o),
(273,643,cs)
);
}
);
width = 322;
}
);
unicode = 42;
},
{
glyphname = plus;
layers = (
{
hints = (
{
horizontal = 1;
place = (277,120);
type = Stem;
},
{
place = (135,122);
type = Stem;
}
);
layerId = "2CBAB59C-6D1F-481C-8D47-CA6A7671DE0F";
shapes = (
{
closed = 1;
nodes = (
(257,397,l),
(257,457,ls),
(257,493,o),
(231,519,o),
(196,519,cs),
(160,519,o),
(135,494,o),
(135,458,c),
(134,398,l),
(81,398,ls),
(44,398,o),
(19,373,o),
(19,338,cs),
(19,304,o),
(45,278,o),
(81,278,cs),
(133,278,l),
(133,221,ls),
(133,183,o),
(159,156,o),
(195,156,cs),
(230,156,o),
(256,183,o),
(256,221,cs),
(256,277,l),
(317,277,ls),
(355,277,o),
(382,303,o),
(382,337,cs),
(382,372,o),
(355,397,o),
(317,397,cs)
);
}
);
width = 403;
}
);
unicode = 43;
},
{
glyphname = comma;
layers = (
{
hints = (
{
horizontal = 1;
place = (-137,275);
type = Stem;
},
{
place = (34,153);
type = Stem;
}
);
layerId = "2CBAB59C-6D1F-481C-8D47-CA6A7671DE0F";
shapes = (
{
closed = 1;
nodes = (
(63,-137,o),
(77,-133,o),
(90,-125,cs),
(138,-95,o),
(187,-23,o),
(187,46,cs),
(187,102,o),
(155,138,o),
(107,138,cs),
(66,138,o),
(34,107,o),
(34,66,cs),
(34,45,o),
(42,34,o),
(49,24,cs),
(55,15,o),
(60,8,o),
(60,-2,cs),
(60,-20,o),
(45,-37,o),
(31,-53,cs),
(17,-69,o),
(5,-84,o),
(5,-100,cs),
(5,-122,o),
(24,-137,o),
(49,-137,cs)
);
}
);
width = 217;
}
);
leftKerningGroup = comma;
unicode = 44;
},
{
glyphname = hyphen;
layers = (
{
hints = (
{
horizontal = 1;
place = (219,118);
type = Stem;
},
{
place = (100,315);
type = Stem;
}
);
layerId = "2CBAB59C-6D1F-481C-8D47-CA6A7671DE0F";
shapes = (
{
closed = 1;
nodes = (
(389,217,o),
(415,242,o),
(415,277,cs),
(415,312,o),
(387,337,o),
(350,337,cs),
(307,337,o),
(170,339,o),
(164,339,cs),
(126,339,o),
(100,314,o),
(100,279,cs),
(100,244,o),
(128,219,o),
(165,219,cs),
(208,219,o),
(345,217,o),
(351,217,cs)
);
}
);
width = 495;
}
);
leftKerningGroup = hyphen;
unicode = 45;
},
{
glyphname = period;
layers = (
{
hints = (
{
horizontal = 1;
place = (-16,157);
type = Stem;
},
{
place = (35,157);
type = Stem;
}
);
layerId = "2CBAB59C-6D1F-481C-8D47-CA6A7671DE0F";
shapes = (
{
closed = 1;
nodes = (
(157,-16,o),
(192,19,o),
(192,63,cs),
(192,106,o),
(157,141,o),
(114,141,cs),
(70,141,o),
(35,106,o),
(35,63,cs),
(35,19,o),
(70,-16,o),
(114,-16,cs)
);
}
);
width = 227;
}
);
leftKerningGroup = comma;
unicode = 46;
},
{
glyphname = slash;
layers = (
{
hints = (
{
horizontal = 1;
place = (-14,21);
target = up;
type = BottomGhost;
},
{
place = (30,390);
type = Stem;
}
);
layerId = "2CBAB59C-6D1F-481C-8D47-CA6A7671DE0F";
shapes = (
{
closed = 1;
nodes = (
(120,-14,o),
(141,-1,o),
(153,18,cs),
(190,77,o),
(232,188,o),
(273,301,cs),
(318,424,o),
(362,546,o),
(405,607,cs),
(414,620,o),
(420,638,o),
(420,652,cs),
(420,687,o),
(393,718,o),
(354,718,cs),
(332,718,o),
(314,707,o),
(299,689,cs),
(250,626,o),
(198,486,o),
(150,354,cs),
(111,247,o),
(75,147,o),
(43,97,cs),
(35,84,o),
(30,68,o),
(30,52,cs),
(30,17,o),
(62,-14,o),
(98,-14,cs)
);
}
);
width = 450;
}
);
unicode = 47;
},
{
glyphname = zero;
layers = (
{
hints = (
{
horizontal = 1;
place = (-15,125);
type = Stem;
},
{
horizontal = 1;
place = (575,125);
type = Stem;
},
{
place = (29,135);
type = Stem;
},
{
place = (340,135);
type = Stem;
}
);
layerId = "2CBAB59C-6D1F-481C-8D47-CA6A7671DE0F";
shapes = (
{
closed = 1;
nodes = (
(397,-15,o),
(475,124,o),
(475,371,cs),
(475,580,o),
(398,700,o),
(260,700,cs),
(109,700,o),
(29,559,o),
(29,313,cs),
(29,93,o),
(101,-15,o),
(250,-15,cs)
);
},
{
closed = 1;
nodes = (
(192,110,o),
(164,168,o),
(164,313,cs),
(164,481,o),
(204,575,o),
(262,575,cs),
(307,575,o),
(340,500,o),
(340,372,cs),
(340,205,o),
(302,110,o),
(248,110,cs)
);
}
);
width = 505;
}
);
unicode = 48;
},
{
glyphname = one;
layers = (
{
hints = (
{
horizontal = 1;
place = (-12,21);
target = up;
type = BottomGhost;
},
{
place = (156,134);
type = Stem;
}
);
layerId = "2CBAB59C-6D1F-481C-8D47-CA6A7671DE0F";
shapes = (
{
closed = 1;
nodes = (
(284,682,o),
(253,705,o),
(221,705,cs),
(196,705,o),
(170,690,o),
(158,657,cs),
(140,604,o),
(106,557,o),
(50,515,cs),
(30,500,o),
(20,476,o),
(20,454,cs),
(20,424,o),
(39,396,o),
(76,396,cs),
(89,396,o),
(103,400,o),
(117,409,cs),
(131,418,o),
(143,428,o),
(156,442,c),
(154,315,o),
(147,165,o),
(136,61,cs),
(131,14,o),
(163,-12,o),
(200,-12,cs),
(237,-12,o),
(264,6,o),
(269,45,cs),
(284,161,o),
(290,325,o),
(290,465,cs),
(290,533,o),
(289,595,o),
(286,644,cs)
);
}
);
width = 360;
}
);
unicode = 49;
},
{
glyphname = two;
layers = (
{
hints = (
{
horizontal = 1;
place = (-11,125);
type = Stem;
},
{
horizontal = 1;
place = (-6,21);
target = up;
type = BottomGhost;
},
{
horizontal = 1;
place = (576,125);
type = Stem;
},
{
place = (38,129);
type = Stem;
},
{
place = (267,135);
type = Stem;
}
);
layerId = "2CBAB59C-6D1F-481C-8D47-CA6A7671DE0F";
shapes = (
{
closed = 1;
nodes = (
(56,130,o),
(20,112,o),
(20,58,cs),
(20,23,o),
(47,-6,o),
(85,-6,cs),
(123,-6,o),
(139,22,o),
(165,22,cs),
(197,22,o),
(243,-11,o),
(325,-11,cs),
(427,-11,o),
(497,76,o),
(497,163,cs),
(497,201,o),
(468,220,o),
(437,220,cs),
(408,220,o),
(378,203,o),
(369,169,cs),
(358,125,o),
(339,114,o),
(307,114,cs),
(293,114,o),
(276,116,o),
(251,126,c),
(349,238,o),
(402,388,o),
(402,505,cs),
(402,630,o),
(337,701,o),
(219,701,cs),
(110,701,o),
(38,620,o),
(38,493,cs),
(38,447,o),
(69,424,o),
(102,424,cs),
(120,424,o),
(138,431,o),
(150,445,cs),
(160,456,o),
(167,473,o),
(167,493,cs),
(167,549,o),
(194,576,o),
(221,576,cs),
(245,576,o),
(267,554,o),
(267,504,cs),
(267,378,o),
(180,207,o),
(109,163,cs)
);
}
);
width = 517;
}
);
unicode = 50;
},
{
glyphname = three;
layers = (
{
hints = (
{
horizontal = 1;
place = (-11,125);
type = Stem;
},
{
horizontal = 1;
place = (576,125);
type = Stem;
},
{
place = (32,130);
type = Stem;
},
{
place = (260,134);
type = Stem;
},
{
place = (308,134);
type = Stem;
}
);
layerId = "2CBAB59C-6D1F-481C-8D47-CA6A7671DE0F";
shapes = (
{
closed = 1;
nodes = (
(370,432,o),
(394,488,o),
(394,541,cs),
(394,624,o),
(334,701,o),
(219,701,cs),
(122,701,o),
(32,644,o),
(32,532,cs),
(32,477,o),
(50,433,o),
(103,433,cs),
(136,433,o),
(168,453,o),
(168,486,cs),
(168,496,o),
(162,507,o),
(162,524,cs),
(162,558,o),
(188,576,o),
(213,576,cs),
(237,576,o),
(260,560,o),
(260,526,cs),
(260,477,o),
(246,444,o),
(194,424,cs),
(165,413,o),
(152,388,o),
(152,363,cs),
(152,332,o),
(173,302,o),
(211,302,cs),
(276,302,o),
(308,267,o),
(308,211,cs),
(308,163,o),
(277,114,o),
(218,114,cs),
(188,114,o),
(156,131,o),
(136,170,cs),
(122,199,o),
(97,211,o),
(74,211,cs),
(41,211,o),
(10,187,o),
(10,150,cs),
(10,103,o),
(35,64,o),
(76,34,cs),
(118,3,o),
(167,-11,o),
(216,-11,cs),
(331,-11,o),
(442,71,o),
(442,207,cs),
(442,292,o),
(398,359,o),
(321,392,c)
);
}
);
width = 477;
}
);
unicode = 51;
},
{
glyphname = four;
layers = (
{
hints = (
{
horizontal = 1;
place = (-14,21);
target = up;
type = BottomGhost;
},
{
horizontal = 1;
place = (227,119);
type = Stem;
},
{
place = (96,135);
type = Stem;
},
{
place = (255,135);
type = Stem;
}
);
layerId = "2CBAB59C-6D1F-481C-8D47-CA6A7671DE0F";
shapes = (
{
closed = 1;
nodes = (
(444,283,o),
(425,293,o),
(406,302,c),
(409,334,ls),
(420,435,o),
(434,515,o),
(434,536,cs),
(434,577,o),
(401,599,o),
(367,599,cs),
(336,599,o),
(305,580,o),
(299,540,cs),
(290,481,o),
(281,413,o),
(274,343,c),
(261,345,o),
(249,346,o),
(240,346,cs),
(218,346,o),
(206,345,o),
(191,342,c),
(216,409,o),
(231,497,o),
(231,588,cs),
(231,606,o),
(230,623,o),
(229,640,cs),
(227,683,o),
(194,704,o),
(162,704,cs),
(125,704,o),
(89,678,o),
(94,630,cs),
(96,611,o),
(96,592,o),
(96,573,cs),
(96,483,o),
(81,397,o),
(59,362,cs),
(37,327,o),
(10,310,o),
(10,274,cs),
(10,231,o),
(40,201,o),
(77,201,cs),
(104,201,o),
(131,227,o),
(194,227,cs),
(216,227,o),
(239,225,o),
(262,220,c),
(258,160,o),
(255,103,o),
(255,54,cs),
(255,9,o),
(289,-14,o),
(322,-14,cs),
(356,-14,o),
(390,9,o),
(390,54,cs),
(390,92,o),
(392,132,o),
(394,171,c),
(397,169,l),
(409,162,o),
(421,159,o),
(431,159,cs),
(464,159,o),
(487,191,o),
(487,223,cs),
(487,242,o),
(479,261,o),
(460,273,cs)
);
}
);
width = 505;
}
);
unicode = 52;
},
{
glyphname = five;
layers = (
{
hints = (
{
horizontal = 1;
place = (-15,125);
type = Stem;
},
{
horizontal = 1;
place = (381,119);
type = Stem;
},
{
horizontal = 1;
place = (556,122);
type = Stem;
},
{
place = (324,135);
type = Stem;
}
);
layerId = "2CBAB59C-6D1F-481C-8D47-CA6A7671DE0F";
shapes = (
{
closed = 1;
nodes = (
(361,-15,o),
(459,83,o),
(459,272,cs),
(459,416,o),
(375,500,o),
(262,500,cs),
(237,500,o),
(209,491,o),
(197,485,c),
(203,512,o),
(204,525,o),
(207,542,cs),
(209,552,o),
(212,556,o),
(222,556,cs),
(266,556,o),
(352,558,o),
(405,597,cs),
(426,612,o),
(435,634,o),
(435,656,cs),
(435,688,o),
(414,718,o),
(378,718,cs),
(366,718,o),
(353,714,o),
(340,706,cs),
(295,678,o),
(248,678,o),
(162,678,cs),
(118,678,o),
(91,653,o),
(88,610,cs),
(86,576,o),
(78,509,o),
(67,466,cs),
(58,431,o),
(53,422,o),
(53,406,cs),
(53,376,o),
(77,352,o),
(114,352,cs),
(158,352,o),
(174,381,o),
(234,381,cs),
(289,381,o),
(324,347,o),
(324,269,cs),
(324,163,o),
(271,110,o),
(226,110,cs),
(184,110,o),
(162,136,o),
(148,194,cs),
(141,225,o),
(114,240,o),
(87,240,cs),
(54,240,o),
(20,218,o),
(20,175,cs),
(20,67,o),
(103,-15,o),
(225,-15,cs)
);
}
);
width = 494;
}
);
unicode = 53;
},
{
glyphname = six;
layers = (
{
hints = (
{
horizontal = 1;
place = (-13,125);
type = Stem;
},
{
horizontal = 1;
place = (333,124);
type = Stem;
},
{
horizontal = 1;
place = (437,-20);
target = down;
type = TopGhost;
},
{
horizontal = 1;
place = (576,125);
type = Stem;
},
{
place = (382,135);
type = Stem;
}
);
layerId = "2CBAB59C-6D1F-481C-8D47-CA6A7671DE0F";
shapes = (
{
closed = 1;
nodes = (
(291,457,o),
(259,450,o),
(227,437,c),
(251,534,o),
(298,576,o),
(336,576,cs),
(357,576,o),
(375,564,o),
(393,533,cs),
(406,511,o),
(426,502,o),
(447,502,cs),
(481,502,o),
(515,527,o),
(515,565,cs),
(515,576,o),
(512,588,o),
(506,601,cs),
(477,665,o),
(413,701,o),
(341,701,cs),
(188,701,o),
(90,569,o),
(77,340,c),
(52,318,o),
(31,293,o),
(15,268,cs),
(4,251,o),
(0,234,o),
(0,220,cs),
(0,184,o),
(31,162,o),
(63,162,cs),
(71,162,o),
(78,163,o),
(86,166,c),
(112,51,o),
(180,-13,o),
(288,-13,cs),
(417,-13,o),
(517,100,o),
(517,241,cs),
(517,378,o),
(441,457,o),
(320,457,cs)
);
},
{
closed = 1;
nodes = (
(240,112,o),
(210,170,o),
(210,283,cs),
(210,296,l),
(245,322,o),
(278,333,o),
(311,333,cs),
(352,333,o),
(382,306,o),
(382,246,cs),
(382,174,o),
(337,112,o),
(289,112,cs)
);
}
);
width = 557;
}
);
unicode = 54;
},
{
glyphname = seven;
layers = (
{
hints = (
{
horizontal = 1;
place = (-14,21);
target = up;
type = BottomGhost;
},
{
horizontal = 1;
place = (226,119);
type = Stem;
},
{
horizontal = 1;
place = (234,121);
type = Stem;
},
{
horizontal = 1;
place = (555,112);
type = Stem;
},
{
horizontal = 1;
place = (575,127);
type = Stem;
},
{
place = (17,448);
type = Stem;
}
);
layerId = "2CBAB59C-6D1F-481C-8D47-CA6A7671DE0F";
shapes = (
{
closed = 1;
nodes = (
(375,684,o),
(364,667,o),
(323,667,cs),
(265,667,o),
(205,702,o),
(142,702,cs),
(71,702,o),
(17,638,o),
(17,585,cs),
(17,544,o),
(51,521,o),
(83,521,cs),
(105,521,o),
(125,531,o),
(136,553,cs),
(145,571,o),
(151,575,o),
(160,575,cs),
(178,575,o),
(224,555,o),
(256,555,c),
(225,493,o),
(200,423,o),
(182,354,c),
(167,355,o),
(152,355,o),
(136,355,cs),
(93,355,o),
(72,325,o),
(72,295,cs),
(72,264,o),
(93,234,o),
(136,234,cs),
(154,234,l),
(139,152,o),
(132,83,o),
(132,49,cs),
(132,8,o),
(165,-14,o),
(198,-14,cs),
(231,-14,o),
(264,7,o),
(267,50,cs),
(271,109,o),
(279,170,o),
(289,228,c),
(307,228,o),
(327,226,o),
(348,226,cs),
(383,226,o),
(402,256,o),
(402,286,cs),
(402,314,o),
(384,343,o),
(346,345,cs),
(336,346,o),
(326,346,o),
(317,347,c),
(336,417,o),
(361,479,o),
(390,526,cs),
(398,539,o),
(401,545,o),
(415,550,cs),
(449,562,o),
(465,593,o),
(465,623,cs),
(465,654,o),
(446,684,o),
(406,684,cs)
);
}
);
width = 473;
}
);
unicode = 55;
},
{
glyphname = eight;
layers = (
{
hints = (
{
horizontal = 1;
place = (-17,125);
type = Stem;
},
{
horizontal = 1;
place = (578,125);
type = Stem;
},
{
place = (15,135);
type = Stem;
},
{
place = (54,132);
type = Stem;
},
{
place = (267,132);
type = Stem;
},
{
place = (298,135);
type = Stem;
}
);
layerId = "2CBAB59C-6D1F-481C-8D47-CA6A7671DE0F";
shapes = (
{
closed = 1;
nodes = (
(366,423,o),
(399,471,o),
(399,541,cs),
(399,649,o),
(313,703,o),
(227,703,cs),
(140,703,o),
(54,649,o),
(54,540,cs),
(54,476,o),
(87,428,o),
(128,386,c),
(70,339,o),
(15,279,o),
(15,184,cs),
(15,68,o),
(100,-17,o),
(227,-17,cs),
(349,-17,o),
(433,67,o),
(433,183,cs),
(433,275,o),
(380,335,o),
(324,383,c)
);
},
{
closed = 1;
nodes = (
(186,563,o),
(206,578,o),
(226,578,cs),
(247,578,o),
(267,563,o),
(267,532,cs),
(267,506,o),
(250,484,o),
(226,462,c),
(202,484,o),
(186,506,o),
(186,532,cs)
);
},
{
closed = 1;
nodes = (
(188,108,o),
(150,134,o),
(150,184,cs),
(150,233,o),
(183,268,o),
(224,303,c),
(265,266,o),
(298,229,o),
(298,183,cs),
(298,133,o),
(262,108,o),
(225,108,cs)
);
}
);
width = 458;
}
);
unicode = 56;
},
{
glyphname = nine;
layers = (
{
hints = (
{
horizontal = 1;
place = (-16,21);
target = up;
type = BottomGhost;
},
{
horizontal = 1;
place = (244,122);
type = Stem;
},
{
horizontal = 1;
place = (579,125);
type = Stem;
},
{
place = (30,134);
type = Stem;
},
{
place = (325,135);
type = Stem;
}
);
layerId = "2CBAB59C-6D1F-481C-8D47-CA6A7671DE0F";
shapes = (
{
closed = 1;
nodes = (
(101,704,o),
(30,583,o),
(30,465,cs),
(30,343,o),
(99,244,o),
(220,244,cs),
(252,244,o),
(280,254,o),
(304,270,c),
(276,182,o),
(223,140,o),
(141,113,cs),
(107,102,o),
(90,76,o),
(90,48,cs),
(90,16,o),
(117,-16,o),
(158,-16,cs),
(195,-16,o),
(228,-1,o),
(257,15,cs),
(382,84,o),
(460,231,o),
(460,430,cs),
(460,612,o),
(382,704,o),
(248,704,cs)
);
},
{
closed = 1;
nodes = (
(191,366,o),
(164,407,o),
(164,466,cs),
(164,528,o),
(194,579,o),
(248,579,cs),
(289,579,o),
(323,546,o),
(325,461,c),
(322,401,o),
(281,366,o),
(245,366,cs)
);
}
);
width = 480;
}
);
unicode = 57;
},
{
glyphname = colon;
layers = (
{
hints = (
{
horizontal = 1;
place = (-16,157);
type = Stem;
},
{
horizontal = 1;
place = (254,157);
type = Stem;
},
{
place = (40,157);
type = Stem;
}
);
layerId = "2CBAB59C-6D1F-481C-8D47-CA6A7671DE0F";
shapes = (
{
closed = 1;
nodes = (
(162,254,o),
(197,289,o),
(197,333,cs),
(197,376,o),
(162,411,o),
(119,411,cs),
(75,411,o),
(40,376,o),
(40,333,cs),
(40,289,o),
(75,254,o),
(119,254,cs)
);
},
{
closed = 1;
nodes = (
(162,-16,o),
(197,19,o),
(197,63,cs),
(197,106,o),
(162,141,o),
(119,141,cs),
(75,141,o),
(40,106,o),
(40,63,cs),
(40,19,o),
(75,-16,o),
(119,-16,cs)
);
}
);
width = 267;
}
);
leftKerningGroup = colon;
unicode = 58;
},
{
glyphname = semicolon;
layers = (
{
hints = (
{
horizontal = 1;
place = (254,157);
type = Stem;
},
{
place = (33,157);
type = Stem;
},
{
place = (34,153);
type = Stem;
}
);
layerId = "2CBAB59C-6D1F-481C-8D47-CA6A7671DE0F";
shapes = (
{
closed = 1;
nodes = (
(155,254,o),
(190,289,o),
(190,333,cs),
(190,376,o),
(155,411,o),
(112,411,cs),
(68,411,o),
(33,376,o),
(33,333,cs),
(33,289,o),
(68,254,o),
(112,254,cs)
);
},
{
closed = 1;
nodes = (
(63,-137,o),
(77,-133,o),
(90,-125,cs),
(138,-95,o),
(187,-23,o),
(187,46,cs),
(187,102,o),
(155,138,o),
(107,138,cs),
(66,138,o),
(34,107,o),
(34,66,cs),
(34,45,o),
(42,34,o),
(49,24,cs),
(55,15,o),
(60,8,o),
(60,-2,cs),
(60,-20,o),
(45,-37,o),
(31,-53,cs),
(17,-69,o),
(5,-84,o),
(5,-100,cs),
(5,-122,o),
(24,-137,o),
(49,-137,cs)
);
}
);
width = 260;
}
);
leftKerningGroup = colon;
unicode = 59;
},
{
glyphname = less;
layers = (
{
hints = (
{
horizontal = 1;
place = (151,373);
type = Stem;
},
{
place = (30,266);
type = Stem;
}
);
layerId = "2CBAB59C-6D1F-481C-8D47-CA6A7671DE0F";
shapes = (
{
closed = 1;
nodes = (
(190,168,ls),
(202,157,o),
(216,151,o),
(233,151,cs),
(266,151,o),
(296,180,o),
(296,213,cs),
(296,231,o),
(288,247,o),
(273,261,cs),
(201,326,ls),
(197,330,o),
(195,333,o),
(195,337,cs),
(195,341,o),
(197,345,o),
(201,348,cs),
(274,413,ls),
(288,426,o),
(296,443,o),
(296,460,cs),
(296,494,o),
(266,524,o),
(233,524,cs),
(217,524,o),
(202,517,o),
(190,506,cs),
(58,387,l),
(39,371,o),
(30,354,o),
(30,337,cs),
(30,320,o),
(39,304,o),
(56,288,cs)
);
}
);
width = 326;
}
);
unicode = 60;
},
{
glyphname = equal;
layers = (
{
hints = (
{
horizontal = 1;
place = (191,120);
type = Stem;
},
{
horizontal = 1;
place = (349,120);
type = Stem;
},
{
place = (98,369);
type = Stem;
}
);
layerId = "2CBAB59C-6D1F-481C-8D47-CA6A7671DE0F";
shapes = (
{
closed = 1;
nodes = (
(401,349,l),
(438,349,o),
(467,374,o),
(467,409,cs),
(467,444,o),
(438,469,o),
(401,469,c),
(161,470,l),
(125,470,o),
(98,445,o),
(98,410,cs),
(98,375,o),
(125,350,o),
(161,350,c)
);
},
{
closed = 1;
nodes = (
(401,191,l),
(438,191,o),
(467,216,o),
(467,251,cs),
(467,286,o),
(438,311,o),
(401,311,c),
(161,312,l),
(125,312,o),
(98,287,o),
(98,252,cs),
(98,217,o),
(125,192,o),
(161,192,c)
);
}
);
width = 600;
}
);
unicode = 61;
},
{
glyphname = greater;
layers = (
{
hints = (
{
horizontal = 1;
place = (151,373);
type = Stem;
},
{
place = (30,266);
type = Stem;
}
);
layerId = "2CBAB59C-6D1F-481C-8D47-CA6A7671DE0F";
shapes = (
{
closed = 1;
nodes = (
(270,288,ls),
(287,304,o),
(296,320,o),
(296,337,cs),
(296,354,o),
(287,371,o),
(268,387,c),
(136,506,ls),
(124,517,o),
(109,524,o),
(93,524,cs),
(60,524,o),
(30,494,o),
(30,460,cs),
(30,443,o),
(38,426,o),
(52,413,cs),
(125,348,ls),
(129,345,o),
(131,341,o),
(131,337,cs),
(131,333,o),
(129,330,o),
(125,326,cs),
(53,261,ls),
(38,247,o),
(30,231,o),
(30,213,cs),
(30,180,o),
(60,151,o),
(93,151,cs),
(110,151,o),
(124,157,o),
(136,168,cs)
);
}
);
width = 326;
}
);
unicode = 62;
},
{
glyphname = question;
layers = (
{
hints = (
{
horizontal = 1;
place = (-14,157);
type = Stem;
},
{
horizontal = 1;
place = (633,124);
type = Stem;
},
{
place = (40,134);
type = Stem;
},
{
place = (125,157);
type = Stem;
},
{
place = (138,132);
type = Stem;
},
{
place = (293,135);
type = Stem;
}
);
layerId = "2CBAB59C-6D1F-481C-8D47-CA6A7671DE0F";
shapes = (
{
closed = 1;
nodes = (
(243,168,o),
(270,200,o),
(270,242,cs),
(270,314,o),
(298,337,o),
(333,374,cs),
(383,426,o),
(428,477,o),
(428,573,cs),
(428,679,o),
(343,757,o),
(232,757,cs),
(121,757,o),
(40,682,o),
(40,575,cs),
(40,511,o),
(66,473,o),
(113,473,cs),
(150,473,o),
(179,499,o),
(179,536,cs),
(179,545,o),
(174,563,o),
(174,575,cs),
(174,610,o),
(197,633,o),
(232,633,cs),
(268,633,o),
(293,607,o),
(293,567,cs),
(293,531,o),
(277,499,o),
(239,465,cs),
(201,430,o),
(138,375,o),
(138,242,cs),
(138,200,o),
(166,168,o),
(204,168,cs)
);
},
{
closed = 1;
nodes = (
(248,-14,o),
(282,21,o),
(282,65,cs),
(282,108,o),
(247,143,o),
(204,143,cs),
(160,143,o),
(125,109,o),
(125,65,cs),
(125,21,o),
(160,-14,o),
(204,-14,cs)
);
}
);
width = 468;
}
);
unicode = 63;
},
{
glyphname = at;
layers = (
{
hints = (
{
horizontal = 1;
place = (-184,120);
type = Stem;
},
{
horizontal = 1;
place = (-14,115);
type = Stem;
},
{
horizontal = 1;
place = (-13,115);
type = Stem;
},
{
horizontal = 1;
place = (284,113);
type = Stem;
},
{
horizontal = 1;
place = (454,120);
type = Stem;
},
{
place = (30,135);
type = Stem;
},
{
place = (230,130);
type = Stem;
},
{
place = (464,115);
type = Stem;
},
{
place = (647,134);
type = Stem;
}
);
layerId = "2CBAB59C-6D1F-481C-8D47-CA6A7671DE0F";
shapes = (
{
closed = 1;
nodes = (
(205,574,o),
(30,401,o),
(30,148,cs),
(30,-51,o),
(163,-184,o),
(366,-184,cs),
(427,-184,o),
(487,-175,o),
(538,-157,cs),
(567,-147,o),
(580,-124,o),
(580,-99,cs),
(580,-68,o),
(558,-38,o),
(523,-38,cs),
(502,-38,o),
(455,-64,o),
(366,-64,cs),
(236,-64,o),
(165,13,o),
(165,162,cs),
(165,332,o),
(281,454,o),
(462,454,cs),
(588,454,o),
(647,397,o),
(647,279,cs),
(647,179,o),
(608,101,o),
(594,101,cs),
(585,101,o),
(579,107,o),
(579,141,cs),
(579,238,o),
(590,329,o),
(590,341,cs),
(590,379,o),
(560,400,o),
(529,400,cs),
(510,400,o),
(492,392,o),
(480,376,c),
(464,389,o),
(444,397,o),
(418,397,cs),
(321,397,o),
(230,289,o),
(230,156,cs),
(230,54,o),
(287,-13,o),
(375,-13,cs),
(422,-13,o),
(457,11,o),
(482,51,c),
(503,10,o),
(539,-14,o),
(582,-14,cs),
(687,-14,o),
(781,110,o),
(781,279,cs),
(781,454,o),
(657,574,o),
(462,574,cs)
);
},
{
closed = 1;
nodes = (
(372,102,o),
(360,115,o),
(360,157,cs),
(360,225,o),
(399,284,o),
(433,284,cs),
(448,284,o),
(461,274,o),
(464,260,c),
(464,252,o),
(464,243,o),
(463,234,cs),
(459,156,o),
(417,102,o),
(391,102,cs)
);
}
);
width = 811;
}
);
unicode = 64;
},
{
glyphname = A;
layers = (
{
anchors = (
{
name = t.uni0302_2;
position = "{650, 710}";
}
);
hints = (
{
horizontal = 1;
place = (-16,130);
type = Stem;
},
{
horizontal = 1;
place = (-12,130);
type = Stem;
},
{
horizontal = 1;
place = (227,117);
type = Stem;
},
{
horizontal = 1;
place = (623,117);
type = Stem;
},
{
place = (538,143);
type = Stem;
}
);
layerId = "2CBAB59C-6D1F-481C-8D47-CA6A7671DE0F";
shapes = (
{
closed = 1;
nodes = (
(775,165,o),
(739,118,o),
(712,118,cs),
(695,118,o),
(681,132,o),
(681,169,cs),
(681,372,o),
(743,583,o),
(743,653,cs),
(743,705,o),
(708,740,o),
(651,740,cs),
(530,740,o),
(483,656,o),
(364,374,cs),
(360,364,o),
(355,354,o),
(351,344,c),
(284,344,ls),
(242,344,o),
(219,315,o),
(219,286,cs),
(219,256,o),
(242,227,o),
(289,227,c),
(290,227,l),
(243,149,o),
(200,114,o),
(171,114,cs),
(139,114,o),
(128,153,o),
(85,153,cs),
(52,153,o),
(28,129,o),
(28,92,cs),
(28,38,o),
(82,-16,o),
(175,-16,cs),
(279,-16,o),
(365,53,o),
(451,233,c),
(481,235,o),
(511,238,o),
(540,241,c),
(539,223,o),
(538,205,o),
(538,188,cs),
(538,49,o),
(599,-12,o),
(684,-12,cs),
(764,-12,o),
(844,51,o),
(908,236,cs),
(910,243,o),
(911,249,o),
(911,255,cs),
(911,284,o),
(885,301,o),
(859,301,cs),
(840,301,o),
(822,291,o),
(814,271,cs)
);
},
{
closed = 1;
nodes = (
(560,496,o),
(596,623,o),
(610,623,cs),
(621,623,o),
(580,499,o),
(556,360,c),
(538,357,o),
(521,355,o),
(503,353,c)
);
}
);
width = 825;
}
);
leftKerningGroup = A2;
rightKerningGroup = A;
unicode = 65;
},
{
glyphname = B;
layers = (
{
hints = (
{
horizontal = 1;
place = (-15,110);
type = Stem;
},
{
horizontal = 1;
place = (-15,125);
type = Stem;
},
{
horizontal = 1;
place = (132,104);
type = Stem;
},
{
horizontal = 1;
place = (432,-20);
target = down;
type = TopGhost;
},
{
horizontal = 1;
place = (635,124);
type = Stem;
},
{
place = (24,124);
type = Stem;
},
{
place = (67,135);
type = Stem;
},
{
place = (266,135);
type = Stem;
},
{
place = (495,139);
type = Stem;
},
{
place = (553,139);
type = Stem;
}
);
layerId = "2CBAB59C-6D1F-481C-8D47-CA6A7671DE0F";
shapes = (
{
closed = 1;
nodes = (
(601,425,o),
(634,485,o),
(634,553,cs),
(634,656,o),
(536,759,o),
(378,759,cs),
(193,759,o),
(67,649,o),
(67,495,cs),
(67,417,o),
(114,339,o),
(178,339,cs),
(211,339,o),
(237,364,o),
(237,397,cs),
(237,426,o),
(202,452,o),
(202,506,cs),
(202,590,o),
(288,635,o),
(365,635,cs),
(437,635,o),
(495,600,o),
(495,531,cs),
(495,486,o),
(465,442,o),
(404,432,c),
(403,432,o),
(402,432,o),
(401,431,c),
(400,473,o),
(396,503,o),
(390,535,cs),
(382,573,o),
(354,593,o),
(323,593,cs),
(289,593,o),
(256,569,o),
(256,527,cs),
(256,506,o),
(266,433,o),
(266,400,cs),
(266,324,o),
(261,262,o),
(252,214,c),
(224,227,o),
(194,236,o),
(161,236,cs),
(70,236,o),
(24,173,o),
(24,111,cs),
(24,48,o),
(70,-15,o),
(161,-15,cs),
(216,-15,o),
(267,3,o),
(307,45,c),
(347,14,o),
(396,-15,o),
(469,-15,cs),
(606,-15,o),
(692,96,o),
(692,205,cs),
(692,286,o),
(648,364,o),
(532,394,c)
);
},
{
closed = 1;
nodes = (
(431,110,o),
(399,126,o),
(366,146,c),
(383,192,o),
(394,249,o),
(398,319,c),
(403,319,ls),
(507,319,o),
(553,272,o),
(553,209,cs),
(553,153,o),
(517,110,o),
(463,110,cs)
);
},
{
closed = 1;
nodes = (
(148,122,o),
(157,132,o),
(174,132,cs),
(194,132,o),
(211,125,o),
(226,114,c),
(211,100,o),
(193,95,o),
(174,95,cs),
(157,95,o),
(148,104,o),
(148,113,cs)
);
}
);
width = 712;
}
);
leftKerningGroup = B2;
rightKerningGroup = B;
unicode = 66;
},
{
glyphname = C;
layers = (
{
anchors = (
{
name = t.uni0302_2;
position = "{425, 710}";
},
{
name = b.uni0326_1_2;
position = "{349, 10}";
}
);
hints = (
{
horizontal = 1;
place = (-17,130);
type = Stem;
},
{
horizontal = 1;
place = (611,128);
type = Stem;
},
{
place = (72,140);
type = Stem;
},
{
place = (446,137);
type = Stem;
}
);
layerId = "2CBAB59C-6D1F-481C-8D47-CA6A7671DE0F";
shapes = (
{
closed = 1;
nodes = (
(491,-17,o),
(604,56,o),
(667,236,cs),
(669,242,o),
(670,249,o),
(670,254,cs),
(670,283,o),
(644,302,o),
(618,302,cs),
(599,302,o),
(581,292,o),
(573,271,cs),
(531,157,o),
(444,113,o),
(372,113,cs),
(280,113,o),
(212,180,o),
(212,287,cs),
(212,461,o),
(332,611,o),
(406,611,cs),
(431,611,o),
(446,596,o),
(446,570,cs),
(446,542,o),
(425,522,o),
(425,494,cs),
(425,462,o),
(449,431,o),
(489,431,cs),
(521,431,o),
(545,450,o),
(560,481,cs),
(576,513,o),
(583,547,o),
(583,578,cs),
(583,666,o),
(525,739,o),
(420,739,cs),
(244,739,o),
(72,546,o),
(72,279,cs),
(72,97,o),
(190,-17,o),
(362,-17,cs)
);
}
);
width = 584;
}
);
leftKerningGroup = C;
rightKerningGroup = A;
unicode = 67;
},
{
glyphname = D;
layers = (
{
anchors = (
{
name = t.uni0302_2;
position = "{460, 710}";
}
);
hints = (
{
horizontal = 1;
place = (-18,130);
type = Stem;
},
{
horizontal = 1;
place = (-15,110);
type = Stem;
},
{
horizontal = 1;
place = (132,105);
type = Stem;
},
{
horizontal = 1;
place = (340,124);
type = Stem;
},
{
horizontal = 1;
place = (619,125);
type = Stem;
},
{
place = (62,124);
type = Stem;
},
{
place = (132,133);
type = Stem;
},
{
place = (325,134);
type = Stem;
},
{
place = (326,136);
type = Stem;
},
{
place = (673,140);
type = Stem;
}
);
layerId = "2CBAB59C-6D1F-481C-8D47-CA6A7671DE0F";
shapes = (
{
closed = 1;
nodes = (
(235,744,o),
(132,624,o),
(132,515,cs),
(132,423,o),
(199,340,o),
(326,340,c),
(322,290,o),
(315,246,o),
(304,211,c),
(272,226,o),
(239,237,o),
(202,237,cs),
(110,237,o),
(62,173,o),
(62,109,cs),
(62,47,o),
(108,-15,o),
(204,-15,cs),
(266,-15,o),
(315,4,o),
(353,38,c),
(399,8,o),
(453,-18,o),
(513,-18,cs),
(705,-18,o),
(813,169,o),
(813,358,cs),
(813,550,o),
(702,744,o),
(447,744,cs)
);
},
{
closed = 1;
nodes = (
(483,112,o),
(452,125,o),
(421,142,c),
(446,203,o),
(458,279,o),
(462,364,c),
(475,369,o),
(488,375,o),
(500,381,cs),
(525,394,o),
(537,418,o),
(537,441,cs),
(537,470,o),
(517,498,o),
(482,498,cs),
(476,498,o),
(468,497,o),
(461,494,c),
(458,521,ls),
(454,558,o),
(423,576,o),
(392,576,cs),
(359,576,o),
(325,555,o),
(325,511,cs),
(325,493,o),
(326,479,o),
(326,464,c),
(287,464,o),
(265,484,o),
(265,512,cs),
(265,563,o),
(333,619,o),
(447,619,cs),
(608,619,o),
(673,490,o),
(673,363,cs),
(673,237,o),
(610,112,o),
(514,112,cs)
);
},
{
closed = 1;
nodes = (
(186,123,o),
(195,132,o),
(212,132,cs),
(230,132,o),
(247,125,o),
(266,114,c),
(250,101,o),
(231,95,o),
(212,95,cs),
(195,95,o),
(186,104,o),
(186,113,cs)
);
}
);
width = 818;
}
);
leftKerningGroup = D2;
rightKerningGroup = D;
unicode = 68;
},
{
glyphname = E;
layers = (
{
anchors = (
{
name = t.uni0302_2;
position = "{323, 710}";
}
);
hints = (
{
horizontal = 1;
place = (-17,125);
type = Stem;
},
{
horizontal = 1;
place = (330,125);
type = Stem;
},
{
horizontal = 1;
place = (620,124);
type = Stem;
},
{
place = (76,139);
type = Stem;
},
{
place = (127,136);
type = Stem;
},
{
place = (381,132);
type = Stem;
}
);
layerId = "2CBAB59C-6D1F-481C-8D47-CA6A7671DE0F";
shapes = (
{
closed = 1;
nodes = (
(486,173,o),
(404,108,o),
(330,108,cs),
(251,108,o),
(215,155,o),
(215,209,cs),
(215,272,o),
(263,330,o),
(349,330,cs),
(392,330,o),
(413,361,o),
(413,392,cs),
(413,424,o),
(392,455,o),
(349,455,cs),
(292,455,o),
(263,502,o),
(263,546,cs),
(263,584,o),
(285,620,o),
(331,620,cs),
(364,620,o),
(383,600,o),
(383,574,cs),
(383,563,o),
(381,556,o),
(381,540,cs),
(381,509,o),
(404,487,o),
(445,487,cs),
(480,487,o),
(513,513,o),
(513,580,cs),
(513,676,o),
(436,744,o),
(332,744,cs),
(197,744,o),
(127,654,o),
(127,562,cs),
(127,502,o),
(158,441,o),
(222,406,c),
(127,373,o),
(76,288,o),
(76,191,cs),
(76,84,o),
(151,-17,o),
(313,-17,cs),
(433,-17,o),
(550,49,o),
(616,236,cs),
(618,242,o),
(619,248,o),
(619,254,cs),
(619,283,o),
(592,301,o),
(566,301,cs),
(548,301,o),
(530,292,o),
(522,271,cs)
);
}
);
width = 533;
}
);
leftKerningGroup = E;
rightKerningGroup = A;
unicode = 69;
},
{
glyphname = F;
layers = (
{
hints = (
{
horizontal = 1;
place = (-15,125);
type = Stem;
},
{
horizontal = 1;
place = (291,132);
type = Stem;
},
{
horizontal = 1;
place = (423,-20);
target = down;
type = TopGhost;
},
{
horizontal = 1;
place = (588,130);
type = Stem;
},
{
horizontal = 1;
place = (617,128);
type = Stem;
},
{
place = (55,130);
type = Stem;
},
{
place = (309,132);
type = Stem;
}
);
layerId = "2CBAB59C-6D1F-481C-8D47-CA6A7671DE0F";
shapes = (
{
closed = 1;
nodes = (
(634,588,o),
(676,622,o),
(676,677,cs),
(676,713,o),
(653,735,o),
(619,735,cs),
(578,735,o),
(564,718,o),
(505,718,cs),
(452,718,o),
(343,745,o),
(256,745,cs),
(134,745,o),
(55,671,o),
(55,573,cs),
(55,497,o),
(121,433,o),
(191,433,cs),
(233,433,o),
(259,455,o),
(259,487,cs),
(259,511,o),
(243,527,o),
(224,537,cs),
(205,547,o),
(185,559,o),
(185,577,cs),
(185,594,o),
(208,617,o),
(258,617,cs),
(273,617,o),
(290,616,o),
(309,613,c),
(303,527,o),
(298,461,o),
(295,412,c),
(264,406,o),
(239,396,o),
(219,384,cs),
(196,370,o),
(183,347,o),
(183,323,cs),
(183,293,o),
(210,271,o),
(245,271,cs),
(255,271,o),
(268,273,o),
(283,277,c),
(269,156,o),
(249,110,o),
(221,110,cs),
(198,110,o),
(188,127,o),
(178,145,cs),
(167,164,o),
(156,183,o),
(127,183,cs),
(87,183,o),
(57,151,o),
(57,105,cs),
(57,46,o),
(118,-15,o),
(211,-15,cs),
(334,-15,o),
(405,76,o),
(419,234,cs),
(421,256,o),
(423,277,o),
(424,298,c),
(451,297,o),
(486,291,o),
(503,291,cs),
(548,291,o),
(575,315,o),
(575,349,cs),
(575,379,o),
(551,404,o),
(515,412,cs),
(486,419,o),
(460,422,o),
(435,423,c),
(448,594,l),
(478,590,o),
(507,588,o),
(535,588,cs)
);
}
);
width = 566;
}
);
unicode = 70;
},
{
glyphname = G;
layers = (
{
anchors = (
{
name = t.uni0302_2;
position = "{429, 710}";
},
{
name = b.uni0326_1_2;
position = "{343, 10}";
}
);
hints = (
{
horizontal = 1;
place = (-20,125);
type = Stem;
},
{
horizontal = 1;
place = (209,125);
type = Stem;
},
{
horizontal = 1;
place = (615,124);
type = Stem;
},
{
place = (70,141);
type = Stem;
},
{
place = (447,137);
type = Stem;
},
{
place = (457,136);
type = Stem;
}
);
layerId = "2CBAB59C-6D1F-481C-8D47-CA6A7671DE0F";
shapes = (
{
closed = 1;
nodes = (
(573,413,o),
(558,401,o),
(542,382,cs),
(508,342,o),
(480,334,o),
(421,334,cs),
(375,334,o),
(353,306,o),
(353,277,cs),
(353,244,o),
(381,209,o),
(435,209,cs),
(442,209,o),
(449,209,o),
(457,210,c),
(455,149,o),
(410,105,o),
(347,105,cs),
(260,105,o),
(211,188,o),
(211,286,cs),
(211,433,o),
(307,615,o),
(408,615,cs),
(433,615,o),
(447,601,o),
(447,579,cs),
(447,555,o),
(428,526,o),
(428,502,cs),
(428,466,o),
(451,443,o),
(493,443,cs),
(522,443,o),
(545,461,o),
(561,491,cs),
(575,517,o),
(584,552,o),
(584,591,cs),
(584,677,o),
(520,739,o),
(423,739,cs),
(212,739,o),
(70,513,o),
(70,281,cs),
(70,121,o),
(156,-20,o),
(345,-20,cs),
(486,-20,o),
(593,78,o),
(593,219,cs),
(593,232,o),
(592,244,o),
(590,255,c),
(612,269,o),
(630,285,o),
(640,302,cs),
(650,319,o),
(655,337,o),
(655,353,cs),
(655,386,o),
(634,413,o),
(598,413,cs)
);
}
);
width = 645;
}
);
leftKerningGroup = C;
rightKerningGroup = G;
unicode = 71;
},
{
glyphname = H;
layers = (
{
anchors = (
{
name = t.uni0302_2;
position = "{463, 700}";
},
{
name = b.uni0326_1_2;
position = "{393, 0}";
}
);
hints = (
{
horizontal = 1;
place = (-8,125);
type = Stem;
},
{
horizontal = 1;
place = (-7,125);
type = Stem;
},
{
horizontal = 1;
place = (328,121);
type = Stem;
},
{
horizontal = 1;
place = (338,120);
type = Stem;
},
{
horizontal = 1;
place = (617,124);
type = Stem;
},
{
place = (53,133);
type = Stem;
},
{
place = (286,138);
type = Stem;
},
{
place = (508,140);
type = Stem;
},
{
place = (547,141);
type = Stem;
}
);
layerId = "2CBAB59C-6D1F-481C-8D47-CA6A7671DE0F";
shapes = (
{
closed = 1;
nodes = (
(734,173,o),
(708,117,o),
(678,117,cs),
(663,117,o),
(648,132,o),
(648,178,cs),
(648,222,o),
(651,274,o),
(655,329,c),
(662,328,o),
(667,328,o),
(671,328,cs),
(712,328,o),
(735,358,o),
(735,389,cs),
(735,416,o),
(716,444,o),
(675,449,cs),
(665,450,l),
(676,565,o),
(688,666,o),
(688,683,cs),
(688,723,o),
(653,744,o),
(618,744,cs),
(584,744,o),
(551,725,o),
(547,687,cs),
(540,621,o),
(532,539,o),
(525,458,c),
(493,458,ls),
(469,458,o),
(445,457,o),
(422,454,c),
(424,493,o),
(424,535,o),
(424,580,c),
(423,689,o),
(371,741,o),
(273,741,cs),
(175,741,o),
(113,676,o),
(113,620,cs),
(113,585,o),
(136,562,o),
(173,562,cs),
(223,562,o),
(238,617,o),
(260,617,cs),
(275,617,o),
(286,607,o),
(286,571,cs),
(286,515,o),
(283,465,o),
(280,421,c),
(147,371,o),
(53,273,o),
(53,139,cs),
(53,53,o),
(113,-7,o),
(200,-7,cs),
(309,-7,o),
(386,88,o),
(413,332,c),
(442,336,o),
(475,338,o),
(510,338,cs),
(515,338,l),
(511,278,o),
(508,224,o),
(508,185,cs),
(508,55,o),
(571,-8,o),
(659,-8,cs),
(736,-8,o),
(798,49,o),
(861,236,cs),
(863,241,o),
(863,246,o),
(863,251,cs),
(863,279,o),
(834,299,o),
(807,299,cs),
(790,299,o),
(774,291,o),
(767,271,cs)
);
},
{
closed = 1;
nodes = (
(193,118,o),
(186,125,o),
(186,145,cs),
(186,196,o),
(210,245,o),
(265,281,c),
(247,163,o),
(222,118,o),
(201,118,cs)
);
}
);
width = 778;
}
);
leftKerningGroup = H;
rightKerningGroup = A;
unicode = 72;
},
{
glyphname = I;
layers = (
{
anchors = (
{
name = t.uni0302_2;
position = "{276, 710}";
},
{
name = b.uni0326_1_2;
position = "{229, 0}";
}
);
hints = (
{
horizontal = 1;
place = (-12,125);
type = Stem;
},
{
horizontal = 1;
place = (621,125);
type = Stem;
},
{
place = (57,135);
type = Stem;
},
{
place = (304,140);
type = Stem;
}
);
layerId = "2CBAB59C-6D1F-481C-8D47-CA6A7671DE0F";
shapes = (
{
closed = 1;
nodes = (
(304,602,o),
(304,585,o),
(304,569,cs),
(304,226,o),
(265,113,o),
(221,113,cs),
(187,113,o),
(182,156,o),
(135,156,cs),
(102,156,o),
(77,131,o),
(77,89,cs),
(77,40,o),
(129,-12,o),
(216,-12,cs),
(353,-12,o),
(444,88,o),
(444,568,cs),
(444,603,o),
(443,643,o),
(442,673,cs),
(441,711,o),
(422,732,o),
(379,738,cs),
(342,743,o),
(299,746,o),
(255,746,cs),
(129,746,o),
(57,675,o),
(57,579,cs),
(57,493,o),
(121,432,o),
(193,432,cs),
(230,432,o),
(255,461,o),
(255,496,cs),
(255,524,o),
(239,538,o),
(223,549,cs),
(207,560,o),
(192,566,o),
(192,582,cs),
(192,604,o),
(209,621,o),
(257,621,cs),
(276,621,o),
(289,620,o),
(304,619,c)
);
}
);
width = 458;
}
);
leftKerningGroup = I2;
rightKerningGroup = I;
unicode = 73;
},
{
glyphname = J;
layers = (
{
anchors = (
{
name = t.uni0302_2;
position = "{359, 714}";
},
{
name = b.uni0326_1_2;
position = "{300, 0}";
}
);
hints = (
{
horizontal = 1;
place = (-15,125);
type = Stem;
},
{
horizontal = 1;
place = (579,125);
type = Stem;
},
{
horizontal = 1;
place = (621,125);
type = Stem;
},
{
place = (81,140);
type = Stem;
},
{
place = (129,137);
type = Stem;
},
{
place = (379,140);
type = Stem;
}
);
layerId = "2CBAB59C-6D1F-481C-8D47-CA6A7671DE0F";
shapes = (
{
closed = 1;
nodes = (
(601,687,o),
(579,709,o),
(550,709,cs),
(538,709,o),
(523,704,o),
(509,704,cs),
(459,704,o),
(388,746,o),
(314,746,cs),
(208,746,o),
(129,670,o),
(129,590,cs),
(129,536,o),
(162,506,o),
(205,506,cs),
(241,506,o),
(266,529,o),
(266,570,cs),
(266,599,o),
(286,621,o),
(328,621,cs),
(344,621,o),
(359,618,o),
(375,613,c),
(377,585,o),
(379,550,o),
(379,507,cs),
(379,213,o),
(341,110,o),
(277,110,cs),
(248,110,o),
(221,137,o),
(221,194,cs),
(221,222,o),
(230,268,o),
(230,295,cs),
(230,336,o),
(207,359,o),
(164,359,cs),
(121,359,o),
(100,330,o),
(90,286,cs),
(84,259,o),
(81,227,o),
(81,192,cs),
(81,68,o),
(156,-15,o),
(272,-15,cs),
(443,-15,o),
(519,120,o),
(519,470,cs),
(519,507,o),
(518,544,o),
(515,579,c),
(573,582,o),
(601,612,o),
(601,657,cs)
);
}
);
width = 600;
}
);
leftKerningGroup = J2;
rightKerningGroup = J;
unicode = 74;
},
{
glyphname = K;
layers = (
{
anchors = (
{
name = t.uni0302_2;
position = "{416, 712}";
},
{
name = b.uni0326_1_2;
position = "{393, 10}";
}
);
hints = (
{
horizontal = 1;
place = (-16,124);
type = Stem;
},
{
horizontal = 1;
place = (427,-20);
target = down;
type = TopGhost;
},
{
horizontal = 1;
place = (430,-20);
target = down;
type = TopGhost;
},
{
horizontal = 1;
place = (617,125);
type = Stem;
},
{
place = (235,140);
type = Stem;
}
);
layerId = "2CBAB59C-6D1F-481C-8D47-CA6A7671DE0F";
shapes = (
{
closed = 1;
nodes = (
(665,172,o),
(631,108,o),
(604,108,cs),
(584,108,o),
(572,135,o),
(552,220,cs),
(535,293,o),
(515,331,o),
(479,355,c),
(554,399,o),
(600,464,o),
(629,526,cs),
(655,582,o),
(666,635,o),
(666,668,cs),
(666,710,o),
(642,742,o),
(602,742,cs),
(562,742,o),
(535,716,o),
(528,679,cs),
(506,562,o),
(448,461,o),
(365,430,c),
(371,483,o),
(375,535,o),
(375,582,cs),
(375,682,o),
(315,742,o),
(213,742,cs),
(112,742,o),
(39,669,o),
(39,603,cs),
(39,572,o),
(63,548,o),
(98,548,cs),
(154,548,o),
(179,617,o),
(208,617,cs),
(223,617,o),
(235,605,o),
(235,580,cs),
(235,527,o),
(231,476,o),
(225,427,c),
(186,426,o),
(162,393,o),
(162,361,cs),
(162,337,o),
(175,314,o),
(206,304,c),
(181,177,o),
(150,80,o),
(150,45,cs),
(150,10,o),
(178,-16,o),
(218,-16,cs),
(259,-16,o),
(278,1,o),
(288,36,cs),
(303,90,o),
(327,193,o),
(347,305,c),
(378,304,o),
(395,279,o),
(415,190,cs),
(440,80,o),
(480,-16,o),
(586,-16,cs),
(672,-16,o),
(727,41,o),
(795,236,cs),
(797,242,o),
(798,249,o),
(798,254,cs),
(798,283,o),
(772,302,o),
(746,302,cs),
(727,302,o),
(709,292,o),
(701,271,cs)
);
}
);
width = 712;
}
);
leftKerningGroup = K;
rightKerningGroup = A;
unicode = 75;
},
{
glyphname = L;
layers = (
{
anchors = (
{
name = t.uni0302_2;
position = "{393, 710}";
},
{
name = b.uni0326_1_2;
position = "{320, 10}";
}
);
hints = (
{
horizontal = 1;
place = (-10,125);
type = Stem;
},
{
horizontal = 1;
place = (17,126);
type = Stem;
},
{
horizontal = 1;
place = (619,120);
type = Stem;
},
{
place = (411,130);
type = Stem;
}
);
layerId = "2CBAB59C-6D1F-481C-8D47-CA6A7671DE0F";
shapes = (
{
closed = 1;
nodes = (
(520,192,o),
(485,115,o),
(445,115,cs),
(402,115,o),
(345,143,o),
(299,143,cs),
(280,143,o),
(264,140,o),
(252,137,c),
(297,193,o),
(311,286,o),
(328,427,c),
(473,434,o),
(541,520,o),
(541,602,cs),
(541,673,o),
(489,739,o),
(400,739,cs),
(301,739,o),
(242,685,o),
(212,581,c),
(196,600,o),
(186,626,o),
(183,658,cs),
(179,698,o),
(150,717,o),
(121,717,cs),
(89,717,o),
(53,692,o),
(53,647,cs),
(53,560,o),
(105,485,o),
(189,449,c),
(168,248,o),
(144,187,o),
(66,116,cs),
(49,101,o),
(41,78,o),
(41,56,cs),
(41,22,o),
(62,-11,o),
(107,-11,cs),
(153,-11,o),
(192,17,o),
(258,17,cs),
(310,17,o),
(379,-10,o),
(441,-10,cs),
(500,-10,o),
(580,41,o),
(643,236,cs),
(645,242,o),
(646,248,o),
(646,254,cs),
(646,284,o),
(619,302,o),
(594,302,cs),
(575,302,o),
(557,292,o),
(549,271,cs)
);
},
{
closed = 1;
nodes = (
(403,619,o),
(411,611,o),
(411,597,cs),
(411,577,o),
(394,555,o),
(346,547,c),
(359,599,o),
(374,619,o),
(391,619,cs)
);
}
);
width = 560;
}
);
leftKerningGroup = L;
rightKerningGroup = A;
unicode = 76;
},
{
glyphname = M;
layers = (
{
hints = (
{
horizontal = 1;
place = (-9,125);
type = Stem;
},
{
horizontal = 1;
place = (-16,21);
target = up;
type = BottomGhost;
},
{
horizontal = 1;
place = (509,125);
type = Stem;
},
{
horizontal = 1;
place = (620,125);
type = Stem;
},
{
horizontal = 1;
place = (629,125);
type = Stem;
},
{
place = (610,139);
type = Stem;
},
{
place = (924,140);
type = Stem;
},
{
place = (940,140);
type = Stem;
}
);
layerId = "2CBAB59C-6D1F-481C-8D47-CA6A7671DE0F";
shapes = (
{
closed = 1;
nodes = (
(1145,178,o),
(1111,116,o),
(1086,116,cs),
(1073,116,o),
(1064,125,o),
(1064,149,cs),
(1064,179,o),
(1080,389,o),
(1080,461,cs),
(1080,561,o),
(1014,634,o),
(927,634,cs),
(855,634,o),
(797,595,o),
(749,524,c),
(740,689,o),
(678,745,o),
(579,745,cs),
(475,745,o),
(401,674,o),
(347,543,c),
(322,708,o),
(256,754,o),
(167,754,cs),
(75,754,o),
(10,689,o),
(10,625,cs),
(10,587,o),
(34,564,o),
(69,564,cs),
(128,564,o),
(125,629,o),
(160,629,cs),
(198,629,o),
(223,553,o),
(223,406,cs),
(223,175,o),
(202,98,o),
(202,50,cs),
(202,6,o),
(235,-16,o),
(269,-16,cs),
(302,-16,o),
(336,4,o),
(341,44,cs),
(343,61,o),
(349,109,o),
(354,164,cs),
(381,449,o),
(498,620,o),
(560,620,cs),
(586,620,o),
(610,596,o),
(610,499,cs),
(610,328,o),
(567,131,o),
(567,99,cs),
(567,55,o),
(602,30,o),
(637,30,cs),
(667,30,o),
(698,49,o),
(705,91,cs),
(711,125,o),
(717,160,o),
(722,194,c),
(760,393,o),
(837,509,o),
(895,509,cs),
(921,509,o),
(940,490,o),
(940,441,cs),
(940,360,o),
(924,210,o),
(924,157,cs),
(924,41,o),
(976,-9,o),
(1061,-9,cs),
(1133,-9,o),
(1214,41,o),
(1272,236,cs),
(1274,242,o),
(1275,247,o),
(1275,253,cs),
(1275,283,o),
(1248,301,o),
(1222,301,cs),
(1203,301,o),
(1186,292,o),
(1178,271,cs)
);
}
);
width = 1189;
}
);
leftKerningGroup = M;
rightKerningGroup = A;
unicode = 77;
},
{
glyphname = N;
layers = (
{
anchors = (
{
name = t.uni0302_2;
position = "{558, 710}";
},
{
name = b.uni0326_1_2;
position = "{488, 10}";
}
);
hints = (
{
horizontal = 1;
place = (-11,125);
type = Stem;
},
{
horizontal = 1;
place = (614,125);
type = Stem;
},
{
horizontal = 1;
place = (626,125);
type = Stem;
},
{
place = (589,140);
type = Stem;
},
{
place = (605,140);
type = Stem;
}
);
layerId = "2CBAB59C-6D1F-481C-8D47-CA6A7671DE0F";
shapes = (
{
closed = 1;
nodes = (
(821,199,o),
(785,114,o),
(754,114,cs),
(739,114,o),
(729,124,o),
(729,151,cs),
(729,227,o),
(745,413,o),
(745,501,cs),
(745,674,o),
(680,739,o),
(572,739,cs),
(476,739,o),
(401,679,o),
(350,558,c),
(325,698,o),
(265,751,o),
(170,751,cs),
(118,751,o),
(75,731,o),
(46,705,cs),
(22,683,o),
(10,655,o),
(10,631,cs),
(10,598,o),
(35,574,o),
(67,574,cs),
(88,574,o),
(102,583,o),
(113,594,cs),
(128,609,o),
(138,626,o),
(157,626,cs),
(198,626,o),
(229,551,o),
(229,424,cs),
(229,242,o),
(208,116,o),
(203,62,cs),
(198,9,o),
(234,-18,o),
(271,-18,cs),
(303,-18,o),
(336,3,o),
(342,47,cs),
(347,85,o),
(352,146,o),
(366,281,cs),
(383,447,o),
(484,614,o),
(559,614,cs),
(587,614,o),
(605,596,o),
(605,523,cs),
(605,427,o),
(589,198,o),
(589,154,cs),
(589,44,o),
(644,-11,o),
(729,-11,cs),
(807,-11,o),
(873,41,o),
(940,236,cs),
(942,243,o),
(943,249,o),
(943,255,cs),
(943,284,o),
(917,302,o),
(890,302,cs),
(872,302,o),
(854,292,o),
(846,271,cs)
);
}
);
width = 857;
}
);
leftKerningGroup = M;
rightKerningGroup = A;
unicode = 78;
},
{
glyphname = O;
layers = (
{
anchors = (
{
name = t.uni0302_2;
position = "{474, 710}";
}
);
hints = (
{
horizontal = 1;
place = (-20,125);
type = Stem;
},
{
horizontal = 1;
place = (615,125);
type = Stem;
},
{
place = (83,140);
type = Stem;
},
{
place = (262,125);
type = Stem;
},
{
place = (555,140);
type = Stem;
}
);
layerId = "2CBAB59C-6D1F-481C-8D47-CA6A7671DE0F";
shapes = (
{
closed = 1;
nodes = (
(734,224,o),
(699,187,o),
(649,177,c),
(679,246,o),
(695,331,o),
(695,430,cs),
(695,628,o),
(605,740,o),
(484,740,cs),
(444,740,o),
(406,725,o),
(373,699,c),
(364,714,o),
(347,723,o),
(327,723,cs),
(314,723,o),
(298,720,o),
(284,715,cs),
(172,675,o),
(83,496,o),
(83,322,cs),
(83,106,o),
(203,-20,o),
(371,-20,cs),
(456,-20,o),
(528,12,o),
(583,72,c),
(602,72,ls),
(704,72,o),
(799,116,o),
(844,236,cs),
(846,242,o),
(847,247,o),
(847,253,cs),
(847,281,o),
(819,303,o),
(792,303,cs),
(775,303,o),
(758,294,o),
(750,271,cs)
);
},
{
closed = 1;
nodes = (
(514,615,o),
(555,572,o),
(555,433,cs),
(555,333,o),
(538,258,o),
(512,205,c),
(438,248,o),
(387,332,o),
(387,439,cs),
(387,562,o),
(433,615,o),
(473,615,cs)
);
},
{
closed = 1;
nodes = (
(295,105,o),
(223,177,o),
(223,330,cs),
(223,413,o),
(242,501,o),
(280,556,c),
(268,519,o),
(262,479,o),
(262,436,cs),
(262,288,o),
(328,175,o),
(430,116,c),
(414,109,o),
(398,105,o),
(382,105,cs)
);
}
);
width = 761;
}
);
leftKerningGroup = O;
rightKerningGroup = A;
unicode = 79;
},
{
glyphname = P;
layers = (
{
hints = (
{
horizontal = 1;
place = (188,125);
type = Stem;
},
{
horizontal = 1;
place = (614,125);
type = Stem;
},
{
place = (-8,141);
type = Stem;
},
{
place = (128,140);
type = Stem;
},
{
place = (172,140);
type = Stem;
},
{
place = (480,141);
type = Stem;
}
);
layerId = "2CBAB59C-6D1F-481C-8D47-CA6A7671DE0F";
shapes = (
{
closed = 1;
nodes = (
(111,739,o),
(-8,620,o),
(-8,475,cs),
(-8,425,o),
(27,400,o),
(63,400,cs),
(98,400,o),
(133,425,o),
(133,475,cs),
(133,553,o),
(194,614,o),
(306,614,cs),
(422,614,o),
(480,545,o),
(480,458,cs),
(480,377,o),
(430,313,o),
(338,313,cs),
(328,313,o),
(318,314,o),
(308,315,c),
(310,343,o),
(312,371,o),
(312,401,cs),
(312,480,o),
(290,547,o),
(229,547,cs),
(188,547,o),
(161,522,o),
(161,486,cs),
(161,467,o),
(172,434,o),
(172,401,cs),
(172,263,o),
(128,139,o),
(128,43,cs),
(128,1,o),
(162,-20,o),
(197,-20,cs),
(232,-20,o),
(268,2,o),
(268,44,cs),
(268,82,o),
(280,135,o),
(291,198,c),
(312,192,o),
(336,188,o),
(362,188,cs),
(528,188,o),
(621,323,o),
(621,460,cs),
(621,599,o),
(524,739,o),
(315,739,cs)
);
}
);
width = 621;
}
);
leftKerningGroup = P2;
rightKerningGroup = P;
unicode = 80;
},
{
glyphname = Q;
layers = (
{
hints = (
{
horizontal = 1;
place = (-23,125);
type = Stem;
},
{
horizontal = 1;
place = (123,105);
type = Stem;
},
{
horizontal = 1;
place = (618,125);
type = Stem;
},
{
place = (101,140);
type = Stem;
},
{
place = (166,128);
type = Stem;
},
{
place = (529,140);
type = Stem;
}
);
layerId = "2CBAB59C-6D1F-481C-8D47-CA6A7671DE0F";
shapes = (
{
closed = 1;
nodes = (
(705,179,o),
(656,102,o),
(616,102,cs),
(600,102,o),
(584,107,o),
(567,116,c),
(628,196,o),
(669,307,o),
(669,435,cs),
(669,642,o),
(530,743,o),
(391,743,cs),
(247,743,o),
(101,636,o),
(101,426,cs),
(101,372,o),
(108,327,o),
(120,294,cs),
(132,261,o),
(162,246,o),
(192,246,cs),
(224,246,o),
(257,266,o),
(257,299,cs),
(257,302,o),
(256,305,o),
(256,308,c),
(251,341,o),
(241,372,o),
(241,417,cs),
(241,550,o),
(312,618,o),
(393,618,cs),
(489,618,o),
(529,534,o),
(529,434,cs),
(529,346,o),
(502,253,o),
(457,185,c),
(417,208,o),
(371,228,o),
(317,228,cs),
(220,228,o),
(166,163,o),
(166,99,cs),
(166,38,o),
(216,-23,o),
(327,-23,cs),
(377,-23,o),
(428,-5,o),
(475,27,c),
(515,-1,o),
(559,-23,o),
(610,-23,cs),
(679,-23,o),
(763,38,o),
(832,236,cs),
(834,242,o),
(835,248,o),
(835,254,cs),
(835,283,o),
(808,302,o),
(782,302,cs),
(764,302,o),
(745,292,o),
(738,271,cs)
);
},
{
closed = 1;
nodes = (
(302,87,o),
(294,96,o),
(294,105,cs),
(294,114,o),
(303,123,o),
(323,123,cs),
(341,123,o),
(364,114,o),
(387,101,c),
(365,92,o),
(342,87,o),
(323,87,cs)
);
}
);
width = 749;
}
);
leftKerningGroup = Q;
rightKerningGroup = A;
unicode = 81;
},
{
glyphname = R;
layers = (
{
anchors = (
{
name = t.uni0302_2;
position = "{320, 710}";
},
{
name = b.uni0326_1_2;
position = "{374, 6}";
}
);
hints = (
{
horizontal = 1;
place = (-17,125);
type = Stem;
},
{
horizontal = 1;
place = (266,117);
type = Stem;
},
{
horizontal = 1;
place = (620,125);
type = Stem;
},
{
place = (9,124);
type = Stem;
},
{
place = (124,140);
type = Stem;
},
{
place = (170,140);
type = Stem;
},
{
place = (454,140);
type = Stem;
}
);
layerId = "2CBAB59C-6D1F-481C-8D47-CA6A7671DE0F";
shapes = (
{
closed = 1;
nodes = (
(626,187,o),
(594,108,o),
(570,108,cs),
(552,108,o),
(533,140,o),
(504,204,cs),
(480,258,o),
(471,274,o),
(452,291,c),
(546,334,o),
(594,425,o),
(594,508,cs),
(594,626,o),
(499,745,o),
(308,745,cs),
(129,745,o),
(9,626,o),
(9,478,cs),
(9,432,o),
(35,401,o),
(71,401,cs),
(107,401,o),
(133,432,o),
(133,478,cs),
(133,565,o),
(222,620,o),
(307,620,cs),
(382,620,o),
(454,584,o),
(454,507,cs),
(454,442,o),
(410,383,o),
(326,383,cs),
(309,383,l),
(310,398,o),
(310,414,o),
(310,430,cs),
(310,503,o),
(293,550,o),
(232,550,cs),
(189,550,o),
(163,522,o),
(163,486,cs),
(163,472,o),
(170,447,o),
(170,430,cs),
(170,417,o),
(170,404,o),
(169,391,c),
(137,387,o),
(119,359,o),
(119,332,cs),
(119,310,o),
(131,287,o),
(155,277,c),
(150,245,o),
(144,216,o),
(139,188,cs),
(131,142,o),
(124,88,o),
(124,45,cs),
(124,5,o),
(159,-16,o),
(194,-16,cs),
(229,-16,o),
(264,5,o),
(264,47,cs),
(264,82,o),
(272,138,o),
(281,191,cs),
(285,215,o),
(290,240,o),
(294,266,c),
(312,266,l),
(334,262,o),
(342,226,o),
(371,158,cs),
(415,55,o),
(463,-17,o),
(551,-17,cs),
(630,-17,o),
(685,41,o),
(753,236,cs),
(755,242,o),
(756,249,o),
(756,254,cs),
(756,283,o),
(730,301,o),
(704,301,cs),
(686,301,o),
(667,292,o),
(659,271,cs)
);
}
);
width = 670;
}
);
leftKerningGroup = R;
rightKerningGroup = A;
unicode = 82;
},
{
glyphname = S;
layers = (
{
anchors = (
{
name = t.uni0302_2;
position = "{318, 710}";
},
{
name = b.uni0326_1_2;
position = "{294, 10}";
}
);
hints = (
{
horizontal = 1;
place = (-21,125);
type = Stem;
},
{
horizontal = 1;
place = (624,122);
type = Stem;
},
{
place = (47,140);
type = Stem;
},
{
place = (118,140);
type = Stem;
},
{
place = (363,139);
type = Stem;
},
{
place = (397,140);
type = Stem;
}
);
layerId = "2CBAB59C-6D1F-481C-8D47-CA6A7671DE0F";
shapes = (
{
closed = 1;
nodes = (
(47,64,o),
(145,-21,o),
(285,-21,cs),
(440,-21,o),
(537,69,o),
(537,198,cs),
(537,318,o),
(449,380,o),
(371,441,cs),
(309,490,o),
(258,533,o),
(258,568,cs),
(258,606,o),
(287,624,o),
(314,624,cs),
(339,624,o),
(363,609,o),
(363,580,cs),
(363,567,o),
(361,555,o),
(361,543,cs),
(361,510,o),
(390,485,o),
(430,485,cs),
(476,485,o),
(502,522,o),
(502,586,cs),
(502,679,o),
(420,746,o),
(312,746,cs),
(197,746,o),
(118,666,o),
(118,571,cs),
(118,476,o),
(188,406,o),
(268,347,cs),
(335,297,o),
(397,253,o),
(397,195,cs),
(397,133,o),
(346,104,o),
(295,104,cs),
(241,104,o),
(187,135,o),
(187,191,cs),
(187,228,o),
(204,256,o),
(204,284,cs),
(204,318,o),
(180,343,o),
(136,343,cs),
(103,343,o),
(79,324,o),
(67,294,cs),
(53,259,o),
(47,221,o),
(47,191,cs)
);
}
);
width = 515;
}
);
leftKerningGroup = S2;
rightKerningGroup = S;
unicode = 83;
},
{
glyphname = T;
layers = (
{
anchors = (
{
name = t.uni0302_2;
position = "{416, 706}";
},
{
name = b.uni0326_1_2;
position = "{252, 10}";
}
);
hints = (
{
horizontal = 1;
place = (-9,125);
type = Stem;
},
{
horizontal = 1;
place = (575,124);
type = Stem;
},
{
horizontal = 1;
place = (616,125);
type = Stem;
},
{
horizontal = 1;
place = (772,-20);
target = down;
type = TopGhost;
},
{
place = (54,140);
type = Stem;
},
{
place = (322,139);
type = Stem;
}
);
layerId = "2CBAB59C-6D1F-481C-8D47-CA6A7671DE0F";
shapes = (
{
closed = 1;
nodes = (
(590,772,o),
(602,699,o),
(530,699,cs),
(451,699,o),
(342,741,o),
(246,741,cs),
(126,741,o),
(54,677,o),
(54,581,cs),
(54,525,o),
(83,486,o),
(108,463,cs),
(138,435,o),
(168,418,o),
(204,418,cs),
(240,418,o),
(265,443,o),
(265,479,cs),
(265,511,o),
(242,529,o),
(222,545,cs),
(207,557,o),
(194,569,o),
(194,586,cs),
(194,601,o),
(208,616,o),
(236,616,cs),
(258,616,o),
(288,612,o),
(322,606,c),
(315,500,o),
(304,344,o),
(301,311,cs),
(288,148,o),
(269,116,o),
(237,116,cs),
(217,116,o),
(206,132,o),
(193,148,cs),
(180,165,o),
(165,182,o),
(135,182,cs),
(93,182,o),
(71,150,o),
(71,117,cs),
(71,85,o),
(90,51,o),
(124,26,cs),
(154,4,o),
(193,-9,o),
(241,-9,cs),
(359,-9,o),
(420,75,o),
(435,240,cs),
(444,338,o),
(452,458,o),
(461,583,c),
(494,578,o),
(526,575,o),
(555,575,cs),
(647,575,o),
(707,635,o),
(707,715,cs),
(707,749,o),
(684,772,o),
(654,772,cs)
);
}
);
width = 653;
}
);
leftKerningGroup = T2;
rightKerningGroup = T;
unicode = 84;
},
{
glyphname = U;
layers = (
{
anchors = (
{
name = t.uni0302_2;
position = "{410, 710}";
}
);
hints = (
{
horizontal = 1;
place = (-9,124);
type = Stem;
},
{
horizontal = 1;
place = (-7,125);
type = Stem;
},
{
horizontal = 1;
place = (620,120);
type = Stem;
},
{
place = (129,140);
type = Stem;
},
{
place = (194,139);
type = Stem;
}
);
layerId = "2CBAB59C-6D1F-481C-8D47-CA6A7671DE0F";
shapes = (
{
closed = 1;
nodes = (
(742,186,o),
(709,118,o),
(675,118,cs),
(651,118,o),
(621,148,o),
(621,240,cs),
(621,296,o),
(621,396,o),
(643,532,cs),
(647,557,o),
(650,581,o),
(650,594,cs),
(650,637,o),
(616,661,o),
(581,661,cs),
(550,661,o),
(519,641,o),
(513,598,cs),
(473,315,o),
(385,115,o),
(305,115,cs),
(284,115,o),
(269,130,o),
(269,168,cs),
(269,256,o),
(333,529,o),
(333,606,cs),
(333,687,o),
(283,740,o),
(192,740,cs),
(100,740,o),
(34,674,o),
(34,605,cs),
(34,570,o),
(55,548,o),
(88,548,cs),
(111,548,o),
(125,559,o),
(137,576,cs),
(160,608,o),
(169,620,o),
(179,620,cs),
(187,620,o),
(194,613,o),
(194,591,cs),
(194,545,o),
(129,250,o),
(129,160,cs),
(129,57,o),
(189,-9,o),
(288,-9,cs),
(376,-9,o),
(445,52,o),
(498,163,c),
(514,46,o),
(577,-7,o),
(657,-7,cs),
(731,-7,o),
(799,41,o),
(867,236,cs),
(869,242,o),
(870,249,o),
(870,254,cs),
(870,283,o),
(844,302,o),
(818,302,cs),
(799,302,o),
(781,292,o),
(773,271,cs)
);
}
);
width = 784;
}
);
leftKerningGroup = U;
rightKerningGroup = A;
unicode = 85;
},
{
glyphname = V;
layers = (
{
hints = (
{
horizontal = 1;
place = (-16,21);
target = up;
type = BottomGhost;
},
{
horizontal = 1;
place = (621,123);
type = Stem;
},
{
place = (23,712);
type = Stem;
}
);
layerId = "2CBAB59C-6D1F-481C-8D47-CA6A7671DE0F";
shapes = (
{
closed = 1;
nodes = (
(647,742,o),
(617,729,o),
(590,703,cs),
(493,610,o),
(417,445,o),
(371,245,c),
(365,362,o),
(360,486,o),
(351,576,cs),
(340,684,o),
(281,744,o),
(182,744,cs),
(128,744,o),
(83,724,o),
(56,694,cs),
(35,671,o),
(23,644,o),
(23,615,cs),
(23,576,o),
(47,550,o),
(84,550,cs),
(115,550,o),
(132,567,o),
(145,584,cs),
(158,602,o),
(166,621,o),
(180,621,cs),
(197,621,o),
(208,604,o),
(212,559,cs),
(233,319,o),
(248,184,o),
(262,60,cs),
(267,12,o),
(309,-16,o),
(353,-16,cs),
(392,-16,o),
(431,7,o),
(445,56,cs),
(504,269,o),
(569,485,o),
(698,614,cs),
(723,639,o),
(735,656,o),
(735,683,cs),
(735,718,o),
(708,742,o),
(674,742,cs)
);
}
);
width = 635;
}
);
unicode = 86;
},
{
glyphname = W;
layers = (
{
anchors = (
{
name = t.uni0302_2;
position = "{593, 710}";
}
);
hints = (
{
horizontal = 1;
place = (-12,125);
type = Stem;
},
{
horizontal = 1;
place = (616,122);
type = Stem;
},
{
place = (146,140);
type = Stem;
},
{
place = (193,140);
type = Stem;
},
{
place = (831,140);
type = Stem;
}
);
layerId = "2CBAB59C-6D1F-481C-8D47-CA6A7671DE0F";
shapes = (
{
closed = 1;
nodes = (
(908,728,o),
(886,743,o),
(851,743,cs),
(813,743,o),
(787,714,o),
(787,680,cs),
(787,667,o),
(794,645,o),
(807,612,cs),
(819,582,o),
(831,529,o),
(831,467,cs),
(831,266,o),
(760,113,o),
(708,113,cs),
(672,113,o),
(642,175,o),
(642,328,cs),
(642,430,o),
(663,512,o),
(663,541,cs),
(663,583,o),
(628,606,o),
(593,606,cs),
(560,606,o),
(527,586,o),
(521,544,c),
(476,269,o),
(385,113,o),
(330,113,cs),
(306,113,o),
(286,133,o),
(286,189,cs),
(286,297,o),
(333,526,o),
(333,597,cs),
(333,681,o),
(280,738,o),
(192,738,cs),
(131,738,o),
(80,712,o),
(53,672,cs),
(40,653,o),
(35,633,o),
(35,618,cs),
(35,582,o),
(64,562,o),
(94,562,cs),
(121,562,o),
(135,576,o),
(147,590,cs),
(163,608,o),
(172,616,o),
(180,616,cs),
(187,616,o),
(193,610,o),
(193,593,cs),
(193,537,o),
(146,277,o),
(146,187,cs),
(146,58,o),
(216,-12,o),
(315,-12,cs),
(405,-12,o),
(472,39,o),
(525,148,c),
(553,42,o),
(611,-12,o),
(700,-12,cs),
(859,-12,o),
(971,181,o),
(971,455,cs),
(971,545,o),
(952,636,o),
(923,696,cs)
);
}
);
width = 951;
}
);
leftKerningGroup = W2;
rightKerningGroup = W;
unicode = 87;
},
{
glyphname = X;
layers = (
{
hints = (
{
horizontal = 1;
place = (-16,125);
type = Stem;
},
{
horizontal = 1;
place = (-16,21);
target = up;
type = BottomGhost;
},
{
place = (32,627);
type = Stem;
}
);
layerId = "2CBAB59C-6D1F-481C-8D47-CA6A7671DE0F";
shapes = (
{
closed = 1;
nodes = (
(650,639,o),
(659,658,o),
(659,675,cs),
(659,715,o),
(631,739,o),
(595,739,cs),
(570,739,o),
(553,732,o),
(532,717,cs),
(486,683,o),
(425,597,o),
(368,489,c),
(349,552,o),
(337,614,o),
(333,672,cs),
(330,719,o),
(305,743,o),
(265,743,cs),
(219,743,o),
(192,716,o),
(192,680,cs),
(192,670,o),
(193,650,o),
(197,621,cs),
(209,529,o),
(238,420,o),
(285,309,c),
(206,133,o),
(182,109,o),
(169,109,cs),
(158,109,o),
(145,121,o),
(133,131,cs),
(119,143,o),
(105,148,o),
(88,148,cs),
(54,148,o),
(32,119,o),
(32,86,cs),
(32,66,o),
(40,44,o),
(58,26,cs),
(87,-3,o),
(122,-16,o),
(166,-16,cs),
(255,-16,o),
(312,54,o),
(364,156,c),
(400,96,o),
(442,37,o),
(492,-17,cs),
(512,-39,o),
(529,-55,o),
(559,-55,cs),
(603,-55,o),
(627,-20,o),
(627,13,cs),
(627,35,o),
(619,50,o),
(599,72,cs),
(537,140,o),
(481,226,o),
(436,318,c),
(499,462,o),
(563,567,o),
(626,619,cs)
);
}
);
width = 619;
}
);
leftKerningGroup = X2;
rightKerningGroup = X;
unicode = 88;
},
{
glyphname = Y;
layers = (
{
anchors = (
{
name = t.uni0302_2;
position = "{379, 710}";
}
);
hints = (
{
horizontal = 1;
place = (-11,125);
type = Stem;
},
{
horizontal = 1;
place = (232,123);
type = Stem;
},
{
horizontal = 1;
place = (613,122);
type = Stem;
},
{
place = (186,140);
type = Stem;
},
{
place = (201,139);
type = Stem;
},
{
place = (507,139);
type = Stem;
}
);
layerId = "2CBAB59C-6D1F-481C-8D47-CA6A7671DE0F";
shapes = (
{
closed = 1;
nodes = (
(640,714,o),
(606,734,o),
(572,734,cs),
(535,734,o),
(499,711,o),
(503,667,cs),
(505,646,o),
(507,616,o),
(507,579,c),
(504,446,o),
(438,355,o),
(377,355,cs),
(346,355,o),
(326,375,o),
(326,411,cs),
(326,459,o),
(340,576,o),
(340,604,cs),
(340,680,o),
(285,735,o),
(193,735,cs),
(144,735,o),
(102,716,o),
(74,690,cs),
(48,666,o),
(33,636,o),
(33,608,cs),
(33,572,o),
(57,546,o),
(91,546,cs),
(115,546,o),
(132,558,o),
(144,571,cs),
(162,590,o),
(172,613,o),
(186,613,cs),
(194,613,o),
(201,606,o),
(201,586,cs),
(201,563,o),
(186,482,o),
(186,403,cs),
(186,296,o),
(256,232,o),
(351,232,cs),
(404,232,o),
(447,257,o),
(483,298,c),
(455,179,o),
(394,114,o),
(346,114,cs),
(322,114,o),
(306,129,o),
(289,146,cs),
(273,162,o),
(255,177,o),
(228,177,cs),
(187,177,o),
(166,147,o),
(166,113,cs),
(166,82,o),
(182,55,o),
(206,35,cs),
(240,6,o),
(290,-11,o),
(340,-11,cs),
(562,-11,o),
(646,220,o),
(646,583,cs),
(646,614,o),
(645,644,o),
(643,674,cs)
);
}
);
width = 671;
}
);
leftKerningGroup = Y2;
rightKerningGroup = Y;
unicode = 89;
},
{
glyphname = Z;
layers = (
{
anchors = (
{
name = t.uni0302_2;
position = "{411, 710}";
}
);
hints = (
{
horizontal = 1;
place = (-15,125);
type = Stem;
},
{
horizontal = 1;
place = (-13,110);
type = Stem;
},
{
horizontal = 1;
place = (134,105);
type = Stem;
},
{
horizontal = 1;
place = (582,124);
type = Stem;
},
{
horizontal = 1;
place = (612,125);
type = Stem;
},
{
place = (25,125);
type = Stem;
},
{
place = (105,137);
type = Stem;
}
);
layerId = "2CBAB59C-6D1F-481C-8D47-CA6A7671DE0F";
shapes = (
{
closed = 1;
nodes = (
(556,168,o),
(517,110,o),
(479,110,cs),
(453,110,o),
(426,124,o),
(396,142,c),
(401,150,l),
(503,329,o),
(627,611,o),
(627,674,cs),
(627,709,o),
(602,734,o),
(562,734,cs),
(522,734,o),
(498,706,o),
(454,706,cs),
(387,706,o),
(318,737,o),
(249,737,cs),
(162,737,o),
(105,685,o),
(105,595,cs),
(105,539,o),
(135,484,o),
(198,484,cs),
(232,484,o),
(257,504,o),
(257,531,cs),
(257,552,o),
(242,567,o),
(242,582,cs),
(242,601,o),
(257,612,o),
(277,612,cs),
(318,612,o),
(360,582,o),
(419,582,cs),
(431,582,o),
(445,584,o),
(458,588,c),
(400,439,o),
(326,293,o),
(280,213,c),
(248,228,o),
(213,239,o),
(174,239,cs),
(75,239,o),
(25,176,o),
(25,113,cs),
(25,50,o),
(75,-13,o),
(177,-13,cs),
(229,-13,o),
(278,8,o),
(322,48,c),
(372,15,o),
(426,-15,o),
(478,-15,cs),
(537,-15,o),
(624,41,o),
(690,236,cs),
(692,243,o),
(693,249,o),
(693,255,cs),
(693,284,o),
(667,301,o),
(641,301,cs),
(622,301,o),
(604,292,o),
(596,271,cs)
);
},
{
closed = 1;
nodes = (
(159,97,o),
(150,106,o),
(150,116,cs),
(150,125,o),
(159,134,o),
(176,134,cs),
(195,134,o),
(211,129,o),
(228,119,c),
(212,104,o),
(194,97,o),
(176,97,cs)
);
}
);
width = 607;
}
);
leftKerningGroup = Z;
rightKerningGroup = A;
unicode = 90;
},
{
glyphname = bracketleft;
layers = (
{
hints = (
{
horizontal = 1;
place = (-30,124);
type = Stem;
},
{
horizontal = 1;
place = (597,124);
type = Stem;
},
{
place = (80,132);
type = Stem;
}
);
layerId = "2CBAB59C-6D1F-481C-8D47-CA6A7671DE0F";
shapes = (
{
closed = 1;
nodes = (
(313,-27,o),
(336,5,o),
(336,35,cs),
(336,65,o),
(314,94,o),
(271,94,cs),
(254,94,o),
(243,93,o),
(235,93,cs),
(225,93,o),
(220,94,o),
(218,96,cs),
(213,101,o),
(212,181,o),
(212,345,cs),
(212,473,o),
(217,580,o),
(222,590,cs),
(225,596,o),
(237,597,o),
(271,597,cs),
(315,597,o),
(338,627,o),
(338,658,cs),
(338,689,o),
(314,721,o),
(267,721,cs),
(187,721,o),
(141,712,o),
(118,692,cs),
(95,672,o),
(80,534,o),
(80,346,cs),
(80,133,o),
(92,15,o),
(116,-7,cs),
(133,-23,o),
(174,-31,o),
(230,-31,cs),
(241,-31,o),
(253,-31,o),
(265,-30,cs)
);
}
);
width = 368;
}
);
unicode = 91;
},
{
glyphname = backslash;
layers = (
{
hints = (
{
horizontal = 1;
place = (-14,21);
target = up;
type = BottomGhost;
},
{
place = (10,390);
type = Stem;
}
);
layerId = "2CBAB59C-6D1F-481C-8D47-CA6A7671DE0F";
shapes = (
{
closed = 1;
nodes = (
(42,718,o),
(10,687,o),
(10,652,cs),
(10,636,o),
(15,620,o),
(23,607,cs),
(55,557,o),
(91,457,o),
(130,350,cs),
(178,218,o),
(230,78,o),
(279,15,cs),
(294,-3,o),
(312,-14,o),
(334,-14,cs),
(373,-14,o),
(400,17,o),
(400,52,cs),
(400,66,o),
(394,84,o),
(385,97,cs),
(342,158,o),
(298,280,o),
(253,403,cs),
(212,516,o),
(170,627,o),
(133,686,cs),
(121,705,o),
(100,718,o),
(78,718,cs)
);
}
);
width = 430;
}
);
unicode = 92;
},
{
glyphname = bracketright;
layers = (
{
hints = (
{
horizontal = 1;
place = (-31,124);
type = Stem;
},
{
horizontal = 1;
place = (596,124);
type = Stem;
},
{
place = (156,132);
type = Stem;
}
);
layerId = "2CBAB59C-6D1F-481C-8D47-CA6A7671DE0F";
shapes = (
{
closed = 1;
nodes = (
(55,717,o),
(32,685,o),
(32,655,cs),
(32,625,o),
(54,596,o),
(97,596,cs),
(114,596,o),
(125,597,o),
(133,597,cs),
(143,597,o),
(148,596,o),
(150,594,cs),
(155,589,o),
(156,509,o),
(156,345,cs),
(156,217,o),
(151,110,o),
(146,100,cs),
(143,94,o),
(131,93,o),
(97,93,cs),
(53,93,o),
(30,63,o),
(30,32,cs),
(30,1,o),
(54,-31,o),
(101,-31,cs),
(181,-31,o),
(227,-22,o),
(250,-2,cs),
(273,18,o),
(288,156,o),
(288,344,cs),
(288,557,o),
(276,675,o),
(252,697,cs),
(235,713,o),
(194,721,o),
(138,721,cs),
(127,721,o),
(115,721,o),
(103,720,cs)
);
}
);
width = 368;
}
);
unicode = 93;
},
{
glyphname = asciicircum;
layers = (
{
hints = (
{
horizontal = 1;
place = (352,353);
type = Stem;
},
{
place = (30,354);
type = Stem;
}
);
layerId = "2CBAB59C-6D1F-481C-8D47-CA6A7671DE0F";
shapes = (
{
closed = 1;
nodes = (
(118,354,o),
(137,367,o),
(149,391,cs),
(197,490,ls),
(200,496,o),
(203,498,o),
(207,498,cs),
(211,498,o),
(215,496,o),
(217,490,c),
(265,388,ls),
(276,365,o),
(296,352,o),
(320,352,cs),
(355,352,o),
(384,380,o),
(384,413,cs),
(384,423,o),
(381,434,o),
(376,444,cs),
(270,659,ls),
(256,688,o),
(231,705,o),
(205,705,cs),
(179,705,o),
(156,687,o),
(142,659,cs),
(39,446,ls),
(34,435,o),
(30,424,o),
(30,415,cs),
(30,382,o),
(59,354,o),
(94,354,cs)
);
}
);
width = 414;
}
);
unicode = 94;
},
{
glyphname = underscore;
layers = (
{
hints = (
{
horizontal = 1;
place = (-20,118);
type = Stem;
},
{
place = (30,399);
type = Stem;
}
);
layerId = "2CBAB59C-6D1F-481C-8D47-CA6A7671DE0F";
shapes = (
{
closed = 1;
nodes = (
(404,-22,o),
(429,3,o),
(429,38,cs),
(429,73,o),
(401,98,o),
(364,98,cs),
(317,98,o),
(52,100,o),
(92,100,c),
(55,100,o),
(30,75,o),
(30,40,cs),
(30,5,o),
(58,-20,o),
(95,-20,cs),
(142,-20,o),
(407,-22,o),
(367,-22,c)
);
}
);
width = 459;
}
);
unicode = 95;
},
{
glyphname = grave;
layers = (
{
hints = (
{
horizontal = 1;
place = (756,196);
type = Stem;
},
{
place = (41,191);
type = Stem;
}
);
layerId = "2CBAB59C-6D1F-481C-8D47-CA6A7671DE0F";
shapes = (
{
closed = 1;
nodes = (
(149,927,ls),
(132,945,o),
(114,952,o),
(97,952,cs),
(67,952,o),
(41,927,o),
(41,896,cs),
(41,880,o),
(48,862,o),
(64,846,cs),
(126,781,ls),
(142,764,o),
(160,756,o),
(176,756,cs),
(207,756,o),
(232,782,o),
(232,813,cs),
(232,829,o),
(226,847,o),
(210,863,cs)
);
}
);
width = 274;
}
);
unicode = 96;
},
{
glyphname = a;
layers = (
{
anchors = (
{
name = t.uni0302_2;
position = "{221, 410}";
}
);
hints = (
{
horizontal = 1;
place = (-16,124);
type = Stem;
},
{
horizontal = 1;
place = (310,126);
type = Stem;
},
{
place = (-5,135);
type = Stem;
},
{
place = (275,124);
type = Stem;
}
);
layerId = "2CBAB59C-6D1F-481C-8D47-CA6A7671DE0F";
shapes = (
{
closed = 1;
nodes = (
(466,178,o),
(434,109,o),
(416,109,cs),
(405,109,o),
(399,126,o),
(399,163,cs),
(399,257,o),
(415,351,o),
(415,391,cs),
(415,427,o),
(384,446,o),
(352,446,cs),
(323,446,o),
(301,432,o),
(289,406,c),
(264,426,o),
(236,436,o),
(208,436,cs),
(76,436,o),
(-5,296,o),
(-5,173,cs),
(-5,49,o),
(71,-16,o),
(153,-16,cs),
(205,-16,o),
(258,9,o),
(298,61,c),
(320,9,o),
(361,-16,o),
(404,-16,cs),
(479,-16,o),
(533,51,o),
(595,236,cs),
(597,242,o),
(598,248,o),
(598,253,cs),
(598,283,o),
(571,301,o),
(545,301,cs),
(527,301,o),
(509,292,o),
(501,271,cs)
);
},
{
closed = 1;
nodes = (
(147,108,o),
(130,143,o),
(130,183,cs),
(130,241,o),
(164,310,o),
(227,310,cs),
(249,310,o),
(266,297,o),
(275,286,c),
(269,206,o),
(253,108,o),
(183,108,cs)
);
}
);
width = 512;
}
);
leftKerningGroup = a;
rightKerningGroup = A;
unicode = 97;
},
{
glyphname = b;
layers = (
{
hints = (
{
horizontal = 1;
place = (-13,124);
type = Stem;
},
{
horizontal = 1;
place = (401,117);
type = Stem;
},
{
horizontal = 1;
place = (624,120);
type = Stem;
},
{
place = (10,135);
type = Stem;
},
{
place = (205,218);
type = Stem;
},
{
place = (303,123);
type = Stem;
}
);
layerId = "2CBAB59C-6D1F-481C-8D47-CA6A7671DE0F";
shapes = (
{
closed = 1;
nodes = (
(455,244,o),
(440,224,o),
(422,212,c),
(423,221,o),
(423,229,o),
(423,238,cs),
(423,333,o),
(363,377,o),
(306,377,cs),
(254,377,o),
(205,341,o),
(205,272,cs),
(205,211,o),
(233,162,o),
(273,132,c),
(257,117,o),
(239,111,o),
(220,111,cs),
(182,111,o),
(145,145,o),
(145,263,cs),
(145,314,o),
(149,360,o),
(155,401,c),
(310,404,o),
(426,488,o),
(426,608,cs),
(426,679,o),
(366,744,o),
(285,744,cs),
(180,744,o),
(95,664,o),
(49,533,c),
(44,534,o),
(39,534,o),
(34,534,cs),
(0,534,o),
(-20,505,o),
(-20,476,cs),
(-20,453,o),
(-7,429,o),
(21,419,c),
(14,376,o),
(10,329,o),
(10,280,cs),
(10,82,o),
(86,-13,o),
(213,-13,cs),
(291,-13,o),
(351,34,o),
(386,96,c),
(457,100,o),
(529,151,o),
(559,237,cs),
(561,242,o),
(562,248,o),
(562,253,cs),
(562,281,o),
(533,300,o),
(507,300,cs),
(489,300,o),
(472,291,o),
(465,271,cs)
);
},
{
closed = 1;
nodes = (
(296,624,o),
(303,614,o),
(303,600,cs),
(303,571,o),
(267,523,o),
(185,518,c),
(211,586,o),
(246,624,o),
(278,624,cs)
);
}
);
width = 476;
}
);
leftKerningGroup = b;
rightKerningGroup = A;
unicode = 98;
},
{
glyphname = c;
layers = (
{
anchors = (
{
name = t.uni0302_2;
position = "{218, 410}";
},
{
name = b.uni0326_1_2;
position = "{186, 10}";
}
);
hints = (
{
horizontal = 1;
place = (-16,125);
type = Stem;
},
{
horizontal = 1;
place = (318,123);
type = Stem;
},
{
place = (-1,134);
type = Stem;
},
{
place = (241,131);
type = Stem;
}
);
layerId = "2CBAB59C-6D1F-481C-8D47-CA6A7671DE0F";
shapes = (
{
closed = 1;
nodes = (
(321,-16,o),
(434,39,o),
(505,236,cs),
(507,242,o),
(508,248,o),
(508,254,cs),
(508,282,o),
(481,300,o),
(455,300,cs),
(436,300,o),
(419,292,o),
(411,271,cs),
(372,166,o),
(307,109,o),
(231,109,cs),
(166,109,o),
(133,153,o),
(133,207,cs),
(133,261,o),
(166,318,o),
(215,318,cs),
(231,318,o),
(241,308,o),
(241,290,cs),
(241,252,o),
(269,229,o),
(301,229,cs),
(345,229,o),
(372,269,o),
(372,315,cs),
(372,374,o),
(327,441,o),
(218,441,cs),
(86,441,o),
(-1,312,o),
(-1,191,cs),
(-1,84,o),
(76,-16,o),
(217,-16,cs)
);
}
);
width = 422;
}
);
leftKerningGroup = c;
rightKerningGroup = A;
unicode = 99;
},
{
glyphname = d;
layers = (
{
hints = (
{
horizontal = 1;
place = (-12,124);
type = Stem;
},
{
horizontal = 1;
place = (-9,124);
type = Stem;
},
{
horizontal = 1;
place = (-9,21);
target = up;
type = BottomGhost;
},
{
horizontal = 1;
place = (321,120);
type = Stem;
},
{
horizontal = 1;
place = (428,-20);
target = down;
type = TopGhost;
},
{
horizontal = 1;
place = (623,118);
type = Stem;
},
{
place = (-5,135);
type = Stem;
},
{
place = (275,115);
type = Stem;
},
{
place = (275,118);
type = Stem;
},
{
place = (435,118);
type = Stem;
}
);
layerId = "2CBAB59C-6D1F-481C-8D47-CA6A7671DE0F";
shapes = (
{
closed = 1;
nodes = (
(507,175,o),
(459,115,o),
(432,115,cs),
(409,115,o),
(398,147,o),
(393,226,c),
(456,301,o),
(553,432,o),
(553,605,cs),
(553,684,o),
(507,741,o),
(426,741,cs),
(329,741,o),
(275,645,o),
(275,463,cs),
(275,451,o),
(276,440,o),
(276,428,c),
(258,437,o),
(237,441,o),
(216,441,cs),
(81,441,o),
(-5,302,o),
(-5,178,cs),
(-5,78,o),
(47,-12,o),
(156,-12,cs),
(212,-12,o),
(262,19,o),
(299,65,c),
(323,20,o),
(359,-9,o),
(407,-9,cs),
(472,-9,o),
(570,45,o),
(634,236,cs),
(636,241,o),
(636,246,o),
(636,251,cs),
(636,279,o),
(607,299,o),
(580,299,cs),
(563,299,o),
(547,291,o),
(540,271,cs)
);
},
{
closed = 1;
nodes = (
(430,623,o),
(435,615,o),
(435,592,cs),
(435,552,o),
(418,478,o),
(390,403,c),
(393,574,o),
(407,623,o),
(423,623,cs)
);
},
{
closed = 1;
nodes = (
(145,112,o),
(130,143,o),
(130,181,cs),
(130,241,o),
(167,321,o),
(226,321,cs),
(256,321,o),
(275,300,o),
(275,257,cs),
(275,188,o),
(236,112,o),
(179,112,cs)
);
}
);
width = 551;
}
);
leftKerningGroup = a;
rightKerningGroup = A;
unicode = 100;
},
{
glyphname = e;
layers = (
{
anchors = (
{
name = t.uni0302_2;
position = "{225, 410}";
}
);
hints = (
{
horizontal = 1;
place = (-14,124);
type = Stem;
},
{
horizontal = 1;
place = (152,87);
type = Stem;
},
{
horizontal = 1;
place = (319,123);
type = Stem;
},
{
place = (264,130);
type = Stem;
}
);
layerId = "2CBAB59C-6D1F-481C-8D47-CA6A7671DE0F";
shapes = (
{
closed = 1;
nodes = (
(416,166,o),
(335,110,o),
(253,110,cs),
(194,110,o),
(149,137,o),
(139,186,c),
(172,161,o),
(206,152,o),
(244,152,cs),
(332,152,o),
(394,222,o),
(394,294,cs),
(394,367,o),
(332,442,o),
(225,442,cs),
(84,442,o),
(3,322,o),
(3,205,cs),
(3,73,o),
(110,-14,o),
(245,-14,cs),
(352,-14,o),
(483,43,o),
(547,236,cs),
(549,242,o),
(550,248,o),
(550,254,cs),
(550,284,o),
(523,302,o),
(497,302,cs),
(479,302,o),
(461,293,o),
(453,271,cs)
);
},
{
closed = 1;
nodes = (
(247,319,o),
(264,300,o),
(264,280,cs),
(264,260,o),
(246,239,o),
(211,239,cs),
(193,239,o),
(173,243,o),
(146,257,c),
(159,292,o),
(185,319,o),
(217,319,cs)
);
}
);
width = 464;
}
);
leftKerningGroup = c;
rightKerningGroup = A;
unicode = 101;
},
{
glyphname = f;
layers = (
{
hints = (
{
horizontal = 1;
place = (-266,125);
type = Stem;
},
{
horizontal = 1;
place = (609,122);
type = Stem;
},
{
place = (7,138);
type = Stem;
},
{
place = (223,127);
type = Stem;
},
{
place = (239,127);
type = Stem;
}
);
layerId = "2CBAB59C-6D1F-481C-8D47-CA6A7671DE0F";
shapes = (
{
closed = 1;
nodes = (
(362,228,o),
(331,181,o),
(295,174,c),
(266,218,o),
(228,239,o),
(191,239,cs),
(170,239,o),
(154,232,o),
(143,221,c),
(143,230,o),
(143,238,o),
(144,247,c),
(300,368,o),
(366,494,o),
(366,590,cs),
(366,681,o),
(307,731,o),
(230,731,cs),
(117,731,o),
(7,624,o),
(7,163,cs),
(7,-182,o),
(94,-266,o),
(199,-266,cs),
(279,-266,o),
(350,-192,o),
(350,-47,cs),
(350,-4,o),
(346,35,o),
(338,68,c),
(407,101,o),
(449,174,o),
(471,236,cs),
(473,242,o),
(474,247,o),
(474,252,cs),
(474,281,o),
(446,297,o),
(420,297,cs),
(401,297,o),
(383,289,o),
(377,271,cs)
);
},
{
closed = 1;
nodes = (
(234,609,o),
(239,604,o),
(239,590,cs),
(239,544,o),
(205,460,o),
(154,393,c),
(170,525,o),
(200,609,o),
(226,609,cs)
);
},
{
closed = 1;
nodes = (
(181,-141,o),
(152,-90,o),
(145,104,c),
(158,86,o),
(178,70,o),
(205,60,c),
(215,25,o),
(223,-18,o),
(223,-61,cs),
(223,-106,o),
(217,-141,o),
(202,-141,cs)
);
}
);
width = 388;
}
);
leftKerningGroup = f;
rightKerningGroup = A;
unicode = 102;
},
{
glyphname = g;
layers = (
{
anchors = (
{
name = t.uni0302_2;
position = "{229, 410}";
}
);
hints = (
{
horizontal = 1;
place = (-264,113);
type = Stem;
},
{
horizontal = 1;
place = (10,122);
type = Stem;
},
{
horizontal = 1;
place = (315,124);
type = Stem;
},
{
place = (-5,135);
type = Stem;
},
{
place = (70,125);
type = Stem;
},
{
place = (277,133);
type = Stem;
}
);
layerId = "2CBAB59C-6D1F-481C-8D47-CA6A7671DE0F";
shapes = (
{
closed = 1;
nodes = (
(475,209,o),
(441,147,o),
(395,97,c),
(405,217,o),
(410,290,o),
(410,307,cs),
(410,381,o),
(320,439,o),
(225,439,cs),
(77,439,o),
(-5,305,o),
(-5,186,cs),
(-5,83,o),
(56,10,o),
(144,10,cs),
(185,10,o),
(222,24,o),
(255,52,c),
(254,41,o),
(254,31,o),
(253,22,c),
(135,-33,o),
(70,-73,o),
(70,-158,cs),
(70,-217,o),
(117,-264,o),
(200,-264,cs),
(310,-264,o),
(366,-195,o),
(383,-41,c),
(483,26,o),
(548,115,o),
(591,236,cs),
(593,242,o),
(594,248,o),
(594,253,cs),
(594,283,o),
(567,304,o),
(541,304,cs),
(523,304,o),
(505,294,o),
(497,271,cs)
);
},
{
closed = 1;
nodes = (
(148,132,o),
(130,150,o),
(130,189,cs),
(130,252,o),
(163,315,o),
(218,315,cs),
(252,315,o),
(272,299,o),
(277,278,c),
(270,199,o),
(238,132,o),
(181,132,cs)
);
},
{
closed = 1;
nodes = (
(200,-151,o),
(195,-146,o),
(195,-138,cs),
(195,-125,o),
(213,-113,o),
(241,-98,c),
(234,-134,o),
(225,-151,o),
(211,-151,cs)
);
}
);
width = 508;
}
);
leftKerningGroup = a;
rightKerningGroup = A;
unicode = 103;
},
{
glyphname = h;
layers = (
{
anchors = (
{
name = t.uni0302_2;
position = "{246, 714}";
}
);
hints = (
{
horizontal = 1;
place = (-12,123);
type = Stem;
},
{
horizontal = 1;
place = (309,115);
type = Stem;
},
{
horizontal = 1;
place = (424,-20);
target = down;
type = TopGhost;
},
{
horizontal = 1;
place = (432,117);
type = Stem;
},
{
horizontal = 1;
place = (625,120);
type = Stem;
},
{
place = (11,137);
type = Stem;
},
{
place = (225,131);
type = Stem;
},
{
place = (267,135);
type = Stem;
},
{
place = (277,121);
type = Stem;
}
);
layerId = "2CBAB59C-6D1F-481C-8D47-CA6A7671DE0F";
shapes = (
{
closed = 1;
nodes = (
(433,169,o),
(395,111,o),
(372,111,cs),
(363,111,o),
(356,118,o),
(356,132,cs),
(356,161,o),
(402,248,o),
(402,320,cs),
(402,380,o),
(353,424,o),
(290,424,cs),
(233,424,o),
(183,400,o),
(145,355,c),
(147,383,o),
(150,409,o),
(154,432,c),
(320,439,o),
(398,523,o),
(398,615,cs),
(398,689,o),
(342,745,o),
(250,745,cs),
(165,745,o),
(87,696,o),
(45,557,c),
(40,558,o),
(36,558,o),
(33,558,cs),
(-1,558,o),
(-20,530,o),
(-20,501,cs),
(-20,477,o),
(-7,453,o),
(21,444,c),
(14,396,o),
(11,340,o),
(11,277,cs),
(11,204,o),
(11,128,o),
(16,55,cs),
(19,10,o),
(47,-14,o),
(84,-14,cs),
(132,-14,o),
(154,17,o),
(151,61,cs),
(148,98,l),
(146,240,o),
(215,309,o),
(247,309,cs),
(261,309,o),
(267,303,o),
(267,290,cs),
(267,250,o),
(225,188,o),
(225,104,cs),
(225,39,o),
(275,-12,o),
(349,-12,cs),
(428,-12,o),
(499,47,o),
(563,236,cs),
(565,242,o),
(566,248,o),
(566,254,cs),
(566,283,o),
(539,304,o),
(513,304,cs),
(495,304,o),
(477,295,o),
(469,271,cs)
);
},
{
closed = 1;
nodes = (
(267,625,o),
(277,615,o),
(277,600,cs),
(277,580,o),
(253,556,o),
(182,549,c),
(202,601,o),
(226,625,o),
(249,625,cs)
);
}
);
width = 480;
}
);
leftKerningGroup = h;
rightKerningGroup = A;
unicode = 104;
},
{
glyphname = i;
layers = (
{
hints = (
{
horizontal = 1;
place = (-15,125);
type = Stem;
},
{
horizontal = 1;
place = (436,-20);
target = down;
type = TopGhost;
},
{
horizontal = 1;
place = (464,158);
type = Stem;
},
{
place = (-1,135);
type = Stem;
},
{
place = (29,158);
type = Stem;
}
);
layerId = "2CBAB59C-6D1F-481C-8D47-CA6A7671DE0F";
shapes = (
{
closed = 1;
nodes = (
(152,464,o),
(187,499,o),
(187,543,cs),
(187,587,o),
(152,622,o),
(108,622,cs),
(64,622,o),
(29,587,o),
(29,543,cs),
(29,499,o),
(64,464,o),
(108,464,cs)
);
},
{
closed = 1;
nodes = (
(217,-15,o),
(282,41,o),
(352,236,cs),
(354,241,o),
(355,247,o),
(355,252,cs),
(355,279,o),
(326,299,o),
(299,299,cs),
(282,299,o),
(265,291,o),
(258,271,cs),
(225,178,o),
(187,110,o),
(161,110,cs),
(147,110,o),
(134,124,o),
(134,177,cs),
(134,226,o),
(152,341,o),
(154,362,cs),
(159,411,o),
(125,436,o),
(89,436,cs),
(58,436,o),
(27,417,o),
(20,376,cs),
(11,320,o),
(-1,226,o),
(-1,173,cs),
(-1,53,o),
(51,-15,o),
(141,-15,cs)
);
}
);
width = 269;
}
);
leftKerningGroup = i;
rightKerningGroup = A;
unicode = 105;
},
{
glyphname = j;
layers = (
{
hints = (
{
horizontal = 1;
place = (-264,113);
type = Stem;
},
{
horizontal = 1;
place = (436,-20);
target = down;
type = TopGhost;
},
{
horizontal = 1;
place = (464,158);
type = Stem;
},
{
place = (-189,125);
type = Stem;
},
{
place = (13,158);
type = Stem;
},
{
place = (14,135);
type = Stem;
}
);
layerId = "2CBAB59C-6D1F-481C-8D47-CA6A7671DE0F";
shapes = (
{
closed = 1;
nodes = (
(136,464,o),
(171,499,o),
(171,543,cs),
(171,587,o),
(136,622,o),
(92,622,cs),
(48,622,o),
(13,587,o),
(13,543,cs),
(13,499,o),
(48,464,o),
(92,464,cs)
);
},
{
closed = 1;
nodes = (
(203,216,o),
(173,153,o),
(133,101,c),
(149,367,ls),
(152,411,o),
(118,436,o),
(82,436,cs),
(50,436,o),
(16,414,o),
(14,378,cs),
(8,260,o),
(-1,109,o),
(-7,15,c),
(-124,-45,o),
(-189,-76,o),
(-189,-158,cs),
(-189,-217,o),
(-142,-264,o),
(-59,-264,cs),
(57,-264,o),
(109,-176,o),
(123,-47,c),
(221,26,o),
(276,120,o),
(317,236,cs),
(319,242,o),
(320,248,o),
(320,253,cs),
(320,283,o),
(293,304,o),
(267,304,cs),
(249,304,o),
(231,294,o),
(223,271,cs)
);
},
{
closed = 1;
nodes = (
(-59,-151,o),
(-64,-146,o),
(-64,-138,cs),
(-64,-125,o),
(-45,-113,o),
(-17,-99,c),
(-24,-135,o),
(-34,-151,o),
(-49,-151,cs)
);
}
);
width = 234;
}
);
leftKerningGroup = j;
rightKerningGroup = A;
unicode = 106;
},
{
glyphname = k;
layers = (
{
anchors = (
{
name = b.uni0326_1_2;
position = "{186, 10}";
}
);
hints = (
{
horizontal = 1;
place = (-15,123);
type = Stem;
},
{
horizontal = 1;
place = (308,114);
type = Stem;
},
{
horizontal = 1;
place = (432,117);
type = Stem;
},
{
horizontal = 1;
place = (625,120);
type = Stem;
},
{
place = (11,136);
type = Stem;
},
{
place = (168,129);
type = Stem;
},
{
place = (265,136);
type = Stem;
},
{
place = (277,121);
type = Stem;
}
);
layerId = "2CBAB59C-6D1F-481C-8D47-CA6A7671DE0F";
shapes = (
{
closed = 1;
nodes = (
(423,178,o),
(367,108,o),
(323,108,cs),
(305,108,o),
(297,116,o),
(297,129,cs),
(297,144,o),
(308,156,o),
(327,171,cs),
(360,196,o),
(401,231,o),
(401,306,cs),
(401,371,o),
(350,422,o),
(272,422,cs),
(224,422,o),
(182,399,o),
(147,362,c),
(149,387,o),
(152,411,o),
(155,432,c),
(318,438,o),
(398,521,o),
(398,618,cs),
(398,689,o),
(344,745,o),
(257,745,cs),
(167,745,o),
(88,696,o),
(45,558,c),
(41,558,ls),
(1,558,o),
(-20,530,o),
(-20,501,cs),
(-20,478,o),
(-7,455,o),
(21,445,c),
(15,396,o),
(11,340,o),
(11,277,cs),
(11,204,o),
(11,128,o),
(16,55,cs),
(19,11,o),
(48,-14,o),
(84,-14,cs),
(123,-14,o),
(154,16,o),
(151,61,cs),
(149,87,o),
(147,113,o),
(147,137,cs),
(147,249,o),
(207,308,o),
(238,308,cs),
(254,308,o),
(265,297,o),
(265,282,cs),
(265,255,o),
(238,247,o),
(209,217,cs),
(189,197,o),
(168,163,o),
(168,119,cs),
(168,44,o),
(226,-15,o),
(308,-15,cs),
(390,-15,o),
(482,48,o),
(550,236,cs),
(552,241,o),
(553,247,o),
(553,252,cs),
(553,279,o),
(524,299,o),
(497,299,cs),
(480,299,o),
(463,291,o),
(456,271,cs)
);
},
{
closed = 1;
nodes = (
(266,625,o),
(277,614,o),
(277,600,cs),
(277,580,o),
(255,555,o),
(181,549,c),
(201,601,o),
(225,625,o),
(251,625,cs)
);
}
);
width = 467;
}
);
leftKerningGroup = k;
rightKerningGroup = A;
unicode = 107;
},
{
glyphname = l;
layers = (
{
anchors = (
{
name = t.uni0302_2;
position = "{210, 710}";
},
{
name = b.uni0326_1_2;
position = "{195, 10}";
}
);
hints = (
{
horizontal = 1;
place = (-14,124);
type = Stem;
},
{
horizontal = 1;
place = (616,123);
type = Stem;
},
{
place = (8,139);
type = Stem;
},
{
place = (224,122);
type = Stem;
}
);
layerId = "2CBAB59C-6D1F-481C-8D47-CA6A7671DE0F";
shapes = (
{
closed = 1;
nodes = (
(309,175,o),
(253,110,o),
(209,110,cs),
(180,110,o),
(153,131,o),
(145,217,c),
(266,334,o),
(346,472,o),
(346,601,cs),
(346,688,o),
(295,739,o),
(213,739,cs),
(80,739,o),
(8,586,o),
(8,269,cs),
(8,68,o),
(83,-14,o),
(189,-14,cs),
(276,-14,o),
(373,50,o),
(437,236,cs),
(439,242,o),
(440,247,o),
(440,253,cs),
(440,282,o),
(412,301,o),
(386,301,cs),
(368,301,o),
(350,292,o),
(343,271,cs)
);
},
{
closed = 1;
nodes = (
(217,616,o),
(224,609,o),
(224,590,cs),
(224,552,o),
(194,464,o),
(147,379,c),
(156,510,o),
(182,616,o),
(208,616,cs)
);
}
);
width = 354;
}
);
leftKerningGroup = l;
rightKerningGroup = A;
unicode = 108;
},
{
glyphname = m;
layers = (
{
hints = (
{
horizontal = 1;
place = (-11,123);
type = Stem;
},
{
horizontal = 1;
place = (-13,21);
target = up;
type = BottomGhost;
},
{
horizontal = 1;
place = (-11,21);
target = up;
type = BottomGhost;
},
{
horizontal = 1;
place = (-10,21);
target = up;
type = BottomGhost;
},
{
horizontal = 1;
place = (288,121);
type = Stem;
},
{
horizontal = 1;
place = (311,123);
type = Stem;
},
{
horizontal = 1;
place = (434,-20);
target = down;
type = TopGhost;
},
{
horizontal = 1;
place = (440,-20);
target = down;
type = TopGhost;
},
{
place = (5,135);
type = Stem;
},
{
place = (20,135);
type = Stem;
},
{
place = (226,138);
type = Stem;
},
{
place = (446,136);
type = Stem;
},
{
place = (463,135);
type = Stem;
}
);
layerId = "2CBAB59C-6D1F-481C-8D47-CA6A7671DE0F";
shapes = (
{
closed = 1;
nodes = (
(646,173,o),
(621,112,o),
(598,112,cs),
(589,112,o),
(582,119,o),
(582,135,cs),
(582,186,o),
(598,282,o),
(598,325,cs),
(598,390,o),
(554,434,o),
(481,434,cs),
(428,434,o),
(389,408,o),
(358,353,c),
(339,386,o),
(302,409,o),
(262,409,cs),
(215,409,o),
(180,385,o),
(151,337,c),
(153,363,o),
(155,378,o),
(155,381,cs),
(155,420,o),
(121,440,o),
(88,440,cs),
(56,440,o),
(23,422,o),
(20,387,cs),
(13,311,o),
(5,200,o),
(5,50,cs),
(5,8,o),
(39,-13,o),
(73,-13,cs),
(106,-13,o),
(140,8,o),
(140,50,cs),
(140,94,l),
(144,214,o),
(184,288,o),
(230,288,cs),
(242,288,o),
(248,282,o),
(248,268,cs),
(248,241,o),
(226,176,o),
(226,109,cs),
(226,15,o),
(247,-10,o),
(302,-10,cs),
(338,-10,o),
(364,4,o),
(364,43,cs),
(364,61,o),
(360,103,o),
(360,113,cs),
(360,129,o),
(360,144,o),
(361,158,cs),
(368,254,o),
(399,311,o),
(440,311,cs),
(455,311,o),
(463,303,o),
(463,285,cs),
(463,259,o),
(446,185,o),
(446,126,cs),
(446,34,o),
(492,-11,o),
(573,-11,cs),
(644,-11,o),
(708,46,o),
(775,236,cs),
(777,242,o),
(778,249,o),
(778,255,cs),
(778,284,o),
(752,304,o),
(725,304,cs),
(707,304,o),
(689,294,o),
(681,271,cs)
);
}
);
width = 692;
}
);
leftKerningGroup = m;
rightKerningGroup = A;
unicode = 109;
},
{
glyphname = n;
layers = (
{
anchors = (
{
name = t.uni0302_2;
position = "{239, 410}";
},
{
name = b.uni0326_1_2;
position = "{189, 10}";
}
);
hints = (
{
horizontal = 1;
place = (-11,123);
type = Stem;
},
{
horizontal = 1;
place = (-13,21);
target = up;
type = BottomGhost;
},
{
horizontal = 1;
place = (-11,21);
target = up;
type = BottomGhost;
},
{
horizontal = 1;
place = (311,123);
type = Stem;
},
{
horizontal = 1;
place = (434,-20);
target = down;
type = TopGhost;
},
{
horizontal = 1;
place = (440,-20);
target = down;
type = TopGhost;
},
{
place = (5,135);
type = Stem;
},
{
place = (20,135);
type = Stem;
},
{
place = (226,136);
type = Stem;
},
{
place = (243,135);
type = Stem;
}
);
layerId = "2CBAB59C-6D1F-481C-8D47-CA6A7671DE0F";
shapes = (
{
closed = 1;
nodes = (
(423,173,o),
(394,112,o),
(375,112,cs),
(367,112,o),
(362,119,o),
(362,135,cs),
(362,186,o),
(378,282,o),
(378,325,cs),
(378,390,o),
(334,434,o),
(265,434,cs),
(221,434,o),
(184,412,o),
(154,365,c),
(154,374,o),
(155,379,o),
(155,381,cs),
(155,420,o),
(121,440,o),
(88,440,cs),
(56,440,o),
(23,422,o),
(20,387,cs),
(13,311,o),
(5,200,o),
(5,50,cs),
(5,8,o),
(39,-13,o),
(73,-13,cs),
(106,-13,o),
(140,8,o),
(140,50,cs),
(140,91,o),
(141,128,o),
(141,161,c),
(149,256,o),
(180,311,o),
(220,311,cs),
(235,311,o),
(243,303,o),
(243,285,cs),
(243,259,o),
(226,185,o),
(226,115,cs),
(226,34,o),
(272,-11,o),
(350,-11,cs),
(427,-11,o),
(489,49,o),
(552,236,cs),
(554,241,o),
(554,246,o),
(554,251,cs),
(554,279,o),
(526,299,o),
(499,299,cs),
(482,299,o),
(465,291,o),
(458,271,cs)
);
}
);
width = 469;
}
);
leftKerningGroup = m;
rightKerningGroup = A;
unicode = 110;
},
{
glyphname = o;
layers = (
{
anchors = (
{
name = t.uni0302_2;
position = "{233, 410}";
},
{
name = b.uni0326_1_2;
position = "{180, 10}";
}
);
hints = (
{
horizontal = 1;
place = (-13,123);
type = Stem;
},
{
horizontal = 1;
place = (321,123);
type = Stem;
},
{
place = (0,134);
type = Stem;
},
{
place = (238,172);
type = Stem;
}
);
layerId = "2CBAB59C-6D1F-481C-8D47-CA6A7671DE0F";
shapes = (
{
closed = 1;
nodes = (
(455,233,o),
(432,210,o),
(408,202,c),
(409,214,o),
(410,227,o),
(410,239,cs),
(410,345,o),
(351,444,o),
(225,444,cs),
(79,444,o),
(0,314,o),
(0,192,cs),
(0,86,o),
(60,-13,o),
(186,-13,cs),
(272,-13,o),
(334,33,o),
(371,95,c),
(376,95,o),
(381,94,o),
(387,94,cs),
(455,94,o),
(530,137,o),
(563,236,cs),
(565,242,o),
(566,248,o),
(566,254,cs),
(566,283,o),
(539,304,o),
(513,304,cs),
(495,304,o),
(477,295,o),
(469,271,cs)
);
},
{
closed = 1;
nodes = (
(155,110,o),
(134,151,o),
(134,197,cs),
(134,255,o),
(167,321,o),
(227,321,cs),
(237,321,o),
(246,319,o),
(253,314,c),
(244,299,o),
(238,276,o),
(238,244,cs),
(238,208,o),
(248,178,o),
(265,155,c),
(250,129,o),
(228,110,o),
(199,110,cs)
);
}
);
width = 480;
}
);
leftKerningGroup = c;
rightKerningGroup = A;
unicode = 111;
},
{
glyphname = p;
layers = (
{
hints = (
{
horizontal = 1;
place = (-263,21);
target = up;
type = BottomGhost;
},
{
horizontal = 1;
place = (-12,146);
type = Stem;
},
{
horizontal = 1;
place = (-12,21);
target = up;
type = BottomGhost;
},
{
horizontal = 1;
place = (316,123);
type = Stem;
},
{
place = (11,132);
type = Stem;
},
{
place = (281,135);
type = Stem;
}
);
layerId = "2CBAB59C-6D1F-481C-8D47-CA6A7671DE0F";
shapes = (
{
closed = 1;
nodes = (
(463,221,o),
(436,188,o),
(397,166,c),
(409,200,o),
(416,235,o),
(416,271,cs),
(416,373,o),
(350,439,o),
(265,439,cs),
(213,439,o),
(168,409,o),
(135,362,c),
(133,375,o),
(131,387,o),
(128,398,cs),
(121,426,o),
(94,440,o),
(66,440,cs),
(32,440,o),
(-3,420,o),
(-3,381,cs),
(-3,353,o),
(11,279,o),
(11,199,cs),
(11,17,o),
(-25,-187,o),
(-25,-205,cs),
(-25,-242,o),
(10,-263,o),
(44,-263,cs),
(75,-263,o),
(105,-246,o),
(110,-211,cs),
(122,-129,o),
(131,-54,o),
(137,15,c),
(150,-1,o),
(172,-12,o),
(203,-12,cs),
(234,-12,o),
(265,1,o),
(294,23,c),
(425,41,o),
(529,101,o),
(575,236,cs),
(577,241,o),
(577,246,o),
(577,251,cs),
(577,279,o),
(549,299,o),
(522,299,cs),
(505,299,o),
(488,291,o),
(481,271,cs)
);
},
{
closed = 1;
nodes = (
(145,133,o),
(145,155,o),
(146,177,c),
(153,268,o),
(207,316,o),
(240,316,cs),
(267,316,o),
(281,298,o),
(281,263,cs),
(281,215,o),
(258,164,o),
(233,134,c),
(208,134,ls),
(180,134,o),
(158,124,o),
(143,109,c)
);
}
);
width = 492;
}
);
leftKerningGroup = p;
rightKerningGroup = A;
unicode = 112;
},
{
glyphname = q;
layers = (
{
hints = (
{
horizontal = 1;
place = (-259,125);
type = Stem;
},
{
horizontal = 1;
place = (-259,21);
target = up;
type = BottomGhost;
},
{
horizontal = 1;
place = (4,120);
type = Stem;
},
{
horizontal = 1;
place = (320,119);
type = Stem;
},
{
place = (-5,133);
type = Stem;
},
{
place = (195,134);
type = Stem;
},
{
place = (265,134);
type = Stem;
},
{
place = (365,121);
type = Stem;
}
);
layerId = "2CBAB59C-6D1F-481C-8D47-CA6A7671DE0F";
shapes = (
{
closed = 1;
nodes = (
(418,-259,o),
(486,-194,o),
(486,-102,cs),
(486,-38,o),
(478,-8,o),
(450,57,c),
(507,88,o),
(561,163,o),
(586,236,cs),
(588,242,o),
(589,248,o),
(589,254,cs),
(589,283,o),
(563,303,o),
(537,303,cs),
(519,303,o),
(501,294,o),
(492,271,cs),
(465,204,o),
(428,161,o),
(363,126,c),
(380,201,o),
(399,270,o),
(399,318,cs),
(399,388,o),
(317,435,o),
(230,439,c),
(221,439,ls),
(75,439,o),
(-5,299,o),
(-5,178,cs),
(-5,86,o),
(42,4,o),
(143,4,cs),
(167,4,o),
(189,11,o),
(211,22,c),
(202,-24,o),
(195,-78,o),
(195,-126,cs),
(195,-202,o),
(249,-259,o),
(342,-259,cs)
);
},
{
closed = 1;
nodes = (
(143,124,o),
(128,152,o),
(128,187,cs),
(128,245,o),
(166,320,o),
(224,320,cs),
(244,320,o),
(260,312,o),
(265,304,c),
(258,217,o),
(241,124,o),
(179,124,cs)
);
},
{
closed = 1;
nodes = (
(336,-134,o),
(329,-127,o),
(329,-111,cs),
(329,-60,o),
(336,-7,o),
(346,46,c),
(355,18,o),
(365,-23,o),
(365,-86,cs),
(365,-123,o),
(354,-134,o),
(344,-134,cs)
);
}
);
width = 503;
}
);
leftKerningGroup = a;
rightKerningGroup = A;
unicode = 113;
},
{
glyphname = r;
layers = (
{
anchors = (
{
name = t.uni0302_2;
position = "{205, 410}";
},
{
name = b.uni0326_1_2;
position = "{256, 10}";
}
);
hints = (
{
horizontal = 1;
place = (-15,125);
type = Stem;
},
{
horizontal = 1;
place = (430,-20);
target = down;
type = TopGhost;
},
{
place = (97,139);
type = Stem;
}
);
layerId = "2CBAB59C-6D1F-481C-8D47-CA6A7671DE0F";
shapes = (
{
closed = 1;
nodes = (
(375,190,o),
(323,110,o),
(274,110,cs),
(250,110,o),
(236,123,o),
(236,148,cs),
(236,212,o),
(338,307,o),
(338,368,cs),
(338,404,o),
(311,430,o),
(282,430,cs),
(252,430,o),
(232,420,o),
(204,420,cs),
(157,420,o),
(131,451,o),
(114,467,cs),
(100,481,o),
(85,488,o),
(66,488,cs),
(27,488,o),
(0,461,o),
(0,419,cs),
(0,397,o),
(8,380,o),
(20,365,c),
(13,337,o),
(1,303,o),
(-11,271,cs),
(-14,263,o),
(-15,255,o),
(-15,248,cs),
(-15,218,o),
(9,198,o),
(34,198,cs),
(54,198,o),
(73,209,o),
(83,236,cs),
(96,272,o),
(104,298,o),
(111,318,c),
(132,309,o),
(155,304,o),
(178,303,c),
(131,252,o),
(97,191,o),
(97,126,cs),
(97,45,o),
(159,-15,o),
(254,-15,cs),
(353,-15,o),
(436,52,o),
(498,236,cs),
(500,241,o),
(501,246,o),
(501,251,cs),
(501,280,o),
(473,303,o),
(446,303,cs),
(429,303,o),
(412,294,o),
(404,271,cs)
);
}
);
width = 415;
}
);
leftKerningGroup = r;
rightKerningGroup = A;
unicode = 114;
},
{
glyphname = s;
layers = (
{
anchors = (
{
name = t.uni0302_2;
position = "{125, 460}";
},
{
name = b.uni0326_1_2;
position = "{134, 10}";
}
);
hints = (
{
horizontal = 1;
place = (-14,125);
type = Stem;
},
{
horizontal = 1;
place = (-14,137);
type = Stem;
},
{
horizontal = 1;
place = (-14,21);
target = up;
type = BottomGhost;
},
{
place = (-15,463);
type = Stem;
},
{
place = (28,168);
type = Stem;
}
);
layerId = "2CBAB59C-6D1F-481C-8D47-CA6A7671DE0F";
shapes = (
{
closed = 1;
nodes = (
(336,231,o),
(317,196,o),
(292,170,c),
(275,279,o),
(183,339,o),
(183,376,cs),
(183,391,o),
(196,404,o),
(196,431,cs),
(196,468,o),
(156,488,o),
(119,488,cs),
(76,488,o),
(28,459,o),
(28,397,cs),
(28,390,l),
(13,341,o),
(3,310,o),
(-11,271,cs),
(-14,263,o),
(-15,256,o),
(-15,249,cs),
(-15,219,o),
(10,200,o),
(35,200,cs),
(54,200,o),
(74,211,o),
(83,236,cs),
(87,246,o),
(91,258,o),
(95,271,c),
(130,226,o),
(165,181,o),
(165,138,cs),
(165,126,o),
(162,117,o),
(156,111,c),
(152,111,ls),
(126,111,o),
(104,123,o),
(81,123,cs),
(48,123,o),
(27,94,o),
(27,63,cs),
(27,42,o),
(37,20,o),
(60,5,cs),
(82,-9,o),
(109,-14,o),
(137,-14,cs),
(180,-14,o),
(219,0,o),
(248,26,c),
(339,58,o),
(407,128,o),
(445,236,cs),
(447,243,o),
(448,249,o),
(448,255,cs),
(448,285,o),
(422,304,o),
(396,304,cs),
(378,304,o),
(360,294,o),
(351,271,cs)
);
}
);
width = 362;
}
);
leftKerningGroup = r;
rightKerningGroup = A;
unicode = 115;
},
{
glyphname = t;
layers = (
{
anchors = (
{
name = b.uni0326_1_2;
position = "{158, 10}";
}
);
hints = (
{
horizontal = 1;
place = (-14,123);
type = Stem;
},
{
horizontal = 1;
place = (390,122);
type = Stem;
},
{
place = (5,135);
type = Stem;
},
{
place = (58,135);
type = Stem;
}
);
layerId = "2CBAB59C-6D1F-481C-8D47-CA6A7671DE0F";
shapes = (
{
closed = 1;
nodes = (
(263,168,o),
(214,109,o),
(180,109,cs),
(157,109,o),
(140,126,o),
(140,187,cs),
(140,222,o),
(147,269,o),
(159,345,cs),
(167,396,l),
(193,393,o),
(214,390,o),
(228,390,cs),
(263,390,o),
(283,419,o),
(283,448,cs),
(283,473,o),
(267,499,o),
(231,505,cs),
(216,507,o),
(199,510,o),
(182,512,c),
(188,563,o),
(193,608,o),
(193,628,cs),
(193,666,o),
(159,687,o),
(126,687,cs),
(93,687,o),
(60,667,o),
(58,626,cs),
(57,600,o),
(53,563,o),
(47,522,c),
(46,522,l),
(5,522,o),
(-15,493,o),
(-15,464,cs),
(-15,438,o),
(1,413,o),
(32,407,c),
(29,392,o),
(27,377,o),
(25,363,cs),
(14,293,o),
(5,222,o),
(5,176,cs),
(5,55,o),
(69,-14,o),
(158,-14,cs),
(249,-14,o),
(329,52,o),
(394,237,cs),
(396,243,o),
(397,249,o),
(397,254,cs),
(397,283,o),
(370,303,o),
(344,303,cs),
(326,303,o),
(308,294,o),
(300,271,cs)
);
}
);
width = 311;
}
);
leftKerningGroup = t;
rightKerningGroup = A;
unicode = 116;
},
{
glyphname = u;
layers = (
{
anchors = (
{
name = t.uni0302_2;
position = "{188, 409}";
}
);
hints = (
{
horizontal = 1;
place = (-10,124);
type = Stem;
},
{
horizontal = 1;
place = (-10,21);
target = up;
type = BottomGhost;
},
{
place = (-5,137);
type = Stem;
},
{
place = (18,136);
type = Stem;
},
{
place = (247,137);
type = Stem;
}
);
layerId = "2CBAB59C-6D1F-481C-8D47-CA6A7671DE0F";
shapes = (
{
closed = 1;
nodes = (
(440,183,o),
(409,114,o),
(388,114,cs),
(377,114,o),
(368,123,o),
(368,165,cs),
(368,252,o),
(376,299,o),
(384,375,cs),
(389,420,o),
(354,443,o),
(319,443,cs),
(288,443,o),
(257,425,o),
(253,387,cs),
(241,280,l),
(227,178,o),
(195,115,o),
(159,115,cs),
(142,115,o),
(132,126,o),
(132,160,cs),
(132,207,o),
(154,300,o),
(154,355,cs),
(154,410,o),
(112,451,o),
(59,451,cs),
(18,451,o),
(-9,426,o),
(-9,394,cs),
(-9,355,o),
(18,350,o),
(18,329,cs),
(18,299,o),
(-5,203,o),
(-5,120,cs),
(-5,47,o),
(51,-10,o),
(126,-10,cs),
(180,-10,o),
(223,22,o),
(254,82,c),
(275,22,o),
(313,-10,o),
(372,-10,cs),
(440,-10,o),
(503,53,o),
(566,236,cs),
(568,242,o),
(569,248,o),
(569,253,cs),
(569,283,o),
(542,303,o),
(516,303,cs),
(498,303,o),
(480,293,o),
(472,271,cs)
);
}
);
width = 483;
}
);
leftKerningGroup = u;
rightKerningGroup = A;
unicode = 117;
},
{
glyphname = v;
layers = (
{
hints = (
{
horizontal = 1;
place = (-14,124);
type = Stem;
},
{
horizontal = 1;
place = (119,102);
type = Stem;
},
{
place = (0,135);
type = Stem;
},
{
place = (18,135);
type = Stem;
},
{
place = (215,168);
type = Stem;
}
);
layerId = "2CBAB59C-6D1F-481C-8D47-CA6A7671DE0F";
shapes = (
{
closed = 1;
nodes = (
(425,236,o),
(403,221,o),
(382,221,cs),
(378,221,o),
(374,222,o),
(370,223,c),
(378,255,o),
(383,289,o),
(383,324,cs),
(383,407,o),
(342,445,o),
(299,445,cs),
(256,445,o),
(215,404,o),
(215,310,cs),
(215,276,o),
(222,246,o),
(234,220,c),
(212,147,o),
(169,110,o),
(153,110,cs),
(141,110,o),
(135,118,o),
(135,147,cs),
(135,220,o),
(153,273,o),
(153,379,cs),
(153,422,o),
(121,442,o),
(88,442,cs),
(53,442,o),
(18,420,o),
(18,377,cs),
(18,270,o),
(0,229,o),
(0,139,cs),
(0,36,o),
(41,-14,o),
(128,-14,cs),
(205,-14,o),
(282,42,o),
(332,128,c),
(348,122,o),
(366,119,o),
(384,119,cs),
(445,119,o),
(504,155,o),
(532,236,cs),
(534,242,o),
(535,249,o),
(535,254,cs),
(535,283,o),
(509,302,o),
(482,302,cs),
(464,302,o),
(446,293,o),
(438,271,cs)
);
}
);
width = 449;
}
);
leftKerningGroup = v;
rightKerningGroup = A;
unicode = 118;
},
{
glyphname = w;
layers = (
{
anchors = (
{
name = t.uni0302_2;
position = "{303, 410}";
}
);
hints = (
{
horizontal = 1;
place = (-21,124);
type = Stem;
},
{
horizontal = 1;
place = (-10,124);
type = Stem;
},
{
horizontal = 1;
place = (-10,21);
target = up;
type = BottomGhost;
},
{
horizontal = 1;
place = (119,100);
type = Stem;
},
{
place = (-3,136);
type = Stem;
},
{
place = (20,136);
type = Stem;
},
{
place = (235,130);
type = Stem;
},
{
place = (427,166);
type = Stem;
}
);
layerId = "2CBAB59C-6D1F-481C-8D47-CA6A7671DE0F";
shapes = (
{
closed = 1;
nodes = (
(634,236,o),
(613,219,o),
(593,219,cs),
(588,219,o),
(583,220,o),
(579,222,c),
(588,253,o),
(593,287,o),
(593,321,cs),
(593,405,o),
(557,444,o),
(513,444,cs),
(470,444,o),
(427,401,o),
(427,321,cs),
(427,284,o),
(435,251,o),
(448,223,c),
(431,162,o),
(397,114,o),
(366,114,cs),
(355,114,o),
(347,122,o),
(347,144,cs),
(347,185,o),
(365,245,o),
(365,342,cs),
(365,381,o),
(342,407,o),
(302,407,cs),
(260,407,o),
(235,378,o),
(235,340,cs),
(235,294,o),
(231,261,o),
(228,232,c),
(216,158,o),
(192,103,o),
(158,103,cs),
(144,103,o),
(133,114,o),
(133,151,cs),
(133,220,o),
(156,299,o),
(156,369,cs),
(156,419,o),
(123,444,o),
(89,444,cs),
(55,444,o),
(20,418,o),
(20,369,cs),
(20,302,o),
(-3,192,o),
(-3,139,cs),
(-3,39,o),
(44,-21,o),
(129,-21,cs),
(168,-21,o),
(211,6,o),
(247,48,c),
(271,13,o),
(309,-10,o),
(350,-10,cs),
(416,-10,o),
(491,47,o),
(540,131,c),
(559,123,o),
(579,119,o),
(599,119,cs),
(657,119,o),
(714,155,o),
(742,236,cs),
(744,242,o),
(745,247,o),
(745,253,cs),
(745,281,o),
(717,299,o),
(691,299,cs),
(673,299,o),
(655,291,o),
(648,271,c)
);
}
);
width = 659;
}
);
leftKerningGroup = v;
rightKerningGroup = A;
unicode = 119;
},
{
glyphname = x;
layers = (
{
hints = (
{
horizontal = 1;
place = (-16,125);
type = Stem;
},
{
horizontal = 1;
place = (315,124);
type = Stem;
},
{
horizontal = 1;
place = (436,-20);
target = down;
type = TopGhost;
},
{
horizontal = 1;
place = (439,-20);
target = down;
type = TopGhost;
},
{
place = (-15,589);
type = Stem;
}
);
layerId = "2CBAB59C-6D1F-481C-8D47-CA6A7671DE0F";
shapes = (
{
closed = 1;
nodes = (
(447,186,o),
(400,109,o),
(378,109,cs),
(363,109,o),
(346,133,o),
(332,171,c),
(329,180,l),
(364,227,o),
(397,278,o),
(421,328,cs),
(428,343,o),
(432,357,o),
(432,371,cs),
(432,410,o),
(402,436,o),
(370,436,cs),
(347,436,o),
(324,423,o),
(309,394,cs),
(298,371,o),
(286,349,o),
(272,327,c),
(272,329,o),
(271,331,o),
(270,333,cs),
(241,409,o),
(195,439,o),
(138,439,cs),
(83,439,o),
(41,410,o),
(19,351,cs),
(-11,271,ls),
(-14,264,o),
(-15,257,o),
(-15,251,cs),
(-15,221,o),
(11,200,o),
(37,200,cs),
(56,200,o),
(74,211,o),
(83,236,cs),
(100,283,ls),
(105,296,o),
(113,315,o),
(124,315,cs),
(140,315,o),
(151,284,o),
(168,240,cs),
(172,231,o),
(175,222,o),
(179,212,c),
(145,169,o),
(110,130,o),
(79,97,cs),
(64,82,o),
(57,62,o),
(57,43,cs),
(57,5,o),
(85,-20,o),
(118,-20,cs),
(142,-20,o),
(160,-8,o),
(177,11,cs),
(195,31,o),
(214,53,o),
(234,76,c),
(262,16,o),
(306,-16,o),
(362,-16,cs),
(437,-16,o),
(505,49,o),
(571,237,cs),
(573,242,o),
(574,248,o),
(574,252,cs),
(574,280,o),
(545,299,o),
(518,299,cs),
(501,299,o),
(484,290,o),
(477,271,cs)
);
}
);
width = 488;
}
);
leftKerningGroup = r;
rightKerningGroup = A;
unicode = 120;
},
{
glyphname = y;
layers = (
{
anchors = (
{
name = t.uni0302_2;
position = "{196, 410}";
}
);
hints = (
{
horizontal = 1;
place = (-264,113);
type = Stem;
},
{
horizontal = 1;
place = (10,124);
type = Stem;
},
{
horizontal = 1;
place = (439,-20);
target = down;
type = TopGhost;
},
{
place = (-4,136);
type = Stem;
},
{
place = (20,137);
type = Stem;
},
{
place = (51,123);
type = Stem;
},
{
place = (233,137);
type = Stem;
},
{
place = (259,134);
type = Stem;
}
);
layerId = "2CBAB59C-6D1F-481C-8D47-CA6A7671DE0F";
shapes = (
{
closed = 1;
nodes = (
(448,212,o),
(414,149,o),
(371,99,c),
(377,184,o),
(385,289,o),
(393,373,cs),
(397,417,o),
(366,439,o),
(330,439,cs),
(291,439,o),
(262,421,o),
(259,384,cs),
(257,357,o),
(255,328,o),
(252,297,cs),
(240,193,o),
(210,134,o),
(166,134,cs),
(143,134,o),
(132,145,o),
(132,173,cs),
(132,221,o),
(157,298,o),
(157,359,cs),
(157,411,o),
(116,455,o),
(55,455,cs),
(16,455,o),
(-9,433,o),
(-9,401,cs),
(-9,367,o),
(20,361,o),
(20,340,cs),
(20,310,o),
(-4,216,o),
(-4,137,cs),
(-4,61,o),
(53,10,o),
(125,10,cs),
(166,10,o),
(202,27,o),
(235,59,c),
(232,20,l),
(140,-23,o),
(51,-62,o),
(51,-157,cs),
(51,-219,o),
(97,-264,o),
(182,-264,cs),
(279,-264,o),
(349,-195,o),
(361,-47,c),
(361,-45,o),
(361,-43,o),
(362,-40,c),
(457,27,o),
(522,121,o),
(562,236,cs),
(564,243,o),
(565,249,o),
(565,255,cs),
(565,285,o),
(539,304,o),
(513,304,cs),
(494,304,o),
(476,294,o),
(468,271,cs)
);
},
{
closed = 1;
nodes = (
(179,-151,o),
(174,-146,o),
(174,-137,cs),
(174,-125,o),
(192,-113,o),
(220,-98,c),
(213,-135,o),
(203,-151,o),
(190,-151,cs)
);
}
);
width = 479;
}
);
leftKerningGroup = u;
rightKerningGroup = A;
unicode = 121;
},
{
glyphname = z;
layers = (
{
anchors = (
{
name = t.uni0302_2;
position = "{207, 410}";
}
);
hints = (
{
horizontal = 1;
place = (-22,124);
type = Stem;
},
{
horizontal = 1;
place = (-15,21);
target = up;
type = BottomGhost;
},
{
horizontal = 1;
place = (-6,21);
target = up;
type = BottomGhost;
},
{
horizontal = 1;
place = (287,117);
type = Stem;
},
{
place = (-15,518);
type = Stem;
}
);
layerId = "2CBAB59C-6D1F-481C-8D47-CA6A7671DE0F";
shapes = (
{
closed = 1;
nodes = (
(369,167,o),
(334,102,o),
(306,102,cs),
(290,102,o),
(268,109,o),
(231,111,c),
(292,168,o),
(348,252,o),
(363,321,cs),
(366,334,o),
(367,344,o),
(367,356,cs),
(367,390,o),
(344,413,o),
(316,413,cs),
(288,413,o),
(272,404,o),
(242,404,cs),
(203,404,o),
(165,425,o),
(146,448,cs),
(123,475,o),
(109,487,o),
(84,487,cs),
(43,487,o),
(17,457,o),
(17,419,cs),
(17,399,o),
(21,384,o),
(26,375,c),
(15,341,o),
(5,313,o),
(-11,271,cs),
(-14,263,o),
(-15,256,o),
(-15,249,cs),
(-15,219,o),
(10,199,o),
(36,199,cs),
(54,199,o),
(73,210,o),
(83,236,cs),
(94,266,o),
(100,285,o),
(110,318,c),
(139,302,o),
(178,291,o),
(216,287,c),
(176,225,o),
(102,139,o),
(61,101,cs),
(42,84,o),
(32,62,o),
(32,42,cs),
(32,12,o),
(55,-15,o),
(96,-15,cs),
(109,-15,o),
(147,-6,o),
(176,-6,cs),
(220,-6,o),
(247,-22,o),
(293,-22,cs),
(375,-22,o),
(437,54,o),
(501,236,cs),
(503,241,o),
(503,246,o),
(503,250,cs),
(503,278,o),
(475,298,o),
(448,298,cs),
(430,298,o),
(414,290,o),
(407,271,cs)
);
}
);
width = 418;
}
);
leftKerningGroup = r;
rightKerningGroup = A;
unicode = 122;
},
{
glyphname = braceleft;
layers = (
{
hints = (
{
horizontal = 1;
place = (-23,117);
type = Stem;
},
{
horizontal = 1;
place = (-23,744);
type = Stem;
},
{
horizontal = 1;
place = (606,115);
type = Stem;
},
{
place = (126,132);
type = Stem;
},
{
place = (130,123);
type = Stem;
}
);
layerId = "2CBAB59C-6D1F-481C-8D47-CA6A7671DE0F";
shapes = (
{
closed = 1;
nodes = (
(282,98,o),
(274,94,o),
(269,94,cs),
(257,94,o),
(250,109,o),
(250,137,cs),
(250,152,o),
(258,251,o),
(258,271,cs),
(258,301,o),
(238,329,o),
(218,350,c),
(235,365,o),
(253,389,o),
(253,431,cs),
(253,448,o),
(248,565,o),
(248,567,cs),
(248,594,o),
(255,606,o),
(267,606,cs),
(273,606,o),
(282,603,o),
(291,597,cs),
(305,588,o),
(318,584,o),
(329,584,cs),
(360,584,o),
(382,610,o),
(382,639,cs),
(382,659,o),
(373,679,o),
(349,695,cs),
(323,712,o),
(291,721,o),
(264,721,cs),
(178,721,o),
(124,659,o),
(124,561,cs),
(124,542,o),
(130,477,o),
(130,445,cs),
(130,420,o),
(126,417,o),
(114,411,cs),
(72,390,o),
(60,377,o),
(60,352,cs),
(60,326,o),
(73,310,o),
(115,293,cs),
(126,289,o),
(135,282,o),
(135,265,cs),
(135,240,o),
(126,170,o),
(126,137,cs),
(126,34,o),
(174,-23,o),
(265,-23,cs),
(295,-23,o),
(326,-13,o),
(349,6,cs),
(370,24,o),
(379,45,o),
(379,64,cs),
(379,93,o),
(358,117,o),
(329,117,cs),
(317,117,o),
(303,113,o),
(289,103,cs)
);
}
);
width = 422;
}
);
unicode = 123;
},
{
glyphname = bar;
layers = (
{
hints = (
{
horizontal = 1;
place = (-275,1003);
type = Stem;
},
{
place = (50,136);
type = Stem;
},
{
place = (66,135);
type = Stem;
}
);
layerId = "2CBAB59C-6D1F-481C-8D47-CA6A7671DE0F";
shapes = (
{
closed = 1;
nodes = (
(54,-253,o),
(89,-275,o),
(123,-275,cs),
(156,-275,o),
(188,-255,o),
(189,-215,cs),
(192,-73,o),
(201,101,o),
(201,283,cs),
(201,414,o),
(197,550,o),
(186,667,cs),
(182,708,o),
(149,728,o),
(117,728,cs),
(83,728,o),
(50,707,o),
(50,666,cs),
(50,632,o),
(66,531,o),
(66,294,cs),
(66,112,o),
(54,-130,o),
(54,-211,cs)
);
}
);
width = 251;
}
);
unicode = 124;
},
{
glyphname = braceright;
layers = (
{
hints = (
{
horizontal = 1;
place = (-23,115);
type = Stem;
},
{
horizontal = 1;
place = (-23,744);
type = Stem;
},
{
horizontal = 1;
place = (604,117);
type = Stem;
},
{
place = (164,132);
type = Stem;
},
{
place = (169,123);
type = Stem;
}
);
layerId = "2CBAB59C-6D1F-481C-8D47-CA6A7671DE0F";
shapes = (
{
closed = 1;
nodes = (
(296,409,o),
(287,416,o),
(287,433,cs),
(287,458,o),
(296,528,o),
(296,561,cs),
(296,664,o),
(248,721,o),
(157,721,cs),
(127,721,o),
(96,711,o),
(73,692,cs),
(52,674,o),
(43,653,o),
(43,634,cs),
(43,605,o),
(64,581,o),
(93,581,cs),
(105,581,o),
(119,585,o),
(133,595,cs),
(140,600,o),
(148,604,o),
(153,604,cs),
(165,604,o),
(172,589,o),
(172,561,cs),
(172,546,o),
(164,447,o),
(164,427,cs),
(164,397,o),
(184,369,o),
(204,348,c),
(187,333,o),
(169,309,o),
(169,267,cs),
(169,250,o),
(174,133,o),
(174,131,cs),
(174,104,o),
(167,92,o),
(155,92,cs),
(149,92,o),
(140,95,o),
(131,101,cs),
(117,110,o),
(104,114,o),
(93,114,cs),
(62,114,o),
(40,88,o),
(40,59,cs),
(40,39,o),
(49,19,o),
(73,3,cs),
(99,-14,o),
(131,-23,o),
(158,-23,cs),
(244,-23,o),
(298,39,o),
(298,137,cs),
(298,156,o),
(292,221,o),
(292,253,cs),
(292,278,o),
(296,281,o),
(308,287,cs),
(350,308,o),
(362,321,o),
(362,346,cs),
(362,372,o),
(349,388,o),
(307,405,cs)
);
}
);
width = 422;
}
);
unicode = 125;
},
{
glyphname = asciitilde;
layers = (
{
hints = (
{
horizontal = 1;
place = (263,121);
type = Stem;
},
{
horizontal = 1;
place = (263,159);
type = Stem;
},
{
horizontal = 1;
place = (297,122);
type = Stem;
},
{
place = (30,350);
type = Stem;
}
);
layerId = "2CBAB59C-6D1F-481C-8D47-CA6A7671DE0F";
shapes = (
{
closed = 1;
nodes = (
(306,263,o),
(342,287,o),
(367,328,cs),
(376,343,o),
(380,355,o),
(380,367,cs),
(380,397,o),
(354,422,o),
(322,422,cs),
(305,422,o),
(289,414,o),
(276,400,cs),
(264,387,o),
(260,384,o),
(254,384,cs),
(233,384,o),
(179,419,o),
(142,419,cs),
(108,419,o),
(73,399,o),
(45,365,cs),
(35,353,o),
(30,339,o),
(30,325,cs),
(30,293,o),
(58,265,o),
(89,265,cs),
(103,265,o),
(116,271,o),
(126,280,cs),
(140,293,o),
(147,297,o),
(155,297,cs),
(167,297,o),
(231,263,o),
(267,263,cs)
);
}
);
width = 410;
}
);
unicode = 126;
},
{
glyphname = exclamdown;
layers = (
{
hints = (
{
horizontal = 1;
place = (-254,21);
target = up;
type = BottomGhost;
},
{
horizontal = 1;
place = (373,157);
type = Stem;
},
{
place = (40,157);
type = Stem;
},
{
place = (63,135);
type = Stem;
}
);
layerId = "2CBAB59C-6D1F-481C-8D47-CA6A7671DE0F";
shapes = (
{
closed = 1;
nodes = (
(75,530,o),
(40,495,o),
(40,451,cs),
(40,408,o),
(75,373,o),
(119,373,cs),
(162,373,o),
(197,408,o),
(197,451,cs),
(197,495,o),
(162,530,o),
(119,530,cs)
);
},
{
closed = 1;
nodes = (
(80,347,o),
(52,313,o),
(55,270,cs),
(60,181,o),
(63,88,o),
(63,4,cs),
(63,-63,o),
(61,-124,o),
(57,-171,cs),
(53,-217,o),
(80,-254,o),
(122,-254,cs),
(160,-254,o),
(188,-223,o),
(191,-182,cs),
(195,-129,o),
(198,-56,o),
(198,24,cs),
(198,104,o),
(195,192,o),
(189,278,cs),
(186,318,o),
(159,347,o),
(122,347,cs)
);
}
);
width = 268;
}
);
leftKerningGroup = colon;
unicode = 161;
},
{
glyphname = cent;
layers = (
{
hints = (
{
horizontal = 1;
place = (-16,21);
target = up;
type = BottomGhost;
},
{
place = (20,134);
type = Stem;
},
{
place = (216,110);
type = Stem;
},
{
place = (353,130);
type = Stem;
}
);
layerId = "2CBAB59C-6D1F-481C-8D47-CA6A7671DE0F";
shapes = (
{
closed = 1;
nodes = (
(486,280,o),
(464,269,o),
(450,241,cs),
(413,167,o),
(376,125,o),
(322,109,c),
(325,176,o),
(326,245,o),
(326,311,cs),
(326,343,o),
(325,374,o),
(324,403,c),
(345,397,o),
(353,384,o),
(353,366,cs),
(353,324,o),
(385,303,o),
(417,303,cs),
(450,303,o),
(483,326,o),
(483,371,cs),
(483,453,o),
(417,510,o),
(325,524,c),
(324,539,o),
(322,552,o),
(321,564,cs),
(317,603,o),
(287,622,o),
(258,622,cs),
(226,622,o),
(195,601,o),
(195,561,cs),
(195,554,o),
(197,540,o),
(200,516,c),
(83,478,o),
(20,354,o),
(20,234,cs),
(20,121,o),
(75,13,o),
(195,-16,c),
(194,-30,o),
(194,-41,o),
(194,-53,cs),
(194,-94,o),
(225,-116,o),
(255,-116,cs),
(285,-116,o),
(315,-96,o),
(319,-56,cs),
(320,-44,o),
(322,-31,o),
(323,-18,c),
(426,1,o),
(512,70,o),
(561,191,cs),
(565,202,o),
(567,212,o),
(567,221,cs),
(567,257,o),
(538,280,o),
(508,280,cs)
);
},
{
closed = 1;
nodes = (
(154,291,o),
(176,352,o),
(217,385,c),
(217,368,o),
(217,350,o),
(216,331,cs),
(214,236,o),
(210,167,o),
(208,115,c),
(171,137,o),
(154,184,o),
(154,234,cs)
);
}
);
width = 587;
}
);
unicode = 162;
},
{
glyphname = sterling;
layers = (
{
hints = (
{
horizontal = 1;
place = (-29,125);
type = Stem;
},
{
horizontal = 1;
place = (296,112);
type = Stem;
},
{
horizontal = 1;
place = (605,125);
type = Stem;
},
{
place = (92,135);
type = Stem;
},
{
place = (112,135);
type = Stem;
},
{
place = (359,133);
type = Stem;
}
);
layerId = "2CBAB59C-6D1F-481C-8D47-CA6A7671DE0F";
shapes = (
{
closed = 1;
nodes = (
(396,223,o),
(370,200,o),
(364,163,cs),
(357,121,o),
(340,96,o),
(318,96,cs),
(299,96,o),
(235,117,o),
(222,123,c),
(240,147,o),
(247,179,o),
(247,208,cs),
(247,228,o),
(244,260,o),
(240,296,c),
(257,296,ls),
(298,296,o),
(318,323,o),
(318,351,cs),
(318,379,o),
(297,408,o),
(257,408,cs),
(229,408,l),
(228,426,o),
(227,442,o),
(227,454,cs),
(227,544,o),
(261,605,o),
(310,605,cs),
(339,605,o),
(359,588,o),
(359,564,cs),
(359,545,o),
(347,540,o),
(347,509,cs),
(347,473,o),
(375,445,o),
(411,445,cs),
(439,445,o),
(462,462,o),
(474,489,cs),
(485,513,o),
(492,544,o),
(492,572,cs),
(492,665,o),
(414,730,o),
(305,730,cs),
(177,730,o),
(92,619,o),
(92,454,cs),
(92,440,o),
(93,424,o),
(94,408,c),
(65,402,o),
(50,378,o),
(50,354,cs),
(50,327,o),
(69,299,o),
(105,297,c),
(109,262,o),
(112,230,o),
(112,208,cs),
(112,162,o),
(103,151,o),
(48,117,cs),
(25,103,o),
(12,80,o),
(12,54,cs),
(12,13,o),
(35,-21,o),
(73,-21,cs),
(92,-21,o),
(105,-12,o),
(119,-4,cs),
(129,2,o),
(144,12,o),
(155,12,cs),
(166,12,o),
(186,6,o),
(208,-2,cs),
(241,-14,o),
(282,-29,o),
(328,-29,cs),
(418,-29,o),
(494,54,o),
(494,156,cs),
(494,194,o),
(466,223,o),
(431,223,cs)
);
}
);
width = 506;
}
);
unicode = 163;
},
{
glyphname = currency;
layers = (
{
hints = (
{
horizontal = 1;
place = (28,124);
type = Stem;
},
{
horizontal = 1;
place = (444,124);
type = Stem;
},
{
place = (17,133);
type = Stem;
},
{
place = (336,133);
type = Stem;
}
);
layerId = "2CBAB59C-6D1F-481C-8D47-CA6A7671DE0F";
shapes = (
{
closed = 1;
nodes = (
(422,132,l),
(452,179,o),
(469,239,o),
(469,307,cs),
(469,371,o),
(453,427,o),
(425,471,c),
(441,490,l),
(454,507,o),
(460,524,o),
(460,539,cs),
(460,574,o),
(430,602,o),
(397,602,cs),
(378,602,o),
(357,594,o),
(340,573,cs),
(324,554,l),
(301,563,o),
(275,568,o),
(247,568,cs),
(218,568,o),
(190,562,o),
(165,552,c),
(146,572,l),
(129,591,o),
(109,599,o),
(91,599,cs),
(56,599,o),
(27,570,o),
(27,534,cs),
(27,518,o),
(33,500,o),
(48,483,cs),
(64,465,l),
(34,419,o),
(17,359,o),
(17,292,cs),
(17,228,o),
(33,172,o),
(61,128,c),
(33,91,l),
(21,74,o),
(15,58,o),
(15,43,cs),
(15,7,o),
(45,-20,o),
(79,-20,cs),
(99,-20,o),
(120,-11,o),
(137,12,cs),
(161,43,l),
(185,33,o),
(213,28,o),
(242,28,cs),
(271,28,o),
(298,34,o),
(322,44,c),
(348,9,l),
(364,-14,o),
(385,-24,o),
(405,-24,cs),
(440,-24,o),
(471,5,o),
(471,42,cs),
(471,57,o),
(466,73,o),
(454,89,cs)
);
},
{
closed = 1;
nodes = (
(150,381,o),
(191,444,o),
(247,444,cs),
(301,444,o),
(336,390,o),
(336,305,cs),
(336,216,o),
(296,152,o),
(242,152,cs),
(187,152,o),
(150,206,o),
(150,291,cs)
);
}
);
width = 486;
}
);
unicode = 164;
},
{
glyphname = yen;
layers = (
{
hints = (
{
horizontal = 1;
place = (90,109);
type = Stem;
},
{
horizontal = 1;
place = (218,109);
type = Stem;
},
{
horizontal = 1;
place = (427,-20);
target = down;
type = TopGhost;
},
{
place = (12,452);
type = Stem;
},
{
place = (121,137);
type = Stem;
}
);
layerId = "2CBAB59C-6D1F-481C-8D47-CA6A7671DE0F";
shapes = (
{
closed = 1;
nodes = (
(464,688,o),
(434,718,o),
(398,718,cs),
(371,718,o),
(348,702,o),
(334,672,cs),
(304,609,o),
(254,488,o),
(224,427,c),
(198,488,o),
(169,589,o),
(147,664,cs),
(135,704,o),
(104,723,o),
(75,723,cs),
(43,723,o),
(12,699,o),
(12,655,cs),
(12,606,o),
(75,439,o),
(137,329,c),
(115,329,ls),
(74,329,o),
(53,303,o),
(53,275,cs),
(53,248,o),
(74,220,o),
(115,220,cs),
(141,220,l),
(138,201,l),
(110,201,ls),
(69,201,o),
(48,175,o),
(48,147,cs),
(48,120,o),
(69,92,o),
(110,92,cs),
(125,92,l),
(122,72,o),
(121,57,o),
(121,51,cs),
(121,6,o),
(154,-18,o),
(188,-18,cs),
(219,-18,o),
(251,2,o),
(256,46,cs),
(261,90,l),
(301,90,ls),
(342,90,o),
(362,117,o),
(362,144,cs),
(362,171,o),
(342,199,o),
(302,199,cs),
(275,199,l),
(277,218,l),
(323,218,ls),
(363,218,o),
(383,244,o),
(383,271,cs),
(383,299,o),
(363,327,o),
(324,327,cs),
(305,327,l),
(360,430,o),
(436,577,o),
(453,609,cs),
(460,622,o),
(464,636,o),
(464,650,cs)
);
}
);
width = 480;
}
);
unicode = 165;
},
{
glyphname = brokenbar;
layers = (
{
hints = (
{
horizontal = 1;
place = (-276,1009);
type = Stem;
},
{
place = (50,135);
type = Stem;
},
{
place = (54,146);
type = Stem;
}
);
layerId = "2CBAB59C-6D1F-481C-8D47-CA6A7671DE0F";
shapes = (
{
closed = 1;
nodes = (
(66,288,o),
(100,265,o),
(134,265,cs),
(167,265,o),
(200,287,o),
(200,331,cs),
(200,450,o),
(195,568,o),
(185,672,cs),
(181,713,o),
(148,733,o),
(116,733,cs),
(83,733,o),
(50,712,o),
(50,671,cs),
(50,637,o),
(66,572,o),
(66,330,cs)
);
},
{
closed = 1;
nodes = (
(54,-255,o),
(88,-276,o),
(121,-276,cs),
(154,-276,o),
(187,-256,o),
(188,-215,cs),
(190,-136,o),
(200,18,o),
(200,109,cs),
(200,154,o),
(166,176,o),
(133,176,cs),
(100,176,o),
(67,155,o),
(66,112,cs),
(65,55,o),
(54,-172,o),
(54,-213,cs)
);
}
);
width = 250;
}
);
unicode = 166;
},
{
glyphname = section;
layers = (
{
hints = (
{
horizontal = 1;
place = (-18,120);
type = Stem;
},
{
horizontal = 1;
place = (600,118);
type = Stem;
},
{
place = (30,133);
type = Stem;
},
{
place = (53,131);
type = Stem;
},
{
place = (74,131);
type = Stem;
},
{
place = (253,128);
type = Stem;
},
{
place = (266,130);
type = Stem;
}
);
layerId = "2CBAB59C-6D1F-481C-8D47-CA6A7671DE0F";
shapes = (
{
closed = 1;
nodes = (
(396,472,o),
(205,543,o),
(205,585,cs),
(205,594,o),
(213,600,o),
(225,600,cs),
(237,600,o),
(245,593,o),
(257,582,cs),
(271,570,o),
(290,555,o),
(313,555,cs),
(347,555,o),
(377,585,o),
(377,617,cs),
(377,629,o),
(373,642,o),
(363,654,cs),
(327,697,o),
(273,718,o),
(219,718,cs),
(139,718,o),
(74,671,o),
(74,594,cs),
(74,555,o),
(92,523,o),
(117,496,c),
(78,468,o),
(53,432,o),
(53,390,cs),
(53,250,o),
(253,187,o),
(253,132,cs),
(253,116,o),
(238,102,o),
(211,102,cs),
(180,102,o),
(160,122,o),
(160,142,cs),
(160,152,o),
(163,164,o),
(163,174,cs),
(163,207,o),
(136,225,o),
(102,225,cs),
(48,225,o),
(30,182,o),
(30,133,cs),
(30,34,o),
(112,-18,o),
(207,-18,cs),
(303,-18,o),
(381,31,o),
(381,131,cs),
(381,167,o),
(366,198,o),
(345,226,c),
(376,260,o),
(396,295,o),
(396,332,cs)
);
},
{
closed = 1;
nodes = (
(184,402,o),
(188,414,o),
(198,424,c),
(235,394,o),
(266,366,o),
(266,331,cs),
(266,322,o),
(265,313,o),
(263,306,c),
(221,340,o),
(184,367,o),
(184,391,cs)
);
}
);
width = 426;
}
);
unicode = 167;
},
{
glyphname = dieresis;
layers = (
{
hints = (
{
horizontal = 1;
place = (776,136);
type = Stem;
},
{
place = (30,136);
type = Stem;
},
{
place = (198,136);
type = Stem;
}
);
layerId = "2CBAB59C-6D1F-481C-8D47-CA6A7671DE0F";
shapes = (
{
closed = 1;
nodes = (
(135,776,o),
(166,807,o),
(166,844,cs),
(166,881,o),
(135,912,o),
(98,912,cs),
(61,912,o),
(30,881,o),
(30,844,cs),
(30,807,o),
(61,776,o),
(98,776,cs)
);
},
{
closed = 1;
nodes = (
(303,776,o),
(334,807,o),
(334,844,cs),
(334,881,o),
(303,912,o),
(266,912,cs),
(229,912,o),
(198,881,o),
(198,844,cs),
(198,807,o),
(229,776,o),
(266,776,cs)
);
}
);
width = 364;
}
);
unicode = 168;
},
{
glyphname = copyright;
layers = (
{
hints = (
{
horizontal = 1;
place = (9,115);
type = Stem;
},
{
horizontal = 1;
place = (156,110);
type = Stem;
},
{
horizontal = 1;
place = (384,110);
type = Stem;
},
{
horizontal = 1;
place = (525,115);
type = Stem;
},
{
place = (30,130);
type = Stem;
},
{
place = (198,115);
type = Stem;
},
{
place = (368,103);
type = Stem;
},
{
place = (544,130);
type = Stem;
}
);
layerId = "2CBAB59C-6D1F-481C-8D47-CA6A7671DE0F";
shapes = (
{
closed = 1;
nodes = (
(150,640,o),
(30,468,o),
(30,304,cs),
(30,153,o),
(131,9,o),
(340,9,cs),
(559,9,o),
(674,181,o),
(674,346,cs),
(674,496,o),
(578,640,o),
(380,640,cs)
);
},
{
closed = 1;
nodes = (
(490,525,o),
(544,436,o),
(544,342,cs),
(544,236,o),
(476,124,o),
(345,124,cs),
(220,124,o),
(160,213,o),
(160,307,cs),
(160,413,o),
(234,525,o),
(376,525,cs)
);
},
{
closed = 1;
nodes = (
(426,316,o),
(413,300,o),
(399,286,cs),
(388,275,o),
(377,266,o),
(359,266,cs),
(334,266,o),
(313,288,o),
(313,323,cs),
(313,364,o),
(332,384,o),
(352,384,cs),
(362,384,o),
(368,378,o),
(368,366,cs),
(368,342,o),
(389,329,o),
(412,329,cs),
(440,329,o),
(471,349,o),
(471,391,cs),
(471,451,o),
(416,494,o),
(354,494,cs),
(267,494,o),
(198,410,o),
(198,310,cs),
(198,208,o),
(275,156,o),
(354,156,cs),
(403,156,o),
(453,180,o),
(489,231,cs),
(498,244,o),
(502,257,o),
(502,269,cs),
(502,296,o),
(481,316,o),
(453,316,cs)
);
}
);
width = 704;
}
);
unicode = 169;
},
{
glyphname = guillemotleft;
layers = (
{
hints = (
{
horizontal = 1;
place = (150,318);
type = Stem;
},
{
place = (20,417);
type = Stem;
}
);
layerId = "2CBAB59C-6D1F-481C-8D47-CA6A7671DE0F";
shapes = (
{
closed = 1;
nodes = (
(224,178,o),
(230,194,o),
(230,210,cs),
(230,226,o),
(224,242,o),
(212,257,cs),
(168,310,ls),
(163,316,o),
(164,319,o),
(170,325,cs),
(206,359,ls),
(222,375,o),
(230,393,o),
(230,411,cs),
(230,425,o),
(225,438,o),
(215,449,cs),
(204,461,o),
(189,468,o),
(173,468,cs),
(157,468,o),
(140,461,o),
(125,448,cs),
(81,409,o),
(46,372,o),
(30,346,cs),
(23,335,o),
(20,327,o),
(20,318,cs),
(20,310,o),
(23,302,o),
(28,291,cs),
(42,261,o),
(79,218,o),
(121,175,cs),
(137,158,o),
(155,150,o),
(173,150,cs),
(187,150,o),
(200,156,o),
(211,166,cs)
);
},
{
closed = 1;
nodes = (
(431,178,o),
(437,194,o),
(437,210,cs),
(437,226,o),
(431,242,o),
(419,257,cs),
(375,310,ls),
(370,316,o),
(371,319,o),
(377,325,cs),
(413,359,ls),
(429,375,o),
(437,393,o),
(437,411,cs),
(437,425,o),
(432,438,o),
(422,449,cs),
(411,461,o),
(396,468,o),
(380,468,cs),
(364,468,o),
(347,461,o),
(332,448,cs),
(288,409,o),
(253,372,o),
(237,346,cs),
(230,335,o),
(227,327,o),
(227,318,cs),
(227,310,o),
(230,302,o),
(235,291,cs),
(249,261,o),
(286,218,o),
(328,175,cs),
(344,158,o),
(362,150,o),
(380,150,cs),
(394,150,o),
(407,156,o),
(418,166,cs)
);
}
);
width = 457;
}
);
leftKerningGroup = guillemotleft;
rightKerningGroup = guillemotleft2;
unicode = 171;
},
{
glyphname = logicalnot;
layers = (
{
hints = (
{
horizontal = 1;
place = (279,120);
type = Stem;
},
{
place = (275,124);
type = Stem;
}
);
layerId = "2CBAB59C-6D1F-481C-8D47-CA6A7671DE0F";
shapes = (
{
closed = 1;
nodes = (
(399,335,ls),
(399,373,o),
(373,399,o),
(335,399,cs),
(98,399,ls),
(58,399,o),
(30,374,o),
(30,339,cs),
(30,304,o),
(59,279,o),
(98,279,cs),
(266,279,ls),
(272,279,o),
(275,276,o),
(275,270,cs),
(275,254,ls),
(275,214,o),
(301,186,o),
(337,186,cs),
(373,186,o),
(399,214,o),
(399,254,cs)
);
}
);
width = 429;
}
);
unicode = 172;
},
{
glyphname = uni00AD;
layers = (
{
hints = (
{
horizontal = 1;
place = (219,118);
type = Stem;
},
{
place = (100,315);
type = Stem;
}
);
layerId = "2CBAB59C-6D1F-481C-8D47-CA6A7671DE0F";
shapes = (
{
closed = 1;
nodes = (
(389,217,o),
(415,242,o),
(415,277,cs),
(415,312,o),
(387,337,o),
(350,337,cs),
(307,337,o),
(170,339,o),
(164,339,cs),
(126,339,o),
(100,314,o),
(100,279,cs),
(100,244,o),
(128,219,o),
(165,219,cs),
(208,219,o),
(345,217,o),
(351,217,cs)
);
}
);
width = 495;
}
);
leftKerningGroup = hyphen;
unicode = 173;
},
{
glyphname = registered;
layers = (
{
hints = (
{
horizontal = 1;
place = (238,100);
type = Stem;
},
{
horizontal = 1;
place = (439,58);
type = Stem;
},
{
horizontal = 1;
place = (542,71);
type = Stem;
},
{
horizontal = 1;
place = (633,100);
type = Stem;
},
{
place = (30,111);
type = Stem;
},
{
place = (194,80);
type = Stem;
},
{
place = (308,73);
type = Stem;
},
{
place = (423,112);
type = Stem;
}
);
layerId = "2CBAB59C-6D1F-481C-8D47-CA6A7671DE0F";
shapes = (
{
closed = 1;
nodes = (
(120,733,o),
(30,603,o),
(30,476,cs),
(30,356,o),
(111,238,o),
(279,238,cs),
(448,238,o),
(535,368,o),
(535,495,cs),
(535,615,o),
(456,733,o),
(293,733,cs)
);
},
{
closed = 1;
nodes = (
(186,338,o),
(141,405,o),
(141,479,cs),
(141,557,o),
(194,633,o),
(293,633,cs),
(381,633,o),
(423,567,o),
(423,494,cs),
(423,415,o),
(374,338,o),
(282,338,cs)
);
},
{
closed = 1;
nodes = (
(381,572,o),
(344,613,o),
(281,613,cs),
(257,613,o),
(220,599,o),
(197,577,c),
(191,413,ls),
(190,385,o),
(210,371,o),
(230,371,cs),
(249,371,o),
(269,384,o),
(270,410,cs),
(271,440,l),
(274,439,o),
(277,439,o),
(280,439,c),
(281,439,l),
(285,423,o),
(292,405,o),
(303,390,cs),
(312,378,o),
(325,373,o),
(338,373,cs),
(359,373,o),
(378,387,o),
(378,409,cs),
(378,417,o),
(376,426,o),
(370,435,cs),
(365,443,o),
(360,451,o),
(354,464,c),
(371,479,o),
(381,500,o),
(381,525,cs)
);
},
{
closed = 1;
nodes = (
(275,536,l),
(278,540,o),
(284,542,o),
(289,542,cs),
(302,542,o),
(308,532,o),
(308,521,cs),
(308,509,o),
(301,497,o),
(288,497,cs),
(283,497,o),
(278,498,o),
(274,499,c)
);
}
);
width = 565;
}
);
unicode = 174;
},
{
glyphname = macron;
layers = (
{
hints = (
{
horizontal = 1;
place = (777,118);
type = Stem;
},
{
place = (41,274);
type = Stem;
}
);
layerId = "2CBAB59C-6D1F-481C-8D47-CA6A7671DE0F";
shapes = (
{
closed = 1;
nodes = (
(249,776,ls),
(293,775,o),
(315,806,o),
(315,836,cs),
(315,865,o),
(294,895,o),
(249,895,c),
(108,897,ls),
(64,898,o),
(41,868,o),
(41,838,cs),
(41,808,o),
(63,779,o),
(108,778,cs)
);
}
);
width = 356;
}
);
unicode = 175;
},
{
glyphname = degree;
layers = (
{
hints = (
{
horizontal = 1;
place = (447,107);
type = Stem;
},
{
horizontal = 1;
place = (595,107);
type = Stem;
},
{
place = (20,112);
type = Stem;
},
{
place = (174,110);
type = Stem;
}
);
layerId = "2CBAB59C-6D1F-481C-8D47-CA6A7671DE0F";
shapes = (
{
closed = 1;
nodes = (
(223,447,o),
(284,509,o),
(284,588,cs),
(284,656,o),
(236,702,o),
(164,702,cs),
(82,702,o),
(20,640,o),
(20,561,cs),
(20,493,o),
(69,447,o),
(143,447,cs)
);
},
{
closed = 1;
nodes = (
(138,554,o),
(132,560,o),
(132,570,cs),
(132,584,o),
(143,595,o),
(157,595,cs),
(168,595,o),
(174,589,o),
(174,579,cs),
(174,566,o),
(162,554,o),
(149,554,cs)
);
}
);
width = 304;
}
);
unicode = 176;
},
{
glyphname = plusminus;
layers = (
{
hints = (
{
horizontal = 1;
place = (129,110);
type = Stem;
},
{
horizontal = 1;
place = (356,110);
type = Stem;
},
{
place = (136,122);
type = Stem;
}
);
layerId = "2CBAB59C-6D1F-481C-8D47-CA6A7671DE0F";
shapes = (
{
closed = 1;
nodes = (
(134,356,l),
(134,332,ls),
(134,294,o),
(160,267,o),
(195,267,cs),
(231,267,o),
(257,294,o),
(257,332,cs),
(257,355,l),
(298,355,ls),
(335,355,o),
(363,378,o),
(363,410,cs),
(363,442,o),
(335,465,o),
(298,465,cs),
(258,465,l),
(258,507,ls),
(258,543,o),
(232,569,o),
(197,569,cs),
(162,569,o),
(136,544,o),
(136,508,cs),
(136,466,l),
(92,466,ls),
(56,466,o),
(30,443,o),
(30,411,cs),
(30,379,o),
(56,356,o),
(92,356,cs)
);
},
{
closed = 1;
nodes = (
(92,240,l),
(56,240,o),
(30,217,o),
(30,185,cs),
(30,153,o),
(56,130,o),
(92,130,c),
(298,129,l),
(335,129,o),
(363,152,o),
(363,184,cs),
(363,216,o),
(335,239,o),
(298,239,c)
);
}
);
width = 393;
}
);
unicode = 177;
},
{
glyphname = uni00B2;
layers = (
{
hints = (
{
horizontal = 1;
place = (358,102);
type = Stem;
},
{
horizontal = 1;
place = (358,379);
type = Stem;
},
{
horizontal = 1;
place = (639,98);
type = Stem;
},
{
place = (17,104);
type = Stem;
},
{
place = (146,109);
type = Stem;
}
);
layerId = "2CBAB59C-6D1F-481C-8D47-CA6A7671DE0F";
shapes = (
{
closed = 1;
nodes = (
(260,358,o),
(310,408,o),
(310,464,cs),
(310,491,o),
(285,510,o),
(260,510,cs),
(244,510,o),
(227,501,o),
(219,481,cs),
(213,466,o),
(204,460,o),
(194,460,cs),
(188,460,o),
(181,462,o),
(173,465,c),
(205,497,o),
(255,554,o),
(255,621,cs),
(255,699,o),
(194,737,o),
(134,737,cs),
(75,737,o),
(17,700,o),
(17,627,cs),
(17,593,o),
(45,576,o),
(71,576,cs),
(97,576,o),
(121,591,o),
(121,621,cs),
(121,632,o),
(128,639,o),
(134,639,cs),
(140,639,o),
(146,633,o),
(146,621,cs),
(146,582,o),
(118,531,o),
(78,491,cs),
(73,486,o),
(64,480,o),
(55,477,cs),
(23,466,o),
(8,440,o),
(8,414,cs),
(8,385,o),
(27,358,o),
(61,358,cs),
(82,358,o),
(95,373,o),
(116,373,cs),
(139,373,o),
(175,358,o),
(201,358,cs)
);
}
);
width = 322;
}
);
unicode = 178;
},
{
glyphname = uni00B3;
layers = (
{
hints = (
{
horizontal = 1;
place = (350,101);
type = Stem;
},
{
horizontal = 1;
place = (636,99);
type = Stem;
},
{
place = (17,253);
type = Stem;
},
{
place = (150,100);
type = Stem;
},
{
place = (162,108);
type = Stem;
}
);
layerId = "2CBAB59C-6D1F-481C-8D47-CA6A7671DE0F";
shapes = (
{
closed = 1;
nodes = (
(235,578,o),
(250,610,o),
(250,641,cs),
(250,689,o),
(213,735,o),
(137,735,cs),
(70,735,o),
(19,685,o),
(19,633,cs),
(19,604,o),
(37,586,o),
(68,586,cs),
(95,586,o),
(104,600,o),
(111,614,cs),
(117,625,o),
(120,636,o),
(133,636,cs),
(144,636,o),
(150,628,o),
(150,618,cs),
(150,606,o),
(142,591,o),
(124,585,cs),
(102,578,o),
(92,559,o),
(92,542,cs),
(92,521,o),
(106,502,o),
(133,502,cs),
(153,502,o),
(162,489,o),
(162,475,cs),
(162,463,o),
(154,451,o),
(138,451,cs),
(124,451,o),
(117,460,o),
(107,468,cs),
(96,477,o),
(85,487,o),
(63,487,cs),
(39,487,o),
(17,466,o),
(17,439,cs),
(17,392,o),
(61,350,o),
(136,350,cs),
(226,350,o),
(270,407,o),
(270,461,cs),
(270,498,o),
(249,535,o),
(207,556,c)
);
}
);
width = 282;
}
);
unicode = 179;
},
{
glyphname = acute;
layers = (
{
hints = (
{
horizontal = 1;
place = (757,195);
type = Stem;
},
{
place = (42,191);
type = Stem;
}
);
layerId = "2CBAB59C-6D1F-481C-8D47-CA6A7671DE0F";
shapes = (
{
closed = 1;
nodes = (
(64,863,ls),
(48,847,o),
(42,829,o),
(42,813,cs),
(42,782,o),
(67,757,o),
(98,757,cs),
(114,757,o),
(132,764,o),
(148,781,cs),
(210,846,ls),
(226,863,o),
(233,880,o),
(233,896,cs),
(233,927,o),
(207,952,o),
(176,952,cs),
(160,952,o),
(142,945,o),
(125,927,cs)
);
}
);
width = 274;
}
);
unicode = 180;
},
{
glyphname = paragraph;
layers = (
{
hints = (
{
horizontal = 1;
place = (-12,125);
type = Stem;
},
{
horizontal = 1;
place = (561,125);
type = Stem;
},
{
horizontal = 1;
place = (591,136);
type = Stem;
},
{
place = (30,255);
type = Stem;
},
{
place = (326,135);
type = Stem;
}
);
layerId = "2CBAB59C-6D1F-481C-8D47-CA6A7671DE0F";
shapes = (
{
closed = 1;
nodes = (
(500,691,o),
(480,686,o),
(467,686,cs),
(413,686,o),
(305,727,o),
(231,727,cs),
(109,727,o),
(30,643,o),
(30,508,cs),
(30,323,o),
(72,251,o),
(164,251,cs),
(257,251,o),
(285,305,o),
(285,572,cs),
(285,585,o),
(291,591,o),
(303,591,cs),
(310,591,o),
(318,590,o),
(326,588,c),
(325,528,o),
(323,430,o),
(318,295,cs),
(314,171,o),
(285,113,o),
(250,113,cs),
(229,113,o),
(217,126,o),
(204,168,cs),
(196,194,o),
(172,206,o),
(147,206,cs),
(114,206,o),
(80,185,o),
(80,146,cs),
(80,67,o),
(150,-12,o),
(253,-12,cs),
(377,-12,o),
(442,96,o),
(453,291,cs),
(457,355,o),
(459,465,o),
(461,561,c),
(475,561,ls),
(525,561,o),
(563,592,o),
(563,637,cs),
(563,665,o),
(544,691,o),
(511,691,cs)
);
}
);
width = 513;
}
);
unicode = 182;
},
{
glyphname = periodcentered;
layers = (
{
hints = (
{
horizontal = 1;
place = (251,157);
type = Stem;
},
{
place = (40,157);
type = Stem;
}
);
layerId = "2CBAB59C-6D1F-481C-8D47-CA6A7671DE0F";
shapes = (
{
closed = 1;
nodes = (
(162,251,o),
(197,286,o),
(197,330,cs),
(197,373,o),
(162,408,o),
(119,408,cs),
(75,408,o),
(40,373,o),
(40,330,cs),
(40,286,o),
(75,251,o),
(119,251,cs)
);
}
);
width = 277;
}
);
unicode = 183;
},
{
glyphname = cedilla;
layers = (
{
hints = (
{
horizontal = 1;
place = (-262,129);
type = Stem;
},
{
horizontal = 1;
place = (-262,21);
target = up;
type = BottomGhost;
},
{
place = (30,228);
type = Stem;
},
{
place = (143,115);
type = Stem;
}
);
layerId = "2CBAB59C-6D1F-481C-8D47-CA6A7671DE0F";
shapes = (
{
closed = 1;
nodes = (
(86,-255,o),
(110,-262,o),
(145,-262,cs),
(215,-262,o),
(258,-203,o),
(258,-144,cs),
(258,-119,o),
(248,-97,o),
(232,-79,cs),
(217,-62,o),
(202,-52,o),
(202,-44,cs),
(202,-38,o),
(205,-31,o),
(207,-26,cs),
(211,-17,o),
(212,-8,o),
(212,-1,cs),
(212,25,o),
(191,40,o),
(168,40,cs),
(148,40,o),
(127,30,o),
(115,10,cs),
(98,-18,o),
(92,-36,o),
(92,-54,cs),
(92,-69,o),
(95,-85,o),
(116,-103,cs),
(130,-115,o),
(143,-123,o),
(143,-134,cs),
(143,-141,o),
(137,-147,o),
(128,-147,cs),
(124,-147,o),
(117,-144,o),
(109,-140,cs),
(99,-135,o),
(89,-133,o),
(80,-133,cs),
(50,-133,o),
(30,-158,o),
(30,-187,cs),
(30,-208,o),
(40,-230,o),
(66,-244,cs)
);
}
);
width = 293;
}
);
unicode = 184;
},
{
glyphname = uni00B9;
layers = (
{
hints = (
{
horizontal = 1;
place = (358,379);
type = Stem;
},
{
place = (10,203);
type = Stem;
}
);
layerId = "2CBAB59C-6D1F-481C-8D47-CA6A7671DE0F";
shapes = (
{
closed = 1;
nodes = (
(82,378,o),
(110,358,o),
(139,358,cs),
(165,358,o),
(191,375,o),
(196,411,cs),
(205,476,o),
(213,561,o),
(213,635,cs),
(213,651,o),
(213,667,o),
(212,682,cs),
(211,698,o),
(206,712,o),
(196,722,cs),
(187,731,o),
(172,737,o),
(152,737,cs),
(126,737,o),
(105,727,o),
(89,701,cs),
(78,683,o),
(55,660,o),
(32,643,cs),
(17,632,o),
(10,616,o),
(10,600,cs),
(10,572,o),
(29,546,o),
(58,546,cs),
(72,546,o),
(85,551,o),
(99,568,c),
(96,515,o),
(82,448,o),
(82,414,cs)
);
}
);
width = 228;
}
);
unicode = 185;
},
{
glyphname = guillemotright;
layers = (
{
hints = (
{
horizontal = 1;
place = (150,318);
type = Stem;
},
{
place = (20,417);
type = Stem;
}
);
layerId = "2CBAB59C-6D1F-481C-8D47-CA6A7671DE0F";
shapes = (
{
closed = 1;
nodes = (
(50,156,o),
(63,150,o),
(77,150,cs),
(95,150,o),
(113,158,o),
(129,175,cs),
(171,218,o),
(208,261,o),
(222,291,cs),
(227,302,o),
(230,310,o),
(230,318,cs),
(230,327,o),
(227,335,o),
(220,346,cs),
(204,372,o),
(169,409,o),
(125,448,cs),
(110,461,o),
(93,468,o),
(77,468,cs),
(61,468,o),
(46,461,o),
(35,449,cs),
(25,438,o),
(20,425,o),
(20,411,cs),
(20,393,o),
(28,375,o),
(44,359,cs),
(80,325,ls),
(83,322,o),
(85,319,o),
(85,317,cs),
(85,315,o),
(84,313,o),
(82,310,cs),
(38,257,ls),
(26,242,o),
(20,226,o),
(20,210,cs),
(20,194,o),
(26,178,o),
(39,166,cs)
);
},
{
closed = 1;
nodes = (
(257,156,o),
(270,150,o),
(284,150,cs),
(302,150,o),
(320,158,o),
(336,175,cs),
(378,218,o),
(415,261,o),
(429,291,cs),
(434,302,o),
(437,310,o),
(437,318,cs),
(437,327,o),
(434,335,o),
(427,346,cs),
(411,372,o),
(376,409,o),
(332,448,cs),
(317,461,o),
(300,468,o),
(284,468,cs),
(268,468,o),
(253,461,o),
(242,449,cs),
(232,438,o),
(227,425,o),
(227,411,cs),
(227,393,o),
(235,375,o),
(251,359,cs),
(287,325,ls),
(290,322,o),
(292,319,o),
(292,317,cs),
(292,315,o),
(291,313,o),
(289,310,cs),
(245,257,ls),
(233,242,o),
(227,226,o),
(227,210,cs),
(227,194,o),
(233,178,o),
(246,166,cs)
);
}
);
width = 457;
}
);
leftKerningGroup = guillemotright;
unicode = 187;
},
{
glyphname = onequarter;
layers = (
{
hints = (
{
horizontal = 1;
place = (-16,21);
target = up;
type = BottomGhost;
},
{
horizontal = 1;
place = (-14,21);
target = up;
type = BottomGhost;
},
{
place = (15,203);
type = Stem;
},
{
place = (398,106);
type = Stem;
},
{
place = (516,103);
type = Stem;
}
);
layerId = "2CBAB59C-6D1F-481C-8D47-CA6A7671DE0F";
shapes = (
{
closed = 1;
nodes = (
(101,483,o),
(87,416,o),
(87,382,cs),
(87,346,o),
(115,326,o),
(144,326,cs),
(170,326,o),
(196,343,o),
(201,379,cs),
(210,444,o),
(218,529,o),
(218,603,cs),
(218,619,o),
(218,635,o),
(217,650,cs),
(216,666,o),
(211,680,o),
(201,690,cs),
(192,699,o),
(177,705,o),
(157,705,cs),
(131,705,o),
(110,695,o),
(94,669,cs),
(83,651,o),
(60,628,o),
(37,611,cs),
(22,600,o),
(15,584,o),
(15,568,cs),
(15,540,o),
(34,514,o),
(63,514,cs),
(77,514,o),
(90,519,o),
(104,536,c)
);
},
{
closed = 1;
nodes = (
(534,674,o),
(507,700,o),
(475,700,cs),
(459,700,o),
(441,693,o),
(425,676,cs),
(323,567,o),
(175,198,o),
(86,85,cs),
(76,72,o),
(71,58,o),
(71,46,cs),
(71,13,o),
(100,-14,o),
(132,-14,cs),
(149,-14,o),
(168,-6,o),
(183,14,cs),
(277,133,o),
(416,485,o),
(518,603,cs),
(529,616,o),
(534,630,o),
(534,643,cs)
);
},
{
closed = 1;
nodes = (
(638,198,o),
(633,200,o),
(629,201,c),
(634,241,o),
(640,262,o),
(640,276,cs),
(640,306,o),
(614,324,o),
(587,324,cs),
(565,324,o),
(543,311,o),
(537,283,cs),
(533,263,o),
(529,241,o),
(526,219,c),
(516,218,o),
(506,216,o),
(494,211,c),
(499,238,o),
(504,268,o),
(504,301,cs),
(504,339,o),
(498,377,o),
(451,377,cs),
(422,377,o),
(398,360,o),
(398,327,cs),
(398,307,o),
(400,272,o),
(400,264,cs),
(400,233,o),
(394,213,o),
(386,198,cs),
(378,183,o),
(369,168,o),
(369,150,cs),
(369,122,o),
(391,104,o),
(422,104,cs),
(440,104,o),
(471,118,o),
(516,121,c),
(514,91,o),
(513,62,o),
(514,37,cs),
(515,2,o),
(541,-16,o),
(567,-16,cs),
(593,-16,o),
(619,2,o),
(619,38,cs),
(619,60,o),
(619,81,o),
(620,99,c),
(626,98,o),
(631,97,o),
(636,97,cs),
(662,97,o),
(679,116,o),
(679,145,cs),
(679,166,o),
(668,185,o),
(642,196,cs)
);
}
);
width = 689;
}
);
leftKerningGroup = onehalf;
unicode = 188;
},
{
glyphname = onehalf;
layers = (
{
hints = (
{
horizontal = 1;
place = (-12,102);
type = Stem;
},
{
horizontal = 1;
place = (-14,21);
target = up;
type = BottomGhost;
},
{
horizontal = 1;
place = (-12,21);
target = up;
type = BottomGhost;
},
{
horizontal = 1;
place = (269,98);
type = Stem;
},
{
place = (15,203);
type = Stem;
},
{
place = (369,104);
type = Stem;
},
{
place = (498,109);
type = Stem;
}
);
layerId = "2CBAB59C-6D1F-481C-8D47-CA6A7671DE0F";
shapes = (
{
closed = 1;
nodes = (
(87,346,o),
(115,326,o),
(144,326,cs),
(170,326,o),
(196,343,o),
(201,379,cs),
(210,444,o),
(218,529,o),
(218,603,cs),
(218,619,o),
(218,635,o),
(217,650,cs),
(216,666,o),
(211,680,o),
(201,690,cs),
(192,699,o),
(177,705,o),
(157,705,cs),
(131,705,o),
(110,695,o),
(94,669,cs),
(83,651,o),
(60,628,o),
(37,611,cs),
(22,600,o),
(15,584,o),
(15,568,cs),
(15,540,o),
(34,514,o),
(63,514,cs),
(77,514,o),
(90,519,o),
(104,536,c),
(101,483,o),
(87,416,o),
(87,382,cs)
);
},
{
closed = 1;
nodes = (
(76,72,o),
(71,58,o),
(71,46,cs),
(71,13,o),
(100,-14,o),
(132,-14,cs),
(149,-14,o),
(168,-6,o),
(183,14,cs),
(277,133,o),
(416,485,o),
(518,603,cs),
(529,616,o),
(534,630,o),
(534,643,cs),
(534,674,o),
(507,700,o),
(475,700,cs),
(459,700,o),
(441,693,o),
(425,676,cs),
(323,567,o),
(175,198,o),
(86,85,cs)
);
},
{
closed = 1;
nodes = (
(612,-12,o),
(662,38,o),
(662,94,cs),
(662,121,o),
(637,140,o),
(612,140,cs),
(596,140,o),
(579,131,o),
(571,111,cs),
(565,96,o),
(556,90,o),
(546,90,cs),
(540,90,o),
(533,92,o),
(525,95,c),
(557,127,o),
(607,184,o),
(607,251,cs),
(607,329,o),
(546,367,o),
(486,367,cs),
(427,367,o),
(369,330,o),
(369,257,cs),
(369,223,o),
(397,206,o),
(423,206,cs),
(449,206,o),
(473,221,o),
(473,251,cs),
(473,262,o),
(480,269,o),
(486,269,cs),
(492,269,o),
(498,263,o),
(498,251,cs),
(498,212,o),
(470,161,o),
(430,121,cs),
(425,116,o),
(416,110,o),
(407,107,cs),
(375,96,o),
(360,70,o),
(360,44,cs),
(360,15,o),
(379,-12,o),
(413,-12,cs),
(434,-12,o),
(447,3,o),
(468,3,cs),
(491,3,o),
(527,-12,o),
(553,-12,cs)
);
}
);
width = 682;
}
);
leftKerningGroup = onehalf;
unicode = 189;
},
{
glyphname = threequarters;
layers = (
{
hints = (
{
horizontal = 1;
place = (-16,21);
target = up;
type = BottomGhost;
},
{
horizontal = 1;
place = (-14,21);
target = up;
type = BottomGhost;
},
{
horizontal = 1;
place = (316,101);
type = Stem;
},
{
horizontal = 1;
place = (602,99);
type = Stem;
},
{
place = (188,100);
type = Stem;
},
{
place = (200,108);
type = Stem;
},
{
place = (481,106);
type = Stem;
},
{
place = (599,103);
type = Stem;
}
);
layerId = "2CBAB59C-6D1F-481C-8D47-CA6A7671DE0F";
shapes = (
{
closed = 1;
nodes = (
(308,464,o),
(287,501,o),
(245,522,c),
(273,544,o),
(288,576,o),
(288,607,cs),
(288,655,o),
(251,701,o),
(175,701,cs),
(108,701,o),
(57,651,o),
(57,599,cs),
(57,570,o),
(75,552,o),
(106,552,cs),
(133,552,o),
(142,566,o),
(149,580,cs),
(155,591,o),
(158,602,o),
(171,602,cs),
(182,602,o),
(188,594,o),
(188,584,cs),
(188,572,o),
(180,557,o),
(162,551,cs),
(140,544,o),
(130,525,o),
(130,508,cs),
(130,487,o),
(144,468,o),
(171,468,cs),
(191,468,o),
(200,455,o),
(200,441,cs),
(200,429,o),
(192,417,o),
(176,417,cs),
(162,417,o),
(155,426,o),
(145,434,cs),
(134,443,o),
(123,453,o),
(101,453,cs),
(77,453,o),
(55,432,o),
(55,405,cs),
(55,358,o),
(99,316,o),
(174,316,cs),
(264,316,o),
(308,373,o),
(308,427,cs)
);
},
{
closed = 1;
nodes = (
(617,674,o),
(590,700,o),
(558,700,cs),
(542,700,o),
(524,693,o),
(508,676,cs),
(406,567,o),
(258,198,o),
(169,85,cs),
(159,72,o),
(154,58,o),
(154,46,cs),
(154,13,o),
(183,-14,o),
(215,-14,cs),
(232,-14,o),
(251,-6,o),
(266,14,cs),
(360,133,o),
(499,485,o),
(601,603,cs),
(612,616,o),
(617,630,o),
(617,643,cs)
);
},
{
closed = 1;
nodes = (
(721,198,o),
(716,200,o),
(712,201,c),
(717,241,o),
(723,262,o),
(723,276,cs),
(723,306,o),
(697,324,o),
(670,324,cs),
(648,324,o),
(626,311,o),
(620,283,cs),
(616,263,o),
(612,241,o),
(609,219,c),
(599,218,o),
(589,216,o),
(577,211,c),
(582,238,o),
(587,268,o),
(587,301,cs),
(587,339,o),
(581,377,o),
(534,377,cs),
(505,377,o),
(481,360,o),
(481,327,cs),
(481,307,o),
(483,272,o),
(483,264,cs),
(483,233,o),
(477,213,o),
(469,198,cs),
(461,183,o),
(452,168,o),
(452,150,cs),
(452,122,o),
(474,104,o),
(505,104,cs),
(523,104,o),
(554,118,o),
(599,121,c),
(597,91,o),
(596,62,o),
(597,37,cs),
(598,2,o),
(624,-16,o),
(650,-16,cs),
(676,-16,o),
(702,2,o),
(702,38,cs),
(702,60,o),
(702,81,o),
(703,99,c),
(709,98,o),
(714,97,o),
(719,97,cs),
(745,97,o),
(762,116,o),
(762,145,cs),
(762,166,o),
(751,185,o),
(725,196,cs)
);
}
);
width = 772;
}
);
unicode = 190;
},
{
glyphname = questiondown;
layers = (
{
hints = (
{
horizontal = 1;
place = (-254,124);
type = Stem;
},
{
horizontal = 1;
place = (360,157);
type = Stem;
},
{
place = (40,135);
type = Stem;
},
{
place = (186,157);
type = Stem;
},
{
place = (198,132);
type = Stem;
},
{
place = (294,134);
type = Stem;
}
);
layerId = "2CBAB59C-6D1F-481C-8D47-CA6A7671DE0F";
shapes = (
{
closed = 1;
nodes = (
(220,517,o),
(186,482,o),
(186,438,cs),
(186,395,o),
(221,360,o),
(264,360,cs),
(308,360,o),
(343,394,o),
(343,438,cs),
(343,482,o),
(308,517,o),
(264,517,cs)
);
},
{
closed = 1;
nodes = (
(225,335,o),
(198,303,o),
(198,261,cs),
(198,189,o),
(170,166,o),
(135,129,cs),
(85,77,o),
(40,26,o),
(40,-70,cs),
(40,-176,o),
(125,-254,o),
(236,-254,cs),
(347,-254,o),
(428,-179,o),
(428,-72,cs),
(428,-8,o),
(402,30,o),
(355,30,cs),
(318,30,o),
(289,4,o),
(289,-33,cs),
(289,-42,o),
(294,-60,o),
(294,-72,cs),
(294,-107,o),
(271,-130,o),
(236,-130,cs),
(200,-130,o),
(175,-104,o),
(175,-64,cs),
(175,-28,o),
(191,4,o),
(229,38,cs),
(267,73,o),
(330,128,o),
(330,261,cs),
(330,303,o),
(302,335,o),
(264,335,cs)
);
}
);
width = 448;
}
);
unicode = 191;
},
{
glyphname = Agrave;
layers = (
{
anchors = (
{
name = t.uni0302_2;
position = "{650, 710}";
}
);
hints = (
{
horizontal = 1;
place = (-16,130);
type = Stem;
},
{
horizontal = 1;
place = (-12,130);
type = Stem;
},
{
horizontal = 1;
place = (227,117);
type = Stem;
},
{
horizontal = 1;
place = (623,117);
type = Stem;
},
{
place = (538,143);
type = Stem;
}
);
layerId = "2CBAB59C-6D1F-481C-8D47-CA6A7671DE0F";
shapes = (
{
closed = 1;
nodes = (
(636,791,ls),
(652,774,o),
(670,766,o),
(686,766,cs),
(717,766,o),
(742,792,o),
(742,823,cs),
(742,839,o),
(736,857,o),
(720,873,cs),
(659,937,ls),
(642,955,o),
(624,962,o),
(607,962,cs),
(577,962,o),
(551,937,o),
(551,906,cs),
(551,890,o),
(558,872,o),
(574,856,cs)
);
},
{
closed = 1;
nodes = (
(775,165,o),
(739,118,o),
(712,118,cs),
(695,118,o),
(681,132,o),
(681,169,cs),
(681,372,o),
(743,583,o),
(743,653,cs),
(743,705,o),
(708,740,o),
(651,740,cs),
(530,740,o),
(483,656,o),
(364,374,cs),
(360,364,o),
(355,354,o),
(351,344,c),
(284,344,ls),
(242,344,o),
(219,315,o),
(219,286,cs),
(219,256,o),
(242,227,o),
(289,227,c),
(290,227,l),
(243,149,o),
(200,114,o),
(171,114,cs),
(139,114,o),
(128,153,o),
(85,153,cs),
(52,153,o),
(28,129,o),
(28,92,cs),
(28,38,o),
(82,-16,o),
(175,-16,cs),
(279,-16,o),
(365,53,o),
(451,233,c),
(481,235,o),
(511,238,o),
(540,241,c),
(539,223,o),
(538,205,o),
(538,188,cs),
(538,49,o),
(599,-12,o),
(684,-12,cs),
(764,-12,o),
(844,51,o),
(908,236,cs),
(910,243,o),
(911,249,o),
(911,255,cs),
(911,284,o),
(885,301,o),
(859,301,cs),
(840,301,o),
(822,291,o),
(814,271,cs)
);
},
{
closed = 1;
nodes = (
(560,496,o),
(596,623,o),
(610,623,cs),
(621,623,o),
(580,499,o),
(556,360,c),
(538,357,o),
(521,355,o),
(503,353,c)
);
}
);
width = 825;
}
);
leftKerningGroup = A2;
rightKerningGroup = A;
unicode = 192;
},
{
glyphname = Aacute;
layers = (
{
anchors = (
{
name = t.uni0302_2;
position = "{650, 710}";
}
);
hints = (
{
horizontal = 1;
place = (-16,130);
type = Stem;
},
{
horizontal = 1;
place = (-12,130);
type = Stem;
},
{
horizontal = 1;
place = (227,117);
type = Stem;
},
{
horizontal = 1;
place = (623,117);
type = Stem;
},
{
place = (538,143);
type = Stem;
}
);
layerId = "2CBAB59C-6D1F-481C-8D47-CA6A7671DE0F";
shapes = (
{
closed = 1;
nodes = (
(781,856,ls),
(797,873,o),
(804,890,o),
(804,906,cs),
(804,937,o),
(778,962,o),
(747,962,cs),
(731,962,o),
(713,955,o),
(696,937,cs),
(635,873,ls),
(619,857,o),
(613,839,o),
(613,823,cs),
(613,792,o),
(638,767,o),
(669,767,cs),
(685,767,o),
(703,774,o),
(719,791,cs)
);
},
{
closed = 1;
nodes = (
(775,165,o),
(739,118,o),
(712,118,cs),
(695,118,o),
(681,132,o),
(681,169,cs),
(681,372,o),
(743,583,o),
(743,653,cs),
(743,705,o),
(708,740,o),
(651,740,cs),
(530,740,o),
(483,656,o),
(364,374,cs),
(360,364,o),
(355,354,o),
(351,344,c),
(284,344,ls),
(242,344,o),
(219,315,o),
(219,286,cs),
(219,256,o),
(242,227,o),
(289,227,c),
(290,227,l),
(243,149,o),
(200,114,o),
(171,114,cs),
(139,114,o),
(128,153,o),
(85,153,cs),
(52,153,o),
(28,129,o),
(28,92,cs),
(28,38,o),
(82,-16,o),
(175,-16,cs),
(279,-16,o),
(365,53,o),
(451,233,c),
(481,235,o),
(511,238,o),
(540,241,c),
(539,223,o),
(538,205,o),
(538,188,cs),
(538,49,o),
(599,-12,o),
(684,-12,cs),
(764,-12,o),
(844,51,o),
(908,236,cs),
(910,243,o),
(911,249,o),
(911,255,cs),
(911,284,o),
(885,301,o),
(859,301,cs),
(840,301,o),
(822,291,o),
(814,271,cs)
);
},
{
closed = 1;
nodes = (
(560,496,o),
(596,623,o),
(610,623,cs),
(621,623,o),
(580,499,o),
(556,360,c),
(538,357,o),
(521,355,o),
(503,353,c)
);
}
);
width = 825;
}
);
leftKerningGroup = A2;
rightKerningGroup = A;
unicode = 193;
},
{
glyphname = Acircumflex;
layers = (
{
anchors = (
{
name = t.uni0302_2;
position = "{650, 710}";
}
);
hints = (
{
horizontal = 1;
place = (-16,130);
type = Stem;
},
{
horizontal = 1;
place = (-12,130);
type = Stem;
},
{
horizontal = 1;
place = (227,117);
type = Stem;
},
{
horizontal = 1;
place = (623,117);
type = Stem;
},
{
place = (538,143);
type = Stem;
}
);
layerId = "2CBAB59C-6D1F-481C-8D47-CA6A7671DE0F";
shapes = (
{
closed = 1;
nodes = (
(648,805,ls),
(655,810,o),
(661,812,o),
(667,812,cs),
(674,812,o),
(680,809,o),
(687,802,cs),
(694,795,ls),
(710,779,o),
(726,773,o),
(742,773,cs),
(771,773,o),
(795,796,o),
(795,825,cs),
(795,838,o),
(790,853,o),
(778,867,cs),
(720,932,ls),
(708,945,o),
(695,951,o),
(682,951,cs),
(672,951,o),
(662,947,o),
(651,940,cs),
(563,880,ls),
(540,864,o),
(531,845,o),
(531,828,cs),
(531,799,o),
(555,775,o),
(585,775,cs),
(596,775,o),
(609,779,o),
(621,787,cs)
);
},
{
closed = 1;
nodes = (
(775,165,o),
(739,118,o),
(712,118,cs),
(695,118,o),
(681,132,o),
(681,169,cs),
(681,372,o),
(743,583,o),
(743,653,cs),
(743,705,o),
(708,740,o),
(651,740,cs),
(530,740,o),
(483,656,o),
(364,374,cs),
(360,364,o),
(355,354,o),
(351,344,c),
(284,344,ls),
(242,344,o),
(219,315,o),
(219,286,cs),
(219,256,o),
(242,227,o),
(289,227,c),
(290,227,l),
(243,149,o),
(200,114,o),
(171,114,cs),
(139,114,o),
(128,153,o),
(85,153,cs),
(52,153,o),
(28,129,o),
(28,92,cs),
(28,38,o),
(82,-16,o),
(175,-16,cs),
(279,-16,o),
(365,53,o),
(451,233,c),
(481,235,o),
(511,238,o),
(540,241,c),
(539,223,o),
(538,205,o),
(538,188,cs),
(538,49,o),
(599,-12,o),
(684,-12,cs),
(764,-12,o),
(844,51,o),
(908,236,cs),
(910,243,o),
(911,249,o),
(911,255,cs),
(911,284,o),
(885,301,o),
(859,301,cs),
(840,301,o),
(822,291,o),
(814,271,cs)
);
},
{
closed = 1;
nodes = (
(560,496,o),
(596,623,o),
(610,623,cs),
(621,623,o),
(580,499,o),
(556,360,c),
(538,357,o),
(521,355,o),
(503,353,c)
);
}
);
width = 825;
}
);
leftKerningGroup = A2;
rightKerningGroup = A;
unicode = 194;
},
{
glyphname = Atilde;
layers = (
{
anchors = (
{
name = t.uni0302_2;
position = "{650, 710}";
}
);
hints = (
{
horizontal = 1;
place = (-16,130);
type = Stem;
},
{
horizontal = 1;
place = (-12,130);
type = Stem;
},
{
horizontal = 1;
place = (227,117);
type = Stem;
},
{
horizontal = 1;
place = (623,117);
type = Stem;
},
{
place = (538,143);
type = Stem;
}
);
layerId = "2CBAB59C-6D1F-481C-8D47-CA6A7671DE0F";
shapes = (
{
closed = 1;
nodes = (
(603,805,o),
(609,808,o),
(616,808,cs),
(620,808,o),
(631,804,o),
(643,799,cs),
(662,791,o),
(686,781,o),
(705,781,cs),
(732,781,o),
(757,794,o),
(779,819,cs),
(792,833,o),
(797,849,o),
(797,864,cs),
(797,896,o),
(772,924,o),
(743,924,cs),
(733,924,o),
(721,921,o),
(711,912,cs),
(699,902,o),
(694,896,o),
(687,896,cs),
(675,896,o),
(626,925,o),
(597,925,cs),
(573,925,o),
(543,907,o),
(525,884,cs),
(513,869,o),
(508,854,o),
(508,839,cs),
(508,808,o),
(533,783,o),
(561,783,cs),
(573,783,o),
(586,788,o),
(597,799,cs)
);
},
{
closed = 1;
nodes = (
(775,165,o),
(739,118,o),
(712,118,cs),
(695,118,o),
(681,132,o),
(681,169,cs),
(681,372,o),
(743,583,o),
(743,653,cs),
(743,705,o),
(708,740,o),
(651,740,cs),
(530,740,o),
(483,656,o),
(364,374,cs),
(360,364,o),
(355,354,o),
(351,344,c),
(284,344,ls),
(242,344,o),
(219,315,o),
(219,286,cs),
(219,256,o),
(242,227,o),
(289,227,c),
(290,227,l),
(243,149,o),
(200,114,o),
(171,114,cs),
(139,114,o),
(128,153,o),
(85,153,cs),
(52,153,o),
(28,129,o),
(28,92,cs),
(28,38,o),
(82,-16,o),
(175,-16,cs),
(279,-16,o),
(365,53,o),
(451,233,c),
(481,235,o),
(511,238,o),
(540,241,c),
(539,223,o),
(538,205,o),
(538,188,cs),
(538,49,o),
(599,-12,o),
(684,-12,cs),
(764,-12,o),
(844,51,o),
(908,236,cs),
(910,243,o),
(911,249,o),
(911,255,cs),
(911,284,o),
(885,301,o),
(859,301,cs),
(840,301,o),
(822,291,o),
(814,271,cs)
);
},
{
closed = 1;
nodes = (
(560,496,o),
(596,623,o),
(610,623,cs),
(621,623,o),
(580,499,o),
(556,360,c),
(538,357,o),
(521,355,o),
(503,353,c)
);
}
);
width = 825;
}
);
leftKerningGroup = A2;
rightKerningGroup = A;
unicode = 195;
},
{
glyphname = Adieresis;
layers = (
{
anchors = (
{
name = t.uni0302_2;
position = "{650, 710}";
}
);
hints = (
{
horizontal = 1;
place = (-16,130);
type = Stem;
},
{
horizontal = 1;
place = (-12,130);
type = Stem;
},
{
horizontal = 1;
place = (227,117);
type = Stem;
},
{
horizontal = 1;
place = (623,117);
type = Stem;
},
{
horizontal = 1;
place = (786,136);
type = Stem;
},
{
place = (511,136);
type = Stem;
},
{
place = (538,143);
type = Stem;
},
{
place = (679,136);
type = Stem;
}
);
layerId = "2CBAB59C-6D1F-481C-8D47-CA6A7671DE0F";
shapes = (
{
closed = 1;
nodes = (
(616,786,o),
(647,817,o),
(647,854,cs),
(647,891,o),
(616,922,o),
(579,922,cs),
(542,922,o),
(511,891,o),
(511,854,cs),
(511,817,o),
(542,786,o),
(579,786,cs)
);
},
{
closed = 1;
nodes = (
(784,786,o),
(815,817,o),
(815,854,cs),
(815,891,o),
(784,922,o),
(747,922,cs),
(710,922,o),
(679,891,o),
(679,854,cs),
(679,817,o),
(710,786,o),
(747,786,cs)
);
},
{
closed = 1;
nodes = (
(775,165,o),
(739,118,o),
(712,118,cs),
(695,118,o),
(681,132,o),
(681,169,cs),
(681,372,o),
(743,583,o),
(743,653,cs),
(743,705,o),
(708,740,o),
(651,740,cs),
(530,740,o),
(483,656,o),
(364,374,cs),
(360,364,o),
(355,354,o),
(351,344,c),
(284,344,ls),
(242,344,o),
(219,315,o),
(219,286,cs),
(219,256,o),
(242,227,o),
(289,227,c),
(290,227,l),
(243,149,o),
(200,114,o),
(171,114,cs),
(139,114,o),
(128,153,o),
(85,153,cs),
(52,153,o),
(28,129,o),
(28,92,cs),
(28,38,o),
(82,-16,o),
(175,-16,cs),
(279,-16,o),
(365,53,o),
(451,233,c),
(481,235,o),
(511,238,o),
(540,241,c),
(539,223,o),
(538,205,o),
(538,188,cs),
(538,49,o),
(599,-12,o),
(684,-12,cs),
(764,-12,o),
(844,51,o),
(908,236,cs),
(910,243,o),
(911,249,o),
(911,255,cs),
(911,284,o),
(885,301,o),
(859,301,cs),
(840,301,o),
(822,291,o),
(814,271,cs)
);
},
{
closed = 1;
nodes = (
(560,496,o),
(596,623,o),
(610,623,cs),
(621,623,o),
(580,499,o),
(556,360,c),
(538,357,o),
(521,355,o),
(503,353,c)
);
}
);
width = 825;
}
);
leftKerningGroup = A2;
rightKerningGroup = A;
unicode = 196;
},
{
glyphname = Aring;
layers = (
{
anchors = (
{
name = t.uni0302_2;
position = "{650, 710}";
}
);
hints = (
{
horizontal = 1;
place = (-16,130);
type = Stem;
},
{
horizontal = 1;
place = (-12,130);
type = Stem;
},
{
horizontal = 1;
place = (227,117);
type = Stem;
},
{
horizontal = 1;
place = (623,117);
type = Stem;
},
{
horizontal = 1;
place = (763,88);
type = Stem;
},
{
horizontal = 1;
place = (897,89);
type = Stem;
},
{
place = (538,143);
type = Stem;
},
{
place = (551,91);
type = Stem;
},
{
place = (687,91);
type = Stem;
}
);
layerId = "2CBAB59C-6D1F-481C-8D47-CA6A7671DE0F";
shapes = (
{
closed = 1;
nodes = (
(726,763,o),
(778,819,o),
(778,888,cs),
(778,948,o),
(737,986,o),
(672,986,cs),
(603,986,o),
(551,932,o),
(551,864,cs),
(551,803,o),
(594,763,o),
(661,763,cs)
);
},
{
closed = 1;
nodes = (
(678,897,o),
(687,888,o),
(687,875,cs),
(687,862,o),
(677,851,o),
(663,851,cs),
(651,851,o),
(642,860,o),
(642,872,cs),
(642,885,o),
(652,897,o),
(666,897,cs)
);
},
{
closed = 1;
nodes = (
(775,165,o),
(739,118,o),
(712,118,cs),
(695,118,o),
(681,132,o),
(681,169,cs),
(681,372,o),
(743,583,o),
(743,653,cs),
(743,705,o),
(708,740,o),
(651,740,cs),
(530,740,o),
(483,656,o),
(364,374,cs),
(360,364,o),
(355,354,o),
(351,344,c),
(284,344,ls),
(242,344,o),
(219,315,o),
(219,286,cs),
(219,256,o),
(242,227,o),
(289,227,c),
(290,227,l),
(243,149,o),
(200,114,o),
(171,114,cs),
(139,114,o),
(128,153,o),
(85,153,cs),
(52,153,o),
(28,129,o),
(28,92,cs),
(28,38,o),
(82,-16,o),
(175,-16,cs),
(279,-16,o),
(365,53,o),
(451,233,c),
(481,235,o),
(511,238,o),
(540,241,c),
(539,223,o),
(538,205,o),
(538,188,cs),
(538,49,o),
(599,-12,o),
(684,-12,cs),
(764,-12,o),
(844,51,o),
(908,236,cs),
(910,243,o),
(911,249,o),
(911,255,cs),
(911,284,o),
(885,301,o),
(859,301,cs),
(840,301,o),
(822,291,o),
(814,271,cs)
);
},
{
closed = 1;
nodes = (
(560,496,o),
(596,623,o),
(610,623,cs),
(621,623,o),
(580,499,o),
(556,360,c),
(538,357,o),
(521,355,o),
(503,353,c)
);
}
);
width = 825;
}
);
leftKerningGroup = A2;
rightKerningGroup = A;
unicode = 197;
},
{
glyphname = AE;
layers = (
{
anchors = (
{
name = t.uni0302_2;
position = "{735, 710}";
}
);
hints = (
{
horizontal = 1;
place = (-19,125);
type = Stem;
},
{
horizontal = 1;
place = (-16,130);
type = Stem;
},
{
horizontal = 1;
place = (215,106);
type = Stem;
},
{
horizontal = 1;
place = (220,109);
type = Stem;
},
{
horizontal = 1;
place = (618,124);
type = Stem;
},
{
place = (552,170);
type = Stem;
},
{
place = (608,128);
type = Stem;
},
{
place = (757,127);
type = Stem;
},
{
place = (992,125);
type = Stem;
}
);
layerId = "2CBAB59C-6D1F-481C-8D47-CA6A7671DE0F";
shapes = (
{
closed = 1;
nodes = (
(1023,170,o),
(952,106,o),
(857,106,cs),
(767,106,o),
(722,151,o),
(722,212,cs),
(722,286,o),
(794,354,o),
(933,354,cs),
(972,354,o),
(994,382,o),
(994,410,cs),
(994,433,o),
(980,457,o),
(950,467,cs),
(903,483,o),
(884,510,o),
(884,552,cs),
(884,592,o),
(914,618,o),
(944,618,cs),
(971,618,o),
(992,599,o),
(992,561,cs),
(992,520,o),
(1022,498,o),
(1052,498,cs),
(1081,498,o),
(1110,517,o),
(1115,556,cs),
(1116,564,o),
(1117,573,o),
(1117,581,cs),
(1117,674,o),
(1046,742,o),
(944,742,cs),
(857,742,o),
(757,680,o),
(757,566,cs),
(757,517,o),
(773,483,o),
(803,451,c),
(765,444,o),
(727,425,o),
(700,401,c),
(710,488,o),
(736,616,o),
(736,655,cs),
(736,701,o),
(696,740,o),
(641,740,cs),
(506,740,o),
(467,609,o),
(366,375,cs),
(358,356,o),
(350,338,o),
(342,321,c),
(287,321,ls),
(245,321,o),
(223,295,o),
(223,269,cs),
(223,244,o),
(243,219,o),
(285,215,c),
(238,142,o),
(200,114,o),
(173,114,cs),
(135,114,o),
(131,153,o),
(86,153,cs),
(51,153,o),
(28,121,o),
(28,89,cs),
(28,33,o),
(98,-16,o),
(173,-16,cs),
(299,-16,o),
(381,85,o),
(446,220,c),
(481,223,o),
(518,226,o),
(552,230,c),
(562,80,o),
(670,-19,o),
(840,-19,cs),
(960,-19,o),
(1089,51,o),
(1153,236,cs),
(1155,243,o),
(1156,249,o),
(1156,255,cs),
(1156,284,o),
(1130,301,o),
(1104,301,cs),
(1085,301,o),
(1067,292,o),
(1059,271,cs)
);
},
{
closed = 1;
nodes = (
(572,539,o),
(593,617,o),
(605,617,cs),
(619,617,o),
(573,475,o),
(556,337,c),
(536,334,o),
(514,331,o),
(493,329,c),
(498,341,o),
(502,354,o),
(507,366,cs)
);
}
);
width = 1070;
}
);
leftKerningGroup = A2;
rightKerningGroup = A;
unicode = 198;
},
{
glyphname = Ccedilla;
layers = (
{
anchors = (
{
name = t.uni0302_2;
position = "{425, 710}";
},
{
name = b.uni0326_1_2;
position = "{349, 10}";
}
);
hints = (
{
horizontal = 1;
place = (-251,129);
type = Stem;
},
{
horizontal = 1;
place = (-251,21);
target = up;
type = BottomGhost;
},
{
horizontal = 1;
place = (-12,21);
target = up;
type = BottomGhost;
},
{
horizontal = 1;
place = (611,128);
type = Stem;
},
{
place = (72,140);
type = Stem;
},
{
place = (346,115);
type = Stem;
},
{
place = (446,137);
type = Stem;
}
);
layerId = "2CBAB59C-6D1F-481C-8D47-CA6A7671DE0F";
shapes = (
{
closed = 1;
nodes = (
(531,157,o),
(444,113,o),
(372,113,cs),
(280,113,o),
(212,180,o),
(212,287,cs),
(212,461,o),
(332,611,o),
(406,611,cs),
(431,611,o),
(446,596,o),
(446,570,cs),
(446,542,o),
(425,522,o),
(425,494,cs),
(425,462,o),
(449,431,o),
(489,431,cs),
(521,431,o),
(545,450,o),
(560,481,cs),
(576,513,o),
(583,547,o),
(583,578,cs),
(583,666,o),
(525,739,o),
(420,739,cs),
(244,739,o),
(72,546,o),
(72,279,cs),
(72,119,o),
(163,12,o),
(301,-12,c),
(297,-23,o),
(295,-33,o),
(295,-43,cs),
(295,-58,o),
(298,-74,o),
(319,-92,cs),
(333,-104,o),
(346,-112,o),
(346,-123,cs),
(346,-130,o),
(340,-136,o),
(331,-136,cs),
(327,-136,o),
(320,-133,o),
(312,-129,cs),
(302,-124,o),
(292,-122,o),
(283,-122,cs),
(253,-122,o),
(233,-147,o),
(233,-176,cs),
(233,-197,o),
(243,-219,o),
(269,-233,cs),
(289,-244,o),
(313,-251,o),
(348,-251,cs),
(418,-251,o),
(461,-192,o),
(461,-133,cs),
(461,-108,o),
(451,-86,o),
(435,-68,cs),
(420,-51,o),
(405,-41,o),
(405,-33,cs),
(405,-27,o),
(408,-20,o),
(410,-15,c),
(410,-14,o),
(410,-14,o),
(411,-13,c),
(519,3,o),
(612,79,o),
(667,236,cs),
(669,242,o),
(670,249,o),
(670,254,cs),
(670,283,o),
(644,302,o),
(618,302,cs),
(599,302,o),
(581,292,o),
(573,271,cs)
);
}
);
width = 584;
}
);
leftKerningGroup = C;
rightKerningGroup = A;
unicode = 199;
},
{
glyphname = Egrave;
layers = (
{
anchors = (
{
name = t.uni0302_2;
position = "{323, 710}";
}
);
hints = (
{
horizontal = 1;
place = (-17,125);
type = Stem;
},
{
horizontal = 1;
place = (330,125);
type = Stem;
},
{
horizontal = 1;
place = (620,124);
type = Stem;
},
{
place = (76,139);
type = Stem;
},
{
place = (127,136);
type = Stem;
},
{
place = (381,132);
type = Stem;
}
);
layerId = "2CBAB59C-6D1F-481C-8D47-CA6A7671DE0F";
shapes = (
{
closed = 1;
nodes = (
(309,791,ls),
(325,774,o),
(343,766,o),
(359,766,cs),
(390,766,o),
(415,792,o),
(415,823,cs),
(415,839,o),
(409,857,o),
(393,873,cs),
(332,937,ls),
(315,955,o),
(297,962,o),
(280,962,cs),
(250,962,o),
(224,937,o),
(224,906,cs),
(224,890,o),
(231,872,o),
(247,856,cs)
);
},
{
closed = 1;
nodes = (
(486,173,o),
(404,108,o),
(330,108,cs),
(251,108,o),
(215,155,o),
(215,209,cs),
(215,272,o),
(263,330,o),
(349,330,cs),
(392,330,o),
(413,361,o),
(413,392,cs),
(413,424,o),
(392,455,o),
(349,455,cs),
(292,455,o),
(263,502,o),
(263,546,cs),
(263,584,o),
(285,620,o),
(331,620,cs),
(364,620,o),
(383,600,o),
(383,574,cs),
(383,563,o),
(381,556,o),
(381,540,cs),
(381,509,o),
(404,487,o),
(445,487,cs),
(480,487,o),
(513,513,o),
(513,580,cs),
(513,676,o),
(436,744,o),
(332,744,cs),
(197,744,o),
(127,654,o),
(127,562,cs),
(127,502,o),
(158,441,o),
(222,406,c),
(127,373,o),
(76,288,o),
(76,191,cs),
(76,84,o),
(151,-17,o),
(313,-17,cs),
(433,-17,o),
(550,49,o),
(616,236,cs),
(618,242,o),
(619,248,o),
(619,254,cs),
(619,283,o),
(592,301,o),
(566,301,cs),
(548,301,o),
(530,292,o),
(522,271,cs)
);
}
);
width = 533;
}
);
leftKerningGroup = E;
rightKerningGroup = A;
unicode = 200;
},
{
glyphname = Eacute;
layers = (
{
anchors = (
{
name = t.uni0302_2;
position = "{323, 710}";
}
);
hints = (
{
horizontal = 1;
place = (-17,125);
type = Stem;
},
{
horizontal = 1;
place = (330,125);
type = Stem;
},
{
horizontal = 1;
place = (620,124);
type = Stem;
},
{
place = (76,139);
type = Stem;
},
{
place = (127,136);
type = Stem;
},
{
place = (381,132);
type = Stem;
}
);
layerId = "2CBAB59C-6D1F-481C-8D47-CA6A7671DE0F";
shapes = (
{
closed = 1;
nodes = (
(454,856,ls),
(470,873,o),
(477,890,o),
(477,906,cs),
(477,937,o),
(451,962,o),
(420,962,cs),
(404,962,o),
(386,955,o),
(369,937,cs),
(308,873,ls),
(292,857,o),
(286,839,o),
(286,823,cs),
(286,792,o),
(311,767,o),
(342,767,cs),
(358,767,o),
(376,774,o),
(392,791,cs)
);
},
{
closed = 1;
nodes = (
(486,173,o),
(404,108,o),
(330,108,cs),
(251,108,o),
(215,155,o),
(215,209,cs),
(215,272,o),
(263,330,o),
(349,330,cs),
(392,330,o),
(413,361,o),
(413,392,cs),
(413,424,o),
(392,455,o),
(349,455,cs),
(292,455,o),
(263,502,o),
(263,546,cs),
(263,584,o),
(285,620,o),
(331,620,cs),
(364,620,o),
(383,600,o),
(383,574,cs),
(383,563,o),
(381,556,o),
(381,540,cs),
(381,509,o),
(404,487,o),
(445,487,cs),
(480,487,o),
(513,513,o),
(513,580,cs),
(513,676,o),
(436,744,o),
(332,744,cs),
(197,744,o),
(127,654,o),
(127,562,cs),
(127,502,o),
(158,441,o),
(222,406,c),
(127,373,o),
(76,288,o),
(76,191,cs),
(76,84,o),
(151,-17,o),
(313,-17,cs),
(433,-17,o),
(550,49,o),
(616,236,cs),
(618,242,o),
(619,248,o),
(619,254,cs),
(619,283,o),
(592,301,o),
(566,301,cs),
(548,301,o),
(530,292,o),
(522,271,cs)
);
}
);
width = 533;
}
);
leftKerningGroup = E;
rightKerningGroup = A;
unicode = 201;
},
{
glyphname = Ecircumflex;
layers = (
{
anchors = (
{
name = t.uni0302_2;
position = "{323, 710}";
}
);
hints = (
{
horizontal = 1;
place = (-17,125);
type = Stem;
},
{
horizontal = 1;
place = (330,125);
type = Stem;
},
{
horizontal = 1;
place = (620,124);
type = Stem;
},
{
place = (76,139);
type = Stem;
},
{
place = (127,136);
type = Stem;
},
{
place = (381,132);
type = Stem;
}
);
layerId = "2CBAB59C-6D1F-481C-8D47-CA6A7671DE0F";
shapes = (
{
closed = 1;
nodes = (
(321,805,ls),
(328,810,o),
(334,812,o),
(340,812,cs),
(347,812,o),
(353,809,o),
(360,802,cs),
(367,795,ls),
(383,779,o),
(399,773,o),
(415,773,cs),
(444,773,o),
(468,796,o),
(468,825,cs),
(468,838,o),
(463,853,o),
(451,867,cs),
(393,932,ls),
(381,945,o),
(368,951,o),
(355,951,cs),
(345,951,o),
(335,947,o),
(324,940,cs),
(236,880,ls),
(213,864,o),
(204,845,o),
(204,828,cs),
(204,799,o),
(228,775,o),
(258,775,cs),
(269,775,o),
(282,779,o),
(294,787,cs)
);
},
{
closed = 1;
nodes = (
(486,173,o),
(404,108,o),
(330,108,cs),
(251,108,o),
(215,155,o),
(215,209,cs),
(215,272,o),
(263,330,o),
(349,330,cs),
(392,330,o),
(413,361,o),
(413,392,cs),
(413,424,o),
(392,455,o),
(349,455,cs),
(292,455,o),
(263,502,o),
(263,546,cs),
(263,584,o),
(285,620,o),
(331,620,cs),
(364,620,o),
(383,600,o),
(383,574,cs),
(383,563,o),
(381,556,o),
(381,540,cs),
(381,509,o),
(404,487,o),
(445,487,cs),
(480,487,o),
(513,513,o),
(513,580,cs),
(513,676,o),
(436,744,o),
(332,744,cs),
(197,744,o),
(127,654,o),
(127,562,cs),
(127,502,o),
(158,441,o),
(222,406,c),
(127,373,o),
(76,288,o),
(76,191,cs),
(76,84,o),
(151,-17,o),
(313,-17,cs),
(433,-17,o),
(550,49,o),
(616,236,cs),
(618,242,o),
(619,248,o),
(619,254,cs),
(619,283,o),
(592,301,o),
(566,301,cs),
(548,301,o),
(530,292,o),
(522,271,cs)
);
}
);
width = 533;
}
);
leftKerningGroup = E;
rightKerningGroup = A;
unicode = 202;
},
{
glyphname = Edieresis;
layers = (
{
anchors = (
{
name = t.uni0302_2;
position = "{323, 710}";
}
);
hints = (
{
horizontal = 1;
place = (-17,125);
type = Stem;
},
{
horizontal = 1;
place = (330,125);
type = Stem;
},
{
horizontal = 1;
place = (620,124);
type = Stem;
},
{
horizontal = 1;
place = (786,136);
type = Stem;
},
{
place = (76,139);
type = Stem;
},
{
place = (127,136);
type = Stem;
},
{
place = (184,136);
type = Stem;
},
{
place = (352,136);
type = Stem;
},
{
place = (381,132);
type = Stem;
}
);
layerId = "2CBAB59C-6D1F-481C-8D47-CA6A7671DE0F";
shapes = (
{
closed = 1;
nodes = (
(289,786,o),
(320,817,o),
(320,854,cs),
(320,891,o),
(289,922,o),
(252,922,cs),
(215,922,o),
(184,891,o),
(184,854,cs),
(184,817,o),
(215,786,o),
(252,786,cs)
);
},
{
closed = 1;
nodes = (
(457,786,o),
(488,817,o),
(488,854,cs),
(488,891,o),
(457,922,o),
(420,922,cs),
(383,922,o),
(352,891,o),
(352,854,cs),
(352,817,o),
(383,786,o),
(420,786,cs)
);
},
{
closed = 1;
nodes = (
(486,173,o),
(404,108,o),
(330,108,cs),
(251,108,o),
(215,155,o),
(215,209,cs),
(215,272,o),
(263,330,o),
(349,330,cs),
(392,330,o),
(413,361,o),
(413,392,cs),
(413,424,o),
(392,455,o),
(349,455,cs),
(292,455,o),
(263,502,o),
(263,546,cs),
(263,584,o),
(285,620,o),
(331,620,cs),
(364,620,o),
(383,600,o),
(383,574,cs),
(383,563,o),
(381,556,o),
(381,540,cs),
(381,509,o),
(404,487,o),
(445,487,cs),
(480,487,o),
(513,513,o),
(513,580,cs),
(513,676,o),
(436,744,o),
(332,744,cs),
(197,744,o),
(127,654,o),
(127,562,cs),
(127,502,o),
(158,441,o),
(222,406,c),
(127,373,o),
(76,288,o),
(76,191,cs),
(76,84,o),
(151,-17,o),
(313,-17,cs),
(433,-17,o),
(550,49,o),
(616,236,cs),
(618,242,o),
(619,248,o),
(619,254,cs),
(619,283,o),
(592,301,o),
(566,301,cs),
(548,301,o),
(530,292,o),
(522,271,cs)
);
}
);
width = 533;
}
);
leftKerningGroup = E;
rightKerningGroup = A;
unicode = 203;
},
{
glyphname = Igrave;
layers = (
{
anchors = (
{
name = t.uni0302_2;
position = "{276, 710}";
},
{
name = b.uni0326_1_2;
position = "{229, 0}";
}
);
hints = (
{
horizontal = 1;
place = (-12,125);
type = Stem;
},
{
horizontal = 1;
place = (621,125);
type = Stem;
},
{
place = (57,135);
type = Stem;
},
{
place = (304,140);
type = Stem;
}
);
layerId = "2CBAB59C-6D1F-481C-8D47-CA6A7671DE0F";
shapes = (
{
closed = 1;
nodes = (
(285,937,ls),
(268,955,o),
(250,962,o),
(233,962,cs),
(203,962,o),
(177,937,o),
(177,906,cs),
(177,890,o),
(184,872,o),
(200,856,cs),
(262,791,ls),
(278,774,o),
(296,766,o),
(312,766,cs),
(343,766,o),
(368,792,o),
(368,823,cs),
(368,839,o),
(362,857,o),
(346,873,cs)
);
},
{
closed = 1;
nodes = (
(304,602,o),
(304,585,o),
(304,569,cs),
(304,226,o),
(265,113,o),
(221,113,cs),
(187,113,o),
(182,156,o),
(135,156,cs),
(102,156,o),
(77,131,o),
(77,89,cs),
(77,40,o),
(129,-12,o),
(216,-12,cs),
(353,-12,o),
(444,88,o),
(444,568,cs),
(444,603,o),
(443,643,o),
(442,673,cs),
(441,711,o),
(422,732,o),
(379,738,cs),
(342,743,o),
(299,746,o),
(255,746,cs),
(129,746,o),
(57,675,o),
(57,579,cs),
(57,493,o),
(121,432,o),
(193,432,cs),
(230,432,o),
(255,461,o),
(255,496,cs),
(255,524,o),
(239,538,o),
(223,549,cs),
(207,560,o),
(192,566,o),
(192,582,cs),
(192,604,o),
(209,621,o),
(257,621,cs),
(276,621,o),
(289,620,o),
(304,619,c)
);
}
);
width = 458;
}
);
leftKerningGroup = I2;
rightKerningGroup = I;
unicode = 204;
},
{
glyphname = Iacute;
layers = (
{
anchors = (
{
name = t.uni0302_2;
position = "{276, 710}";
},
{
name = b.uni0326_1_2;
position = "{229, 0}";
}
);
hints = (
{
horizontal = 1;
place = (-12,125);
type = Stem;
},
{
horizontal = 1;
place = (621,125);
type = Stem;
},
{
place = (57,135);
type = Stem;
},
{
place = (304,140);
type = Stem;
}
);
layerId = "2CBAB59C-6D1F-481C-8D47-CA6A7671DE0F";
shapes = (
{
closed = 1;
nodes = (
(261,873,ls),
(245,857,o),
(239,839,o),
(239,823,cs),
(239,792,o),
(264,767,o),
(295,767,cs),
(311,767,o),
(329,774,o),
(345,791,cs),
(407,856,ls),
(423,873,o),
(430,890,o),
(430,906,cs),
(430,937,o),
(404,962,o),
(373,962,cs),
(357,962,o),
(339,955,o),
(322,937,cs)
);
},
{
closed = 1;
nodes = (
(304,602,o),
(304,585,o),
(304,569,cs),
(304,226,o),
(265,113,o),
(221,113,cs),
(187,113,o),
(182,156,o),
(135,156,cs),
(102,156,o),
(77,131,o),
(77,89,cs),
(77,40,o),
(129,-12,o),
(216,-12,cs),
(353,-12,o),
(444,88,o),
(444,568,cs),
(444,603,o),
(443,643,o),
(442,673,cs),
(441,711,o),
(422,732,o),
(379,738,cs),
(342,743,o),
(299,746,o),
(255,746,cs),
(129,746,o),
(57,675,o),
(57,579,cs),
(57,493,o),
(121,432,o),
(193,432,cs),
(230,432,o),
(255,461,o),
(255,496,cs),
(255,524,o),
(239,538,o),
(223,549,cs),
(207,560,o),
(192,566,o),
(192,582,cs),
(192,604,o),
(209,621,o),
(257,621,cs),
(276,621,o),
(289,620,o),
(304,619,c)
);
}
);
width = 458;
}
);
leftKerningGroup = I2;
rightKerningGroup = I;
unicode = 205;
},
{
glyphname = Icircumflex;
layers = (
{
anchors = (
{
name = t.uni0302_2;
position = "{276, 710}";
},
{
name = b.uni0326_1_2;
position = "{229, 0}";
}
);
hints = (
{
horizontal = 1;
place = (-12,125);
type = Stem;
},
{
horizontal = 1;
place = (621,125);
type = Stem;
},
{
place = (57,135);
type = Stem;
},
{
place = (304,140);
type = Stem;
}
);
layerId = "2CBAB59C-6D1F-481C-8D47-CA6A7671DE0F";
shapes = (
{
closed = 1;
nodes = (
(274,805,ls),
(281,810,o),
(287,812,o),
(293,812,cs),
(300,812,o),
(306,809,o),
(313,802,cs),
(320,795,ls),
(336,779,o),
(352,773,o),
(368,773,cs),
(397,773,o),
(421,796,o),
(421,825,cs),
(421,838,o),
(416,853,o),
(404,867,cs),
(346,932,ls),
(334,945,o),
(321,951,o),
(308,951,cs),
(298,951,o),
(288,947,o),
(277,940,cs),
(189,880,ls),
(166,864,o),
(157,845,o),
(157,828,cs),
(157,799,o),
(181,775,o),
(211,775,cs),
(222,775,o),
(235,779,o),
(247,787,cs)
);
},
{
closed = 1;
nodes = (
(304,602,o),
(304,585,o),
(304,569,cs),
(304,226,o),
(265,113,o),
(221,113,cs),
(187,113,o),
(182,156,o),
(135,156,cs),
(102,156,o),
(77,131,o),
(77,89,cs),
(77,40,o),
(129,-12,o),
(216,-12,cs),
(353,-12,o),
(444,88,o),
(444,568,cs),
(444,603,o),
(443,643,o),
(442,673,cs),
(441,711,o),
(422,732,o),
(379,738,cs),
(342,743,o),
(299,746,o),
(255,746,cs),
(129,746,o),
(57,675,o),
(57,579,cs),
(57,493,o),
(121,432,o),
(193,432,cs),
(230,432,o),
(255,461,o),
(255,496,cs),
(255,524,o),
(239,538,o),
(223,549,cs),
(207,560,o),
(192,566,o),
(192,582,cs),
(192,604,o),
(209,621,o),
(257,621,cs),
(276,621,o),
(289,620,o),
(304,619,c)
);
}
);
width = 458;
}
);
leftKerningGroup = I2;
rightKerningGroup = I;
unicode = 206;
},
{
glyphname = Idieresis;
layers = (
{
anchors = (
{
name = t.uni0302_2;
position = "{276, 710}";
},
{
name = b.uni0326_1_2;
position = "{229, 0}";
}
);
hints = (
{
horizontal = 1;
place = (-12,125);
type = Stem;
},
{
horizontal = 1;
place = (621,125);
type = Stem;
},
{
horizontal = 1;
place = (786,136);
type = Stem;
},
{
place = (57,135);
type = Stem;
},
{
place = (137,136);
type = Stem;
},
{
place = (304,140);
type = Stem;
},
{
place = (305,136);
type = Stem;
}
);
layerId = "2CBAB59C-6D1F-481C-8D47-CA6A7671DE0F";
shapes = (
{
closed = 1;
nodes = (
(242,786,o),
(273,817,o),
(273,854,cs),
(273,891,o),
(242,922,o),
(205,922,cs),
(168,922,o),
(137,891,o),
(137,854,cs),
(137,817,o),
(168,786,o),
(205,786,cs)
);
},
{
closed = 1;
nodes = (
(410,786,o),
(441,817,o),
(441,854,cs),
(441,891,o),
(410,922,o),
(373,922,cs),
(336,922,o),
(305,891,o),
(305,854,cs),
(305,817,o),
(336,786,o),
(373,786,cs)
);
},
{
closed = 1;
nodes = (
(304,602,o),
(304,585,o),
(304,569,cs),
(304,226,o),
(265,113,o),
(221,113,cs),
(187,113,o),
(182,156,o),
(135,156,cs),
(102,156,o),
(77,131,o),
(77,89,cs),
(77,40,o),
(129,-12,o),
(216,-12,cs),
(353,-12,o),
(444,88,o),
(444,568,cs),
(444,603,o),
(443,643,o),
(442,673,cs),
(441,711,o),
(422,732,o),
(379,738,cs),
(342,743,o),
(299,746,o),
(255,746,cs),
(129,746,o),
(57,675,o),
(57,579,cs),
(57,493,o),
(121,432,o),
(193,432,cs),
(230,432,o),
(255,461,o),
(255,496,cs),
(255,524,o),
(239,538,o),
(223,549,cs),
(207,560,o),
(192,566,o),
(192,582,cs),
(192,604,o),
(209,621,o),
(257,621,cs),
(276,621,o),
(289,620,o),
(304,619,c)
);
}
);
width = 458;
}
);
leftKerningGroup = I2;
rightKerningGroup = I;
unicode = 207;
},
{
glyphname = Eth;
layers = (
{
anchors = (
{
name = t.uni0302_2;
position = "{460, 710}";
}
);
hints = (
{
horizontal = 1;
place = (-18,130);
type = Stem;
},
{
horizontal = 1;
place = (-15,110);
type = Stem;
},
{
horizontal = 1;
place = (132,105);
type = Stem;
},
{
horizontal = 1;
place = (253,95);
type = Stem;
},
{
horizontal = 1;
place = (253,100);
type = Stem;
},
{
horizontal = 1;
place = (373,101);
type = Stem;
},
{
horizontal = 1;
place = (619,125);
type = Stem;
},
{
place = (62,124);
type = Stem;
},
{
place = (136,129);
type = Stem;
},
{
place = (325,135);
type = Stem;
},
{
place = (327,136);
type = Stem;
},
{
place = (673,140);
type = Stem;
}
);
layerId = "2CBAB59C-6D1F-481C-8D47-CA6A7671DE0F";
shapes = (
{
closed = 1;
nodes = (
(231,744,o),
(136,639,o),
(136,530,cs),
(136,447,o),
(210,373,o),
(326,373,c),
(327,373,l),
(327,365,o),
(327,357,o),
(326,349,c),
(309,349,o),
(290,351,o),
(271,353,c),
(267,353,o),
(264,354,o),
(261,354,cs),
(224,354,o),
(205,330,o),
(205,306,cs),
(205,285,o),
(220,263,o),
(252,257,cs),
(273,253,o),
(293,251,o),
(314,250,c),
(311,236,o),
(308,223,o),
(304,211,c),
(272,226,o),
(239,237,o),
(202,237,cs),
(110,237,o),
(62,173,o),
(62,109,cs),
(62,47,o),
(108,-15,o),
(204,-15,cs),
(266,-15,o),
(315,4,o),
(353,38,c),
(399,8,o),
(453,-18,o),
(513,-18,cs),
(705,-18,o),
(813,169,o),
(813,358,cs),
(813,550,o),
(702,744,o),
(447,744,cs)
);
},
{
closed = 1;
nodes = (
(483,112,o),
(452,125,o),
(421,142,c),
(436,178,o),
(446,219,o),
(453,265,c),
(479,272,o),
(506,282,o),
(532,294,cs),
(555,305,o),
(565,324,o),
(565,342,cs),
(565,366,o),
(548,388,o),
(519,388,cs),
(509,388,o),
(497,385,o),
(484,379,cs),
(477,376,o),
(470,372,o),
(462,370,c),
(462,379,o),
(463,388,o),
(463,398,c),
(478,404,o),
(492,410,o),
(506,418,cs),
(526,429,o),
(536,449,o),
(536,467,cs),
(536,490,o),
(521,510,o),
(490,510,cs),
(480,510,o),
(470,508,o),
(460,505,c),
(459,511,o),
(459,516,o),
(458,521,cs),
(454,558,o),
(423,576,o),
(392,576,cs),
(359,576,o),
(325,555,o),
(325,511,cs),
(325,497,o),
(325,485,o),
(326,474,c),
(287,474,o),
(265,493,o),
(265,521,cs),
(265,572,o),
(333,619,o),
(447,619,cs),
(608,619,o),
(673,490,o),
(673,363,cs),
(673,237,o),
(610,112,o),
(514,112,cs)
);
},
{
closed = 1;
nodes = (
(186,123,o),
(195,132,o),
(212,132,cs),
(230,132,o),
(247,125,o),
(266,114,c),
(250,101,o),
(231,95,o),
(212,95,cs),
(195,95,o),
(186,104,o),
(186,113,cs)
);
}
);
width = 818;
}
);
leftKerningGroup = D2;
rightKerningGroup = D;
unicode = 208;
},
{
glyphname = Ntilde;
layers = (
{
anchors = (
{
name = t.uni0302_2;
position = "{558, 710}";
},
{
name = b.uni0326_1_2;
position = "{488, 10}";
}
);
hints = (
{
horizontal = 1;
place = (-11,125);
type = Stem;
},
{
horizontal = 1;
place = (614,125);
type = Stem;
},
{
horizontal = 1;
place = (626,125);
type = Stem;
},
{
place = (589,140);
type = Stem;
},
{
place = (605,140);
type = Stem;
}
);
layerId = "2CBAB59C-6D1F-481C-8D47-CA6A7671DE0F";
shapes = (
{
closed = 1;
nodes = (
(511,805,o),
(517,808,o),
(524,808,cs),
(528,808,o),
(539,804,o),
(551,799,cs),
(570,791,o),
(594,781,o),
(613,781,cs),
(640,781,o),
(665,794,o),
(687,819,cs),
(700,833,o),
(705,849,o),
(705,864,cs),
(705,896,o),
(680,924,o),
(651,924,cs),
(641,924,o),
(629,921,o),
(619,912,cs),
(607,902,o),
(602,896,o),
(595,896,cs),
(583,896,o),
(534,925,o),
(505,925,cs),
(481,925,o),
(451,907,o),
(433,884,cs),
(421,869,o),
(416,854,o),
(416,839,cs),
(416,808,o),
(441,783,o),
(469,783,cs),
(481,783,o),
(494,788,o),
(505,799,cs)
);
},
{
closed = 1;
nodes = (
(821,199,o),
(785,114,o),
(754,114,cs),
(739,114,o),
(729,124,o),
(729,151,cs),
(729,227,o),
(745,413,o),
(745,501,cs),
(745,674,o),
(680,739,o),
(572,739,cs),
(476,739,o),
(401,679,o),
(350,558,c),
(325,698,o),
(265,751,o),
(170,751,cs),
(118,751,o),
(75,731,o),
(46,705,cs),
(22,683,o),
(10,655,o),
(10,631,cs),
(10,598,o),
(35,574,o),
(67,574,cs),
(88,574,o),
(102,583,o),
(113,594,cs),
(128,609,o),
(138,626,o),
(157,626,cs),
(198,626,o),
(229,551,o),
(229,424,cs),
(229,242,o),
(208,116,o),
(203,62,cs),
(198,9,o),
(234,-18,o),
(271,-18,cs),
(303,-18,o),
(336,3,o),
(342,47,cs),
(347,85,o),
(352,146,o),
(366,281,cs),
(383,447,o),
(484,614,o),
(559,614,cs),
(587,614,o),
(605,596,o),
(605,523,cs),
(605,427,o),
(589,198,o),
(589,154,cs),
(589,44,o),
(644,-11,o),
(729,-11,cs),
(807,-11,o),
(873,41,o),
(940,236,cs),
(942,243,o),
(943,249,o),
(943,255,cs),
(943,284,o),
(917,302,o),
(890,302,cs),
(872,302,o),
(854,292,o),
(846,271,cs)
);
}
);
width = 857;
}
);
leftKerningGroup = M;
rightKerningGroup = A;
unicode = 209;
},
{
glyphname = Ograve;
layers = (
{
anchors = (
{
name = t.uni0302_2;
position = "{474, 710}";
}
);
hints = (
{
horizontal = 1;
place = (-20,125);
type = Stem;
},
{
horizontal = 1;
place = (615,125);
type = Stem;
},
{
place = (83,140);
type = Stem;
},
{
place = (262,125);
type = Stem;
},
{
place = (555,140);
type = Stem;
}
);
layerId = "2CBAB59C-6D1F-481C-8D47-CA6A7671DE0F";
shapes = (
{
closed = 1;
nodes = (
(460,791,ls),
(476,774,o),
(494,766,o),
(510,766,cs),
(541,766,o),
(566,792,o),
(566,823,cs),
(566,839,o),
(560,857,o),
(544,873,cs),
(483,937,ls),
(466,955,o),
(448,962,o),
(431,962,cs),
(401,962,o),
(375,937,o),
(375,906,cs),
(375,890,o),
(382,872,o),
(398,856,cs)
);
},
{
closed = 1;
nodes = (
(734,224,o),
(699,187,o),
(649,177,c),
(679,246,o),
(695,331,o),
(695,430,cs),
(695,628,o),
(605,740,o),
(484,740,cs),
(444,740,o),
(406,725,o),
(373,699,c),
(364,714,o),
(347,723,o),
(327,723,cs),
(314,723,o),
(298,720,o),
(284,715,cs),
(172,675,o),
(83,496,o),
(83,322,cs),
(83,106,o),
(203,-20,o),
(371,-20,cs),
(456,-20,o),
(528,12,o),
(583,72,c),
(602,72,ls),
(704,72,o),
(799,116,o),
(844,236,cs),
(846,242,o),
(847,247,o),
(847,253,cs),
(847,281,o),
(819,303,o),
(792,303,cs),
(775,303,o),
(758,294,o),
(750,271,cs)
);
},
{
closed = 1;
nodes = (
(514,615,o),
(555,572,o),
(555,433,cs),
(555,333,o),
(538,258,o),
(512,205,c),
(438,248,o),
(387,332,o),
(387,439,cs),
(387,562,o),
(433,615,o),
(473,615,cs)
);
},
{
closed = 1;
nodes = (
(295,105,o),
(223,177,o),
(223,330,cs),
(223,413,o),
(242,501,o),
(280,556,c),
(268,519,o),
(262,479,o),
(262,436,cs),
(262,288,o),
(328,175,o),
(430,116,c),
(414,109,o),
(398,105,o),
(382,105,cs)
);
}
);
width = 761;
}
);
leftKerningGroup = O;
rightKerningGroup = A;
unicode = 210;
},
{
glyphname = Oacute;
layers = (
{
anchors = (
{
name = t.uni0302_2;
position = "{474, 710}";
}
);
hints = (
{
horizontal = 1;
place = (-20,125);
type = Stem;
},
{
horizontal = 1;
place = (615,125);
type = Stem;
},
{
place = (83,140);
type = Stem;
},
{
place = (262,125);
type = Stem;
},
{
place = (555,140);
type = Stem;
}
);
layerId = "2CBAB59C-6D1F-481C-8D47-CA6A7671DE0F";
shapes = (
{
closed = 1;
nodes = (
(605,856,ls),
(621,873,o),
(628,890,o),
(628,906,cs),
(628,937,o),
(602,962,o),
(571,962,cs),
(555,962,o),
(537,955,o),
(520,937,cs),
(459,873,ls),
(443,857,o),
(437,839,o),
(437,823,cs),
(437,792,o),
(462,767,o),
(493,767,cs),
(509,767,o),
(527,774,o),
(543,791,cs)
);
},
{
closed = 1;
nodes = (
(734,224,o),
(699,187,o),
(649,177,c),
(679,246,o),
(695,331,o),
(695,430,cs),
(695,628,o),
(605,740,o),
(484,740,cs),
(444,740,o),
(406,725,o),
(373,699,c),
(364,714,o),
(347,723,o),
(327,723,cs),
(314,723,o),
(298,720,o),
(284,715,cs),
(172,675,o),
(83,496,o),
(83,322,cs),
(83,106,o),
(203,-20,o),
(371,-20,cs),
(456,-20,o),
(528,12,o),
(583,72,c),
(602,72,ls),
(704,72,o),
(799,116,o),
(844,236,cs),
(846,242,o),
(847,247,o),
(847,253,cs),
(847,281,o),
(819,303,o),
(792,303,cs),
(775,303,o),
(758,294,o),
(750,271,cs)
);
},
{
closed = 1;
nodes = (
(514,615,o),
(555,572,o),
(555,433,cs),
(555,333,o),
(538,258,o),
(512,205,c),
(438,248,o),
(387,332,o),
(387,439,cs),
(387,562,o),
(433,615,o),
(473,615,cs)
);
},
{
closed = 1;
nodes = (
(295,105,o),
(223,177,o),
(223,330,cs),
(223,413,o),
(242,501,o),
(280,556,c),
(268,519,o),
(262,479,o),
(262,436,cs),
(262,288,o),
(328,175,o),
(430,116,c),
(414,109,o),
(398,105,o),
(382,105,cs)
);
}
);
width = 761;
}
);
leftKerningGroup = O;
rightKerningGroup = A;
unicode = 211;
},
{
glyphname = Ocircumflex;
layers = (
{
anchors = (
{
name = t.uni0302_2;
position = "{474, 710}";
}
);
hints = (
{
horizontal = 1;
place = (-20,125);
type = Stem;
},
{
horizontal = 1;
place = (615,125);
type = Stem;
},
{
place = (83,140);
type = Stem;
},
{
place = (262,125);
type = Stem;
},
{
place = (555,140);
type = Stem;
}
);
layerId = "2CBAB59C-6D1F-481C-8D47-CA6A7671DE0F";
shapes = (
{
closed = 1;
nodes = (
(472,805,ls),
(479,810,o),
(485,812,o),
(491,812,cs),
(498,812,o),
(504,809,o),
(511,802,cs),
(518,795,ls),
(534,779,o),
(550,773,o),
(566,773,cs),
(595,773,o),
(619,796,o),
(619,825,cs),
(619,838,o),
(614,853,o),
(602,867,cs),
(544,932,ls),
(532,945,o),
(519,951,o),
(506,951,cs),
(496,951,o),
(486,947,o),
(475,940,cs),
(387,880,ls),
(364,864,o),
(355,845,o),
(355,828,cs),
(355,799,o),
(379,775,o),
(409,775,cs),
(420,775,o),
(433,779,o),
(445,787,cs)
);
},
{
closed = 1;
nodes = (
(734,224,o),
(699,187,o),
(649,177,c),
(679,246,o),
(695,331,o),
(695,430,cs),
(695,628,o),
(605,740,o),
(484,740,cs),
(444,740,o),
(406,725,o),
(373,699,c),
(364,714,o),
(347,723,o),
(327,723,cs),
(314,723,o),
(298,720,o),
(284,715,cs),
(172,675,o),
(83,496,o),
(83,322,cs),
(83,106,o),
(203,-20,o),
(371,-20,cs),
(456,-20,o),
(528,12,o),
(583,72,c),
(602,72,ls),
(704,72,o),
(799,116,o),
(844,236,cs),
(846,242,o),
(847,247,o),
(847,253,cs),
(847,281,o),
(819,303,o),
(792,303,cs),
(775,303,o),
(758,294,o),
(750,271,cs)
);
},
{
closed = 1;
nodes = (
(514,615,o),
(555,572,o),
(555,433,cs),
(555,333,o),
(538,258,o),
(512,205,c),
(438,248,o),
(387,332,o),
(387,439,cs),
(387,562,o),
(433,615,o),
(473,615,cs)
);
},
{
closed = 1;
nodes = (
(295,105,o),
(223,177,o),
(223,330,cs),
(223,413,o),
(242,501,o),
(280,556,c),
(268,519,o),
(262,479,o),
(262,436,cs),
(262,288,o),
(328,175,o),
(430,116,c),
(414,109,o),
(398,105,o),
(382,105,cs)
);
}
);
width = 761;
}
);
leftKerningGroup = O;
rightKerningGroup = A;
unicode = 212;
},
{
glyphname = Otilde;
layers = (
{
anchors = (
{
name = t.uni0302_2;
position = "{474, 710}";
}
);
hints = (
{
horizontal = 1;
place = (-20,125);
type = Stem;
},
{
horizontal = 1;
place = (615,125);
type = Stem;
},
{
place = (83,140);
type = Stem;
},
{
place = (262,125);
type = Stem;
},
{
place = (555,140);
type = Stem;
}
);
layerId = "2CBAB59C-6D1F-481C-8D47-CA6A7671DE0F";
shapes = (
{
closed = 1;
nodes = (
(427,805,o),
(433,808,o),
(440,808,cs),
(444,808,o),
(455,804,o),
(467,799,cs),
(486,791,o),
(510,781,o),
(529,781,cs),
(556,781,o),
(581,794,o),
(603,819,cs),
(616,833,o),
(621,849,o),
(621,864,cs),
(621,896,o),
(596,924,o),
(567,924,cs),
(557,924,o),
(545,921,o),
(535,912,cs),
(523,902,o),
(518,896,o),
(511,896,cs),
(499,896,o),
(450,925,o),
(421,925,cs),
(397,925,o),
(367,907,o),
(349,884,cs),
(337,869,o),
(332,854,o),
(332,839,cs),
(332,808,o),
(357,783,o),
(385,783,cs),
(397,783,o),
(410,788,o),
(421,799,cs)
);
},
{
closed = 1;
nodes = (
(734,224,o),
(699,187,o),
(649,177,c),
(679,246,o),
(695,331,o),
(695,430,cs),
(695,628,o),
(605,740,o),
(484,740,cs),
(444,740,o),
(406,725,o),
(373,699,c),
(364,714,o),
(347,723,o),
(327,723,cs),
(314,723,o),
(298,720,o),
(284,715,cs),
(172,675,o),
(83,496,o),
(83,322,cs),
(83,106,o),
(203,-20,o),
(371,-20,cs),
(456,-20,o),
(528,12,o),
(583,72,c),
(602,72,ls),
(704,72,o),
(799,116,o),
(844,236,cs),
(846,242,o),
(847,247,o),
(847,253,cs),
(847,281,o),
(819,303,o),
(792,303,cs),
(775,303,o),
(758,294,o),
(750,271,cs)
);
},
{
closed = 1;
nodes = (
(514,615,o),
(555,572,o),
(555,433,cs),
(555,333,o),
(538,258,o),
(512,205,c),
(438,248,o),
(387,332,o),
(387,439,cs),
(387,562,o),
(433,615,o),
(473,615,cs)
);
},
{
closed = 1;
nodes = (
(295,105,o),
(223,177,o),
(223,330,cs),
(223,413,o),
(242,501,o),
(280,556,c),
(268,519,o),
(262,479,o),
(262,436,cs),
(262,288,o),
(328,175,o),
(430,116,c),
(414,109,o),
(398,105,o),
(382,105,cs)
);
}
);
width = 761;
}
);
leftKerningGroup = O;
rightKerningGroup = A;
unicode = 213;
},
{
glyphname = Odieresis;
layers = (
{
anchors = (
{
name = t.uni0302_2;
position = "{474, 710}";
}
);
hints = (
{
horizontal = 1;
place = (-20,125);
type = Stem;
},
{
horizontal = 1;
place = (615,125);
type = Stem;
},
{
horizontal = 1;
place = (786,136);
type = Stem;
},
{
place = (83,140);
type = Stem;
},
{
place = (262,125);
type = Stem;
},
{
place = (335,136);
type = Stem;
},
{
place = (503,136);
type = Stem;
},
{
place = (555,140);
type = Stem;
}
);
layerId = "2CBAB59C-6D1F-481C-8D47-CA6A7671DE0F";
shapes = (
{
closed = 1;
nodes = (
(440,786,o),
(471,817,o),
(471,854,cs),
(471,891,o),
(440,922,o),
(403,922,cs),
(366,922,o),
(335,891,o),
(335,854,cs),
(335,817,o),
(366,786,o),
(403,786,cs)
);
},
{
closed = 1;
nodes = (
(608,786,o),
(639,817,o),
(639,854,cs),
(639,891,o),
(608,922,o),
(571,922,cs),
(534,922,o),
(503,891,o),
(503,854,cs),
(503,817,o),
(534,786,o),
(571,786,cs)
);
},
{
closed = 1;
nodes = (
(734,224,o),
(699,187,o),
(649,177,c),
(679,246,o),
(695,331,o),
(695,430,cs),
(695,628,o),
(605,740,o),
(484,740,cs),
(444,740,o),
(406,725,o),
(373,699,c),
(364,714,o),
(347,723,o),
(327,723,cs),
(314,723,o),
(298,720,o),
(284,715,cs),
(172,675,o),
(83,496,o),
(83,322,cs),
(83,106,o),
(203,-20,o),
(371,-20,cs),
(456,-20,o),
(528,12,o),
(583,72,c),
(602,72,ls),
(704,72,o),
(799,116,o),
(844,236,cs),
(846,242,o),
(847,247,o),
(847,253,cs),
(847,281,o),
(819,303,o),
(792,303,cs),
(775,303,o),
(758,294,o),
(750,271,cs)
);
},
{
closed = 1;
nodes = (
(514,615,o),
(555,572,o),
(555,433,cs),
(555,333,o),
(538,258,o),
(512,205,c),
(438,248,o),
(387,332,o),
(387,439,cs),
(387,562,o),
(433,615,o),
(473,615,cs)
);
},
{
closed = 1;
nodes = (
(295,105,o),
(223,177,o),
(223,330,cs),
(223,413,o),
(242,501,o),
(280,556,c),
(268,519,o),
(262,479,o),
(262,436,cs),
(262,288,o),
(328,175,o),
(430,116,c),
(414,109,o),
(398,105,o),
(382,105,cs)
);
}
);
width = 761;
}
);
leftKerningGroup = O;
rightKerningGroup = A;
unicode = 214;
},
{
glyphname = multiply;
layers = (
{
hints = (
{
horizontal = 1;
place = (424,-20);
target = down;
type = TopGhost;
},
{
place = (30,297);
type = Stem;
}
);
layerId = "2CBAB59C-6D1F-481C-8D47-CA6A7671DE0F";
shapes = (
{
closed = 1;
nodes = (
(263,341,l),
(303,381,ls),
(316,394,o),
(323,410,o),
(323,425,cs),
(323,457,o),
(294,485,o),
(262,485,cs),
(247,485,o),
(233,479,o),
(220,466,cs),
(178,424,l),
(140,462,l),
(127,474,o),
(112,481,o),
(97,481,cs),
(64,481,o),
(37,453,o),
(37,422,cs),
(37,407,o),
(44,391,o),
(57,378,cs),
(95,341,l),
(50,296,ls),
(37,283,o),
(30,268,o),
(30,253,cs),
(30,221,o),
(58,193,o),
(90,193,cs),
(105,193,o),
(119,199,o),
(133,212,c),
(178,257,l),
(224,212,ls),
(237,200,o),
(251,193,o),
(266,193,cs),
(298,193,o),
(327,221,o),
(327,253,cs),
(327,268,o),
(320,284,o),
(307,297,cs)
);
}
);
width = 357;
}
);
unicode = 215;
},
{
glyphname = Oslash;
layers = (
{
anchors = (
{
name = t.uni0302_2;
position = "{361, 700}";
},
{
name = b.uni0326_1_2;
position = "{361, 0}";
}
);
hints = (
{
horizontal = 1;
place = (-20,125);
type = Stem;
},
{
horizontal = 1;
place = (615,128);
type = Stem;
},
{
place = (83,140);
type = Stem;
},
{
place = (535,140);
type = Stem;
}
);
layerId = "2CBAB59C-6D1F-481C-8D47-CA6A7671DE0F";
shapes = (
{
closed = 1;
nodes = (
(713,224,o),
(680,186,o),
(629,177,c),
(659,246,o),
(675,331,o),
(675,430,cs),
(675,512,o),
(663,579,o),
(636,629,c),
(654,656,ls),
(664,671,o),
(668,686,o),
(668,699,cs),
(668,731,o),
(642,754,o),
(613,754,cs),
(594,754,o),
(573,744,o),
(557,721,cs),
(556,719,o),
(554,717,o),
(553,714,c),
(516,733,o),
(472,743,o),
(417,743,cs),
(178,743,o),
(83,521,o),
(83,342,cs),
(83,250,o),
(101,173,o),
(133,115,c),
(103,75,ls),
(92,61,o),
(87,46,o),
(87,32,cs),
(87,0,o),
(113,-25,o),
(142,-25,cs),
(159,-25,o),
(178,-16,o),
(194,4,cs),
(199,10,o),
(204,17,o),
(210,25,c),
(250,-5,o),
(298,-20,o),
(351,-20,cs),
(435,-20,o),
(508,12,o),
(563,72,c),
(582,72,ls),
(684,72,o),
(785,119,o),
(824,236,cs),
(826,241,o),
(827,246,o),
(827,251,cs),
(827,280,o),
(799,303,o),
(772,303,cs),
(755,303,o),
(738,294,o),
(730,271,cs)
);
},
{
closed = 1;
nodes = (
(223,498,o),
(288,615,o),
(403,615,cs),
(432,615,o),
(455,611,o),
(474,601,c),
(404,498,o),
(312,364,o),
(232,251,c),
(226,280,o),
(223,313,o),
(223,350,cs)
);
},
{
closed = 1;
nodes = (
(336,105,o),
(312,114,o),
(291,133,c),
(367,238,o),
(458,367,o),
(533,477,c),
(534,463,o),
(535,449,o),
(535,433,cs),
(535,334,o),
(518,259,o),
(492,206,c),
(482,212,l),
(472,219,o),
(462,222,o),
(451,222,cs),
(422,222,o),
(395,196,o),
(395,167,cs),
(395,152,o),
(402,136,o),
(420,122,c),
(401,110,o),
(381,105,o),
(362,105,cs)
);
}
);
width = 741;
}
);
leftKerningGroup = O;
rightKerningGroup = A;
unicode = 216;
},
{
glyphname = Ugrave;
layers = (
{
anchors = (
{
name = t.uni0302_2;
position = "{410, 710}";
}
);
hints = (
{
horizontal = 1;
place = (-9,124);
type = Stem;
},
{
horizontal = 1;
place = (-7,125);
type = Stem;
},
{
horizontal = 1;
place = (620,120);
type = Stem;
},
{
place = (129,140);
type = Stem;
},
{
place = (194,139);
type = Stem;
}
);
layerId = "2CBAB59C-6D1F-481C-8D47-CA6A7671DE0F";
shapes = (
{
closed = 1;
nodes = (
(396,791,ls),
(412,774,o),
(430,766,o),
(446,766,cs),
(477,766,o),
(502,792,o),
(502,823,cs),
(502,839,o),
(496,857,o),
(480,873,cs),
(419,937,ls),
(402,955,o),
(384,962,o),
(367,962,cs),
(337,962,o),
(311,937,o),
(311,906,cs),
(311,890,o),
(318,872,o),
(334,856,cs)
);
},
{
closed = 1;
nodes = (
(742,186,o),
(709,118,o),
(675,118,cs),
(651,118,o),
(621,148,o),
(621,240,cs),
(621,296,o),
(621,396,o),
(643,532,cs),
(647,557,o),
(650,581,o),
(650,594,cs),
(650,637,o),
(616,661,o),
(581,661,cs),
(550,661,o),
(519,641,o),
(513,598,cs),
(473,315,o),
(385,115,o),
(305,115,cs),
(284,115,o),
(269,130,o),
(269,168,cs),
(269,256,o),
(333,529,o),
(333,606,cs),
(333,687,o),
(283,740,o),
(192,740,cs),
(100,740,o),
(34,674,o),
(34,605,cs),
(34,570,o),
(55,548,o),
(88,548,cs),
(111,548,o),
(125,559,o),
(137,576,cs),
(160,608,o),
(169,620,o),
(179,620,cs),
(187,620,o),
(194,613,o),
(194,591,cs),
(194,545,o),
(129,250,o),
(129,160,cs),
(129,57,o),
(189,-9,o),
(288,-9,cs),
(376,-9,o),
(445,52,o),
(498,163,c),
(514,46,o),
(577,-7,o),
(657,-7,cs),
(731,-7,o),
(799,41,o),
(867,236,cs),
(869,242,o),
(870,249,o),
(870,254,cs),
(870,283,o),
(844,302,o),
(818,302,cs),
(799,302,o),
(781,292,o),
(773,271,cs)
);
}
);
width = 784;
}
);
leftKerningGroup = U;
rightKerningGroup = A;
unicode = 217;
},
